<svg version="1.1" id="Layer_1" xmlns="http://www.w3.org/2000/svg" xmlns:xlink="http://www.w3.org/1999/xlink" x="0px" y="0px"
	 width="100%" viewBox="0 0 1600 585" enable-background="new 0 0 1600 585" xml:space="preserve">
<path fill="#FFFFFF" opacity="1.000000" stroke="none" 
	d="
M1119.000000,586.000000 
	C746.042542,586.000000 373.585083,586.000000 1.063811,586.000000 
	C1.063811,391.064819 1.063811,196.129623 1.063811,1.097215 
	C534.333313,1.097215 1067.666626,1.097215 1600.971924,1.097215 
	C1600.971924,196.081863 1600.971924,391.040924 1600.971924,586.000000 
	C1440.462646,586.000000 1279.981323,586.000000 1119.000000,586.000000 
M1135.948120,251.395691 
	C1140.794067,244.917343 1145.148315,237.975266 1150.664062,232.128738 
	C1154.158325,228.424820 1159.070068,225.497406 1163.898315,223.732864 
	C1173.021118,220.398834 1178.207397,225.756592 1176.489258,235.333313 
	C1172.774902,256.036377 1163.772949,274.931885 1156.892212,294.562683 
	C1152.843628,306.113007 1149.192261,317.876038 1146.472412,329.796722 
	C1143.992065,340.667969 1152.391479,349.939697 1163.568604,349.943695 
	C1173.226807,349.947174 1181.306641,346.817474 1187.099243,338.498169 
	C1192.636719,330.545013 1197.665283,322.427155 1199.532471,312.764496 
	C1199.743042,311.674622 1199.150146,310.429474 1198.929810,309.256348 
	C1197.853882,309.763214 1196.641113,310.104431 1195.752319,310.838013 
	C1195.205322,311.289581 1195.251221,312.393433 1194.862915,313.113831 
	C1190.706421,320.825653 1186.705811,328.631409 1182.252686,336.169220 
	C1180.130005,339.761963 1176.366699,341.509094 1172.366455,339.503967 
	C1168.152832,337.391968 1168.349976,333.375671 1169.674805,329.469635 
	C1177.063110,307.683838 1184.680298,285.973267 1191.821533,264.107147 
	C1195.202026,253.756287 1199.002808,243.366501 1198.001709,232.113525 
	C1197.432007,225.709396 1195.785889,219.478104 1189.219360,217.095428 
	C1175.914917,212.267944 1163.870850,215.748901 1152.894653,224.092239 
	C1142.197266,232.223724 1135.366089,243.373199 1128.724121,254.693573 
	C1128.036987,255.864578 1127.145264,256.915497 1126.348389,258.022125 
	C1125.881348,257.813263 1125.414185,257.604401 1124.947144,257.395538 
	C1125.933105,254.056168 1126.941406,250.723190 1127.901855,247.376480 
	C1136.541016,217.267929 1145.196533,187.163986 1153.746582,157.030136 
	C1154.289185,155.118225 1153.992798,152.968307 1154.086792,150.929123 
	C1151.877075,150.882202 1149.581909,150.423492 1147.473022,150.861954 
	C1139.692749,152.479568 1132.014648,154.604797 1124.215454,156.109909 
	C1120.183960,156.887894 1115.943604,156.540222 1111.870850,157.172272 
	C1110.513794,157.382874 1109.384399,159.058884 1108.150879,160.064987 
	C1109.281616,160.695236 1110.357422,161.479263 1111.559692,161.909729 
	C1112.627075,162.291870 1113.853638,162.199600 1114.977783,162.457382 
	C1124.176270,164.566711 1126.799438,169.436935 1124.148071,178.342026 
	C1120.174805,191.686432 1116.545410,205.132812 1112.713379,218.519684 
	C1107.930664,235.227371 1103.078491,251.915146 1098.280029,268.618317 
	C1095.396851,278.654297 1092.577148,288.708527 1089.695435,298.744934 
	C1085.624634,312.922577 1081.536255,327.095184 1077.424194,341.260925 
	C1076.461670,344.576447 1077.760864,345.983887 1081.062500,345.957153 
	C1084.560913,345.928772 1088.059692,345.952972 1091.558350,345.952881 
	C1099.071289,345.952637 1098.845093,345.883484 1101.113647,338.429413 
	C1105.688843,323.395447 1109.719238,308.120026 1115.503052,293.551086 
	C1121.165527,279.288025 1128.728394,265.779388 1135.948120,251.395691 
M411.214203,334.711517 
	C410.852814,335.269348 410.516785,335.845673 410.125824,336.381958 
	C407.841156,339.515839 404.735504,341.107544 401.019653,339.825378 
	C397.005371,338.440216 396.261078,334.801117 396.997833,331.163818 
	C398.212402,325.167847 399.457977,319.121704 401.418518,313.343719 
	C407.591492,295.151367 414.144745,277.088440 420.466034,258.945892 
	C423.598175,249.956497 425.918213,240.727493 424.847961,231.150482 
	C424.449860,227.588364 423.218292,223.617691 421.061462,220.850906 
	C415.332214,213.501480 406.958405,214.170212 399.041199,215.638458 
	C381.470734,218.896927 371.271912,231.756744 362.405060,245.631470 
	C356.559753,254.778091 351.846588,264.648285 346.626465,274.194458 
	C346.889954,268.689545 348.123535,263.379547 349.433472,258.088409 
	C351.982666,247.791748 354.985992,237.579422 354.030365,226.753113 
	C353.637604,222.303513 352.164032,218.828735 347.764893,216.873367 
	C339.080505,213.013275 330.719849,215.038223 323.881500,220.126083 
	C312.603119,228.517349 307.147003,240.906204 304.438110,254.484131 
	C304.259705,255.378464 305.084229,256.472839 305.442261,257.474182 
	C306.402008,256.987030 307.857880,256.741486 308.233551,255.969955 
	C309.678009,253.003296 310.577057,249.769135 312.044189,246.815872 
	C315.403870,240.052856 318.670044,233.208542 322.593719,226.775101 
	C324.584320,223.511139 328.427856,222.717499 331.860718,224.976349 
	C335.207794,227.178741 336.174866,230.505173 335.044983,234.497223 
	C333.244781,240.857376 331.753876,247.305756 329.919983,253.655533 
	C324.402527,272.759827 318.704620,291.812256 313.234894,310.930023 
	C310.408661,320.808319 307.866425,330.769318 305.306915,340.721497 
	C304.622101,343.384277 304.839752,345.589111 308.547516,345.990143 
	C324.348236,347.699249 326.881500,346.099701 331.476379,330.922150 
	C331.668304,330.288147 331.816467,329.640808 331.980530,328.998505 
	C340.355682,296.213196 353.658081,265.686127 374.266571,238.680908 
	C379.457336,231.878967 385.414734,225.522552 394.550446,223.511200 
	C398.708496,222.595764 401.210266,224.650101 402.575195,227.667252 
	C403.747437,230.258484 404.493713,233.733078 403.780182,236.371262 
	C400.019623,250.274887 395.912170,264.092407 391.589935,277.834381 
	C386.331726,294.552124 380.009430,310.973114 375.566833,327.895111 
	C372.911041,338.011200 376.432953,348.338684 388.315918,349.629913 
	C392.896423,350.127686 398.121704,349.388062 402.350647,347.574219 
	C417.047424,341.270599 422.108185,327.485168 426.860931,313.753082 
	C427.421570,312.133118 426.709290,310.072601 426.587067,308.216339 
	C426.047241,308.042572 425.507416,307.868805 424.967590,307.695038 
	C423.965240,309.364868 422.839294,310.973846 421.982208,312.715210 
	C418.483368,319.823944 415.066711,326.973175 411.214203,334.711517 
M142.500000,169.985397 
	C133.461502,169.985397 124.423012,169.985397 115.384521,169.985397 
	C115.238922,170.595779 115.093330,171.206177 114.947731,171.816559 
	C116.109306,172.522278 117.200958,173.667145 118.443390,173.864944 
	C129.358765,175.602829 133.278458,180.446503 130.779312,190.888184 
	C126.504333,208.749557 121.834351,226.521255 117.042168,244.252762 
	C111.200378,265.867950 105.001587,287.386444 99.089302,308.982910 
	C97.473244,314.886139 96.663025,321.019440 94.894524,326.869263 
	C92.144440,335.965942 85.438141,340.385681 76.201584,341.576721 
	C74.757111,341.763000 73.481461,343.258484 72.127762,344.148560 
	C73.629784,344.749847 75.128670,345.865326 76.634293,345.874512 
	C95.962257,345.992432 115.291206,345.962097 134.619843,345.931519 
	C135.992813,345.929352 137.365311,345.631104 138.738037,345.470551 
	C138.864456,344.944946 138.990875,344.419342 139.117294,343.893738 
	C137.742691,343.267029 136.420288,342.278778 134.985123,342.071594 
	C124.857948,340.609833 117.474098,334.923492 120.791214,322.513458 
	C125.794838,303.793823 130.288940,284.938202 135.243896,266.204987 
	C135.597763,264.867126 137.892014,263.251038 139.380524,263.147186 
	C144.686630,262.777008 150.062180,262.658936 155.360077,263.084717 
	C163.786667,263.761841 172.139999,269.184235 171.124344,279.821503 
	C170.693008,284.339142 171.052353,288.932251 171.052353,294.693787 
	C172.884659,293.619324 175.439316,293.011444 175.777267,291.790192 
	C181.255554,271.993927 186.480591,252.127136 191.659515,232.249359 
	C192.067932,230.681732 191.713303,228.915314 191.713303,227.241302 
	C191.277863,227.071243 190.842422,226.901199 190.406998,226.731140 
	C189.304581,227.803619 187.919540,228.706802 187.155701,229.982071 
	C185.283386,233.107986 183.514236,236.323547 182.027771,239.648010 
	C174.988541,255.391281 154.634323,263.479767 138.144058,256.857208 
	C140.073013,249.870880 142.056152,242.874817 143.933868,235.850571 
	C148.469864,218.882233 152.898087,201.884872 157.489532,184.931656 
	C159.577408,177.222458 165.465485,173.948242 172.649902,174.000046 
	C180.647110,174.057724 188.670700,173.621887 196.634125,174.143661 
	C202.453247,174.524918 208.642487,174.067963 213.740402,178.140350 
	C222.130417,184.842575 222.239395,194.097610 221.638535,203.511490 
	C221.386597,207.458740 220.329895,211.356796 220.114853,215.303131 
	C220.029099,216.876877 221.229004,218.520676 221.843643,220.132584 
	C222.258820,219.942383 222.674011,219.752182 223.089188,219.561981 
	C228.299377,203.265244 233.509583,186.968521 238.939224,169.985367 
	C206.723022,169.985367 175.111511,169.985367 142.500000,169.985397 
M554.505249,324.930176 
	C555.879639,320.844971 557.398743,316.798981 558.523926,312.646271 
	C558.795959,311.642273 557.766052,310.285553 557.334839,309.091034 
	C556.539490,309.910980 555.504028,310.602661 554.986816,311.571136 
	C550.784790,319.439301 546.571716,327.305328 542.588623,335.285095 
	C540.420532,339.628571 536.871826,341.061859 532.745056,339.637817 
	C528.159424,338.055328 528.261719,333.559052 529.138428,329.845215 
	C531.763550,318.725128 534.602722,307.643311 537.777527,296.667786 
	C544.311218,274.080261 551.160400,251.584167 557.767639,229.017593 
	C558.848816,225.324615 559.357056,221.463867 560.266907,217.011124 
	C555.545837,217.011124 551.736389,217.212570 547.956726,216.962387 
	C542.711853,216.615204 538.001831,216.667572 536.735474,223.358261 
	C536.496216,224.622711 535.097961,225.667847 534.318115,226.703186 
	C533.788330,226.532410 533.585693,226.530212 533.497253,226.428604 
	C532.734985,225.553497 531.887451,224.728897 531.261963,223.762085 
	C525.828247,215.363739 517.555054,214.972885 509.143982,216.612534 
	C495.680664,219.237076 485.402161,227.536545 476.525085,237.384781 
	C466.246948,248.787338 457.963928,261.639374 452.150055,275.910095 
	C445.541260,292.131958 440.963531,308.661926 442.871948,326.605133 
	C445.072937,347.299011 459.109344,352.533661 475.706268,347.708954 
	C487.557800,344.263672 496.447479,336.202698 502.785034,325.450684 
	C506.136322,319.764984 509.818817,314.274567 513.351746,308.696014 
	C512.848083,313.707092 510.997559,318.268829 510.010864,323.010345 
	C508.521118,330.168945 507.540100,337.265167 512.395508,344.016022 
	C517.197937,350.693176 531.200745,350.047089 538.679810,345.689026 
	C546.702515,341.014221 550.598511,333.527954 554.505249,324.930176 
M823.965698,200.468185 
	C823.289185,192.380905 822.825256,184.266983 821.816467,176.221359 
	C821.480713,173.543716 819.747375,171.041290 818.652893,168.458771 
	C816.276489,170.057449 813.883362,171.632446 811.540771,173.279175 
	C811.171570,173.538696 811.062439,174.144897 810.778992,174.553223 
	C804.635681,183.402344 798.516846,192.268677 792.328857,201.086517 
	C777.372131,222.399826 762.385864,243.692413 747.405151,264.988892 
	C732.619202,286.008453 717.883362,307.063690 702.999207,328.013428 
	C698.666443,334.111908 692.722778,338.281952 685.729370,341.035492 
	C684.332336,341.585510 683.308044,343.082245 682.111877,344.142487 
	C683.619141,344.746368 685.120972,345.858215 686.634521,345.874390 
	C699.629883,346.013184 712.627441,345.967987 725.624146,345.933044 
	C727.001038,345.929321 728.377136,345.638763 729.753540,345.481262 
	C729.910217,344.909943 730.066833,344.338623 730.223511,343.767303 
	C728.375916,342.896729 726.610413,341.688354 724.666077,341.215820 
	C717.437561,339.459045 712.866150,332.245361 715.462097,325.343536 
	C717.549744,319.792938 720.006897,314.226074 723.263916,309.304291 
	C729.208862,300.320892 735.742188,291.713013 742.337219,283.186005 
	C743.603027,281.549408 746.268127,280.126068 748.309814,280.095703 
	C764.968750,279.848083 781.634827,280.089600 798.294128,279.855469 
	C802.289490,279.799347 803.826538,281.506714 803.936157,284.946808 
	C804.383972,298.991791 804.895630,313.039429 804.995422,327.088898 
	C805.050659,334.859497 800.445618,339.676636 792.764099,341.044586 
	C790.807678,341.393005 788.832642,341.713379 786.937378,342.283386 
	C786.321106,342.468689 785.536377,343.415070 785.548218,343.998596 
	C785.560303,344.589630 786.365845,345.480865 786.996399,345.672455 
	C788.076660,346.000610 789.291321,345.947510 790.449646,345.948395 
	C807.112244,345.961273 823.774841,345.966522 840.437378,345.937561 
	C841.838928,345.935120 843.240112,345.674683 844.641418,345.534119 
	C844.817017,345.115936 844.992615,344.697754 845.168213,344.279572 
	C843.765747,343.204041 842.493103,341.862823 840.936707,341.102509 
	C836.144653,338.761536 832.684326,335.330811 832.142456,329.894684 
	C830.960571,318.038818 829.820801,306.170349 829.076721,294.281158 
	C827.864624,274.913177 827.002075,255.523453 825.954407,236.144943 
	C825.328064,224.558578 824.630249,212.976089 823.965698,200.468185 
M607.806702,345.476898 
	C610.579224,342.891388 614.214905,340.782623 615.957153,337.628052 
	C620.589905,329.240173 624.551086,320.464172 628.370728,311.665161 
	C628.866760,310.522430 626.959290,308.336395 626.165161,306.633606 
	C625.527344,306.746460 624.889526,306.859314 624.251709,306.972168 
	C622.186523,311.992462 619.928772,316.943909 618.103027,322.049805 
	C615.596741,329.058899 612.566772,335.646149 605.786194,339.528168 
	C601.309631,342.091095 597.253052,339.990448 597.043396,334.816284 
	C596.890869,331.052277 597.024902,327.067230 598.096741,323.501007 
	C601.820496,311.111938 606.330933,298.956390 609.951111,286.539703 
	C616.679688,263.462311 622.922913,240.243866 629.498596,217.121216 
	C635.384827,196.422867 641.486938,175.785934 647.400024,155.095139 
	C648.724731,150.459854 647.410828,149.148056 642.748779,150.306854 
	C637.115479,151.707077 631.612244,153.728119 625.923157,154.779373 
	C619.598755,155.948044 613.093262,156.118622 606.745300,157.190018 
	C605.068298,157.473053 603.681274,159.474075 602.161072,160.686264 
	C603.457825,161.427582 604.674927,162.447678 606.069580,162.846329 
	C608.284058,163.479218 610.695251,163.449783 612.883667,164.141922 
	C617.447876,165.585495 620.354675,170.372147 619.282776,174.529648 
	C618.082458,179.185684 616.748108,183.809845 615.363953,188.415375 
	C609.638855,207.464249 603.780762,226.473633 598.147278,245.549423 
	C592.272766,265.441162 586.309753,285.315063 580.963196,305.350922 
	C578.330200,315.218079 576.485718,325.371185 575.267822,335.512970 
	C574.495850,341.940582 580.457275,348.550781 586.270447,348.898224 
	C593.388550,349.323669 600.622131,349.766693 607.806702,345.476898 
M1370.265259,216.790024 
	C1369.124878,217.475586 1367.877563,218.031052 1366.861450,218.867691 
	C1359.869263,224.624847 1352.079224,225.230881 1343.959229,222.085068 
	C1340.620117,220.791443 1337.610474,218.624496 1334.496094,216.778732 
	C1326.925659,212.291977 1318.546997,214.241135 1314.210205,218.978638 
	C1305.905273,228.050949 1300.771362,239.117859 1300.136230,251.716583 
	C1300.051636,253.393494 1301.704834,255.158020 1302.553345,256.881927 
	C1303.683960,255.316071 1305.192749,253.897919 1305.873169,252.156174 
	C1307.773315,247.290863 1309.141479,242.215942 1311.080322,237.368027 
	C1312.770752,233.141663 1316.572754,232.990417 1319.881226,234.628311 
	C1331.130737,240.197540 1341.638062,238.507431 1352.000000,232.372147 
	C1354.537598,230.869629 1357.368530,229.862396 1360.064453,228.627426 
	C1360.450439,229.207764 1360.836426,229.788101 1361.222290,230.368423 
	C1356.937256,234.393753 1352.736572,238.513824 1348.349976,242.425323 
	C1337.561646,252.045410 1330.128174,264.109833 1323.038574,276.479797 
	C1315.442505,289.733459 1309.454224,303.649719 1308.341675,318.953613 
	C1307.932861,324.576752 1309.173584,331.186676 1311.964111,336.016388 
	C1321.091309,351.813446 1342.956665,352.846558 1357.861572,346.212952 
	C1369.000000,341.255707 1378.578979,333.875366 1386.305664,324.179626 
	C1395.991333,312.025452 1404.424194,299.094330 1408.288574,283.970612 
	C1411.555298,271.186066 1413.875488,258.104553 1415.701050,245.026962 
	C1416.846924,236.817856 1416.030640,228.341309 1412.203247,220.694809 
	C1408.740601,213.776794 1396.634644,211.989761 1392.790039,218.133804 
	C1390.721680,221.439224 1390.212280,226.315048 1390.498169,230.376846 
	C1391.125122,239.287247 1397.802002,244.156479 1404.774658,248.209167 
	C1408.538818,250.397049 1410.745361,252.874268 1409.925659,257.339783 
	C1409.418213,260.103577 1408.929688,262.876465 1408.267944,265.605347 
	C1403.798950,284.036377 1396.254150,301.185669 1385.479492,316.727295 
	C1377.128784,328.772461 1365.967529,337.499512 1351.390625,341.111603 
	C1344.685669,342.773071 1338.938232,339.572479 1336.129272,333.287964 
	C1332.709839,325.638153 1333.340942,317.667389 1334.285278,309.844391 
	C1336.184570,294.111328 1341.191162,279.184509 1347.605469,264.743500 
	C1354.220703,249.849762 1361.543823,235.341187 1371.703369,222.457504 
	C1373.138306,220.637802 1374.678101,218.873703 1375.869263,216.902496 
	C1376.339722,216.123917 1375.989746,214.849548 1376.013184,213.800903 
	C1375.098267,213.847107 1374.040894,213.621063 1373.303589,214.006790 
	C1372.330444,214.516006 1371.608276,215.505051 1370.265259,216.790024 
M1446.002930,257.475525 
	C1432.243652,276.605682 1424.860352,297.728577 1427.167236,321.465454 
	C1428.158325,331.664795 1432.112915,340.502411 1442.092651,345.777771 
	C1448.701782,349.271393 1455.530273,349.129700 1462.476440,348.977753 
	C1484.183838,348.503021 1498.329834,335.999756 1510.329224,319.289337 
	C1505.647949,317.704376 1505.495361,317.723511 1503.166382,320.874817 
	C1496.017578,330.547638 1486.694824,337.123627 1475.139893,340.456390 
	C1466.636841,342.908875 1458.637207,339.398041 1454.750977,331.622009 
	C1449.832764,321.781342 1450.390625,311.323456 1451.541504,300.877014 
	C1452.292358,294.062622 1456.357300,290.296661 1462.922729,287.954071 
	C1480.344360,281.737762 1496.929443,273.577240 1511.985474,262.797638 
	C1522.181152,255.497803 1529.587524,246.064590 1528.968262,232.402969 
	C1528.522095,222.561646 1524.513184,217.294022 1515.546265,216.202667 
	C1502.945190,214.669022 1490.958008,217.142639 1480.076050,223.702515 
	C1466.239136,232.043655 1455.088013,243.235687 1446.002930,257.475525 
M921.885254,254.409836 
	C920.025024,258.154938 918.164795,261.900024 916.304626,265.645111 
	C915.849915,265.468842 915.395203,265.292572 914.940491,265.116302 
	C915.280823,263.624969 915.591370,262.126129 915.966370,260.643555 
	C918.602112,250.221878 922.617981,240.083817 921.984863,229.012466 
	C921.713989,224.275208 920.585144,219.700470 916.444214,217.381653 
	C913.806152,215.904404 910.097534,216.288666 906.857544,215.946106 
	C898.062744,215.016296 890.357727,218.332336 885.642883,225.139069 
	C880.136658,233.088242 876.365662,242.265808 872.153015,251.059509 
	C871.421082,252.587402 872.230835,254.853836 872.328552,256.779144 
	C874.028259,255.495102 875.911560,254.385193 877.357239,252.860321 
	C878.194824,251.976837 878.244690,250.387772 878.792419,249.181351 
	C881.453186,243.320923 883.810303,237.280594 886.999512,231.719513 
	C888.651672,228.838547 891.566101,226.453552 894.398132,224.583389 
	C895.620483,223.776230 899.114258,224.174500 899.764587,225.187866 
	C901.243591,227.492096 902.767456,230.784500 902.211182,233.200470 
	C899.913208,243.180450 896.863770,252.988312 894.058350,262.850281 
	C891.154907,273.057190 888.153870,283.236633 885.303711,293.458282 
	C880.899658,309.252930 876.551941,325.063568 872.266602,340.890778 
	C871.407837,344.062500 872.402405,346.134003 876.195801,345.971710 
	C878.690979,345.864990 881.194519,345.953766 883.694275,345.953156 
	C893.850830,345.950623 893.770264,345.923248 897.117371,335.977722 
	C904.309814,314.606384 911.235229,293.135132 918.956116,271.954926 
	C924.947998,255.517654 933.005127,240.058823 944.982727,226.974579 
	C948.303711,223.346756 952.194580,221.346207 958.166260,222.307770 
	C956.522034,224.402664 955.273132,226.047501 953.968323,227.646759 
	C949.144531,233.559189 948.778137,238.542908 952.692505,243.389938 
	C955.580200,246.965607 959.511658,247.203171 963.562134,246.944916 
	C972.969849,246.345093 977.820312,241.668121 978.848938,234.184570 
	C980.408936,222.835724 976.928345,217.452286 966.770508,215.543808 
	C955.061279,213.343857 945.119568,217.534668 938.307129,226.960541 
	C932.228455,235.371277 927.509827,244.765015 921.885254,254.409836 
M1051.289673,219.227768 
	C1056.769165,220.188110 1061.793213,221.910583 1065.114990,227.414261 
	C1061.070312,229.744934 1057.095215,231.701492 1053.490845,234.194061 
	C1048.616211,237.565109 1046.583984,242.741226 1048.475464,248.163574 
	C1049.431152,250.903229 1052.834106,254.119522 1055.589600,254.626907 
	C1061.516113,255.718201 1068.220581,256.368500 1072.571533,250.518845 
	C1079.217041,241.584061 1077.987183,230.946396 1070.357544,222.825272 
	C1061.755249,213.668915 1050.541016,214.643082 1040.415283,216.465149 
	C1014.400452,221.146393 997.353516,237.949326 985.941528,261.029663 
	C978.620239,275.836670 973.496948,291.345917 972.304260,307.915802 
	C971.694153,316.391846 972.251099,324.925598 976.257568,332.608368 
	C985.191406,349.739594 1002.622803,351.933228 1018.372375,348.445526 
	C1033.845215,345.019104 1044.756836,334.327454 1054.366943,322.287323 
	C1056.557495,319.542847 1056.229858,318.020996 1052.944458,317.435089 
	C1044.519165,325.870209 1037.134888,334.865265 1025.762207,339.284271 
	C1015.069885,343.438934 1002.410217,339.641754 998.886963,328.243011 
	C995.144592,316.135315 996.312195,304.066895 998.261780,292.084503 
	C1000.896851,275.888580 1007.326660,260.855713 1015.714600,246.897003 
	C1023.741272,233.539520 1033.141235,221.165909 1051.289673,219.227768 
M228.043564,330.720795 
	C226.704269,346.067566 238.677963,351.021484 249.933380,349.400940 
	C259.059692,348.086914 265.086700,343.367188 270.114807,336.366547 
	C275.885620,328.331787 278.950378,319.271851 280.406830,309.185486 
	C278.490021,309.618835 276.814423,310.430115 276.106079,311.757538 
	C274.789764,314.224243 274.372925,317.185059 272.984741,319.596588 
	C269.460480,325.718964 265.890228,331.855957 261.769989,337.577789 
	C259.552368,340.657440 255.457977,341.283356 252.274719,339.312286 
	C249.355209,337.504547 248.417603,334.362305 249.813812,330.570374 
	C257.033997,310.961334 264.163666,291.316956 271.094147,271.603790 
	C275.921814,257.872070 281.862946,244.375992 281.038361,229.272385 
	C280.710236,223.262589 277.735504,218.760864 272.167664,216.674133 
	C263.780945,213.530899 247.236862,217.679657 242.708801,225.333862 
	C237.251068,234.559525 233.059753,244.547089 228.603302,254.333740 
	C228.131180,255.370514 229.556412,257.271271 230.101425,258.771179 
	C231.349762,257.969482 233.146896,257.452271 233.738937,256.310303 
	C235.246750,253.401978 236.181732,250.200714 237.407669,247.141434 
	C240.585434,239.211472 242.217041,230.179977 250.839462,225.871353 
	C252.805054,224.889160 256.533936,224.711624 257.886475,225.918045 
	C259.567108,227.417084 260.753326,231.037415 260.177124,233.219940 
	C258.032593,241.343399 255.249802,249.314911 252.395782,257.231415 
	C243.737076,281.249023 233.024979,304.574188 228.043564,330.720795 
M1274.168945,316.655426 
	C1274.492920,315.712097 1275.073486,314.771362 1275.083130,313.824829 
	C1275.099121,312.259125 1274.747070,310.689667 1274.550171,309.121826 
	C1273.316772,310.157867 1271.600830,310.953125 1270.941040,312.275391 
	C1269.017456,316.130249 1267.791626,320.341339 1265.784180,324.144562 
	C1262.784790,329.826660 1260.229004,335.922119 1254.194092,339.375183 
	C1250.769653,341.334534 1246.393066,340.132446 1245.407837,336.304108 
	C1244.819946,334.019714 1244.882568,331.205078 1245.665771,328.986572 
	C1253.833862,305.852875 1262.627930,282.930634 1270.317139,259.642242 
	C1273.393921,250.323730 1274.803345,240.306244 1275.771851,230.488571 
	C1276.505371,223.052750 1271.941284,217.124847 1265.847168,216.285934 
	C1254.847778,214.771759 1243.850586,215.789230 1237.141479,225.796921 
	C1231.581177,234.090775 1227.803833,243.590256 1223.398438,252.634460 
	C1222.859985,253.739761 1223.324951,255.333801 1223.324951,256.701355 
	C1223.788574,256.917450 1224.252197,257.133545 1224.715820,257.349670 
	C1225.821411,255.982437 1227.230103,254.762589 1227.979248,253.221939 
	C1230.871826,247.272705 1233.389160,241.138031 1236.366577,235.233948 
	C1238.710938,230.585464 1242.007812,226.634521 1247.148193,224.803711 
	C1251.409058,223.286194 1255.215820,225.609924 1254.899048,230.054626 
	C1254.598389,234.275467 1253.556274,238.550751 1252.158936,242.564957 
	C1248.720215,252.442673 1244.684204,262.112976 1241.267456,271.997742 
	C1236.658691,285.331848 1232.389648,298.783722 1228.005371,312.195007 
	C1225.438354,320.047150 1222.065552,327.697449 1222.955444,336.327393 
	C1223.456543,341.187927 1228.274170,348.005829 1233.026001,348.686920 
	C1242.872803,350.098267 1251.976685,348.866791 1259.974243,341.727722 
	C1267.467773,335.038574 1270.709106,326.319244 1274.168945,316.655426 
M298.806732,165.160233 
	C296.559418,158.572861 292.154846,154.443268 285.061157,154.144485 
	C274.404449,153.695648 266.163605,162.164505 266.007477,173.330627 
	C265.907440,180.485565 269.526215,184.808548 276.630188,185.998886 
	C288.851227,188.046646 299.082031,180.104080 298.806732,165.160233 
M793.000000,463.500000 
	C793.000305,472.326874 793.093140,481.155212 792.949585,489.979767 
	C792.900818,492.977783 793.849670,494.095245 796.941895,494.051636 
	C807.265564,493.906036 817.594971,494.103394 827.915466,493.870575 
	C829.287720,493.839600 831.510803,492.298340 831.801208,491.087524 
	C832.589233,487.801544 829.886658,487.993408 827.676331,487.995422 
	C818.575134,488.003632 809.473877,487.998871 800.000061,487.998871 
	C800.000061,482.767365 800.194885,477.622620 799.938110,472.500488 
	C799.734619,468.441315 801.072937,466.733765 805.323669,466.933899 
	C811.139771,467.207794 816.983093,467.125732 822.804382,466.912506 
	C824.286621,466.858215 825.729736,465.733002 827.190796,465.099854 
	C827.006531,464.495392 826.822266,463.890930 826.638062,463.286469 
	C825.068176,463.189789 823.498718,463.018890 821.928345,463.009674 
	C816.099487,462.975555 810.268372,462.905060 804.441956,463.029388 
	C801.257324,463.097321 799.860352,461.849152 799.971985,458.617981 
	C800.104187,454.792053 800.185059,450.946564 799.946472,447.130920 
	C799.733887,443.729736 801.176208,442.864410 804.331055,442.944489 
	C811.321289,443.121826 818.325439,443.147308 825.309265,442.868805 
	C826.785889,442.809937 828.199951,441.184631 829.642883,440.281067 
	C828.234924,439.520447 826.839905,438.130432 825.416870,438.101013 
	C815.927856,437.904846 806.431274,438.096710 796.940735,437.943298 
	C793.844360,437.893311 792.880554,439.019440 792.950806,442.016235 
	C793.110718,448.840790 793.000488,455.671692 793.000000,463.500000 
M1261.439331,177.507721 
	C1264.332886,183.843521 1269.228027,186.563461 1276.177734,185.997696 
	C1293.262451,184.606857 1295.734985,171.648132 1291.266846,160.746628 
	C1289.419678,156.239853 1285.499390,154.191208 1280.547363,154.061371 
	C1269.148560,153.762589 1259.416138,162.842072 1261.439331,177.507721 
M603.166748,480.888336 
	C605.418823,477.084869 608.563354,475.441254 613.133301,475.915802 
	C617.088440,476.326508 621.154907,475.688934 625.103394,476.129944 
	C627.125122,476.355743 629.890198,477.433777 630.754333,478.993622 
	C632.708679,482.521454 633.286804,486.812195 635.244263,490.337555 
	C636.185181,492.032013 638.984192,492.694794 640.941711,493.824799 
	C641.507629,492.486053 642.851562,490.871979 642.493469,489.860260 
	C641.424316,486.839264 639.450439,484.149567 638.253357,481.160828 
	C633.051025,468.171631 628.071228,455.092834 622.801575,442.131592 
	C622.137573,440.498352 620.101440,438.148407 618.936646,438.276276 
	C616.922913,438.497375 614.210388,439.957703 613.347290,441.678650 
	C610.351318,447.652283 608.099121,453.993988 605.418701,460.132263 
	C603.409546,464.733124 600.929993,469.140259 599.112122,473.809692 
	C597.218262,478.674164 595.835083,483.740112 594.299927,488.739838 
	C593.902649,490.033966 593.501648,491.446075 593.672302,492.728119 
	C593.728882,493.152863 595.843933,493.878021 596.543640,493.525238 
	C598.085876,492.747681 599.971497,491.630463 600.551941,490.184296 
	C601.660278,487.422607 601.954895,484.334351 603.166748,480.888336 
M921.242737,456.705505 
	C919.226318,459.538177 917.210510,462.371246 915.193481,465.203461 
	C911.476013,470.423401 912.765503,475.550842 914.897156,481.036652 
	C917.203674,486.972748 921.314331,490.497009 926.750549,493.455597 
	C932.534912,496.603729 945.899780,493.889099 948.861511,488.029541 
	C949.455261,486.854889 948.893127,485.095978 948.863953,483.606506 
	C947.533447,484.006470 946.173767,484.329315 944.877808,484.820435 
	C940.554077,486.458801 936.144592,489.759979 931.967773,489.476776 
	C924.776184,488.989075 920.529541,483.006409 919.537415,474.331909 
	C930.596008,474.331909 941.569153,474.331909 952.542297,474.331909 
	C952.989441,473.786865 953.436584,473.241821 953.883789,472.696777 
	C952.521606,469.056183 951.505066,465.236969 949.733154,461.808136 
	C944.177917,451.058105 930.351318,448.388275 921.242737,456.705505 
M446.273773,492.543152 
	C450.073700,493.327240 454.139648,495.398499 457.628510,494.677460 
	C474.715729,491.146118 481.767487,473.792175 470.913177,459.218994 
	C466.116852,452.779388 458.983215,447.855286 446.035889,454.312836 
	C442.840302,455.906616 440.200409,459.166382 438.074158,462.199463 
	C435.874176,465.337799 433.228485,468.796417 435.891724,473.237488 
	C436.459320,474.184021 435.658691,475.858521 435.844299,477.146362 
	C436.201233,479.623199 436.121796,482.575409 437.475739,484.402283 
	C439.670593,487.363831 442.875000,489.577179 446.273773,492.543152 
M1205.811523,490.583252 
	C1207.337280,495.945251 1202.020996,501.719147 1195.941406,501.524200 
	C1194.280029,501.470917 1192.595215,502.145142 1190.921143,502.485474 
	C1193.901245,505.595367 1195.361694,508.891785 1200.517578,506.532440 
	C1205.093506,504.438507 1208.065063,502.813110 1209.726074,497.713165 
	C1211.685303,491.697235 1215.451172,486.295746 1218.001709,480.439697 
	C1221.145630,473.221375 1223.901489,465.830688 1226.675415,458.458252 
	C1227.111450,457.299347 1226.757324,455.843079 1226.768433,454.524353 
	C1225.210449,454.968719 1223.291260,455.003510 1222.194214,455.970703 
	C1221.057251,456.973053 1220.690674,458.867737 1220.032959,460.391876 
	C1216.690063,468.139374 1213.361938,475.893280 1209.645752,484.535492 
	C1208.541382,482.493744 1207.655518,481.178955 1207.081055,479.739899 
	C1204.102051,472.276489 1200.824219,464.900757 1198.409668,457.254730 
	C1196.844604,452.298584 1194.194702,454.132202 1190.685303,454.740326 
	C1195.737793,466.769592 1200.600952,478.348358 1205.811523,490.583252 
M1039.003418,489.120300 
	C1039.554688,481.474762 1037.703857,473.693878 1040.898682,466.174194 
	C1042.520508,462.356659 1044.277222,458.862305 1048.583740,458.154358 
	C1053.258423,457.385956 1058.198364,457.355347 1060.609009,462.603882 
	C1061.858154,465.323334 1062.725708,468.415192 1062.900269,471.389587 
	C1063.250488,477.357330 1062.796143,483.372559 1063.154907,489.339233 
	C1063.245117,490.839020 1065.156250,492.229340 1066.230469,493.669983 
	C1066.869141,492.086884 1068.011353,490.519440 1068.061157,488.918030 
	C1068.303467,481.121063 1068.255005,473.315033 1068.305786,465.512207 
	C1068.312012,464.560181 1068.512329,463.545258 1068.257080,462.665558 
	C1065.347534,452.637482 1053.703613,447.766663 1044.408691,455.135895 
	C1041.652222,457.321320 1039.403687,458.537476 1037.419556,454.330353 
	C1037.099487,453.651794 1035.675049,453.494141 1034.465698,452.966949 
	C1034.465698,466.962952 1034.465698,480.284210 1034.465698,493.605499 
	C1034.947144,493.855408 1035.428711,494.105316 1035.910156,494.355194 
	C1036.939819,492.910919 1037.969482,491.466644 1039.003418,489.120300 
M403.958679,467.495178 
	C402.660004,466.662933 401.391296,465.172913 400.057465,465.112183 
	C394.241791,464.847260 388.406982,465.025818 382.579498,464.989075 
	C377.442505,464.956665 375.868469,462.966125 376.458923,457.958099 
	C376.816284,454.927063 377.467072,451.606964 376.627747,448.826782 
	C374.944946,443.252533 377.777740,442.912506 381.905853,442.968964 
	C389.230743,443.069183 396.560455,443.084778 403.881561,442.888641 
	C404.922028,442.860748 405.925385,441.447144 406.945923,440.674896 
	C406.045197,439.787415 405.159058,438.146271 404.241547,438.128571 
	C394.587860,437.942230 384.926880,437.923401 375.275879,438.170166 
	C374.389618,438.192841 373.131378,440.265747 372.812744,441.573456 
	C372.437805,443.112305 372.983063,444.854950 372.985718,446.509430 
	C373.008453,460.662445 372.978424,474.815582 373.025879,488.968506 
	C373.031342,490.597504 373.413818,492.225220 373.621490,493.853546 
	C374.183563,493.865082 374.745636,493.876648 375.307739,493.888214 
	C375.539398,492.456390 375.945801,491.027618 375.970764,489.592194 
	C376.054779,484.764954 376.187775,479.926086 375.945679,475.109558 
	C375.745605,471.129547 377.358765,469.805267 381.216370,469.942139 
	C387.369354,470.160522 393.538574,470.098969 399.694427,469.925354 
	C401.107300,469.885498 402.493805,468.909821 403.958679,467.495178 
M1165.646240,454.469238 
	C1163.007812,454.312408 1160.371094,454.061462 1157.730713,454.017517 
	C1151.421509,453.912415 1150.102905,452.653900 1149.994507,446.485260 
	C1149.964111,444.750214 1149.807251,443.017365 1149.693970,441.029816 
	C1147.749512,441.556305 1146.458496,441.905914 1144.723145,442.375763 
	C1144.723145,445.900574 1144.723145,449.661072 1144.723145,453.734528 
	C1142.719604,453.846222 1141.048340,453.732941 1139.494019,454.106293 
	C1138.611328,454.318298 1137.920044,455.327087 1137.142456,455.977051 
	C1137.904663,456.641479 1138.577271,457.683411 1139.447998,457.889832 
	C1141.130615,458.288635 1142.924683,458.216095 1145.000000,458.361969 
	C1145.000000,466.239166 1145.328125,473.564941 1144.875366,480.842163 
	C1144.609131,485.121460 1146.312622,488.205322 1148.780029,491.134186 
	C1152.145264,495.128601 1160.294189,496.433014 1163.794434,493.370941 
	C1164.897705,492.405731 1165.032349,490.333069 1165.610352,488.767303 
	C1164.107788,488.818817 1162.593994,488.781464 1161.108276,488.967499 
	C1160.548706,489.037537 1160.053833,489.625031 1159.619385,489.916321 
	C1145.090332,482.837708 1151.583130,469.765961 1149.634033,457.996796 
	C1154.790161,457.996796 1159.222900,458.015594 1163.655273,457.988098 
	C1165.583618,457.976135 1167.705322,458.040436 1165.646240,454.469238 
M873.200684,458.452789 
	C876.008789,458.302124 878.848755,458.354004 881.612183,457.919220 
	C883.094604,457.685974 884.445496,456.615936 885.855713,455.923523 
	C884.395325,455.281830 882.953003,454.133209 881.471680,454.080658 
	C871.817383,453.737976 871.814148,453.815765 870.999512,444.341949 
	C870.971008,444.010956 871.111694,443.543518 870.939941,443.367615 
	C870.142883,442.551086 869.237671,441.190796 868.420593,441.224487 
	C867.592590,441.258606 866.275330,442.615997 866.135254,443.539703 
	C865.789795,445.818756 866.247681,448.222351 865.878479,450.493958 
	C865.681702,451.704315 864.633240,452.988373 863.618164,453.800507 
	C862.308228,454.848572 860.647095,455.457825 859.137207,456.256012 
	C860.819885,456.867249 862.504639,457.472839 864.183838,458.093628 
	C864.633606,458.259888 865.066223,458.472534 865.418823,458.625732 
	C865.606323,459.051849 865.848083,459.347290 865.850769,459.644897 
	C865.915344,466.795654 865.632263,473.966766 866.078247,481.092529 
	C866.660889,490.401398 874.124023,497.851654 883.892029,493.713043 
	C885.244202,493.140167 885.834045,490.767944 886.776855,489.228729 
	C885.364319,489.144501 883.819458,488.650970 882.565247,489.056427 
	C879.401978,490.078949 873.457642,487.544250 873.066711,484.303558 
	C872.165771,476.835327 871.613281,469.322174 871.085449,461.815613 
	C871.018860,460.868958 871.948364,459.852325 873.200684,458.452789 
M506.000793,488.346893 
	C506.092133,490.106781 506.183472,491.866699 506.272278,493.578125 
	C508.753387,493.578125 510.646301,493.578125 513.002197,493.578125 
	C513.002197,486.879791 513.088074,480.583862 512.980286,474.291260 
	C512.847290,466.528259 515.856873,461.049286 523.423828,458.177216 
	C524.881409,457.623932 526.909180,454.869476 526.554871,453.926605 
	C525.400330,450.853882 523.056702,451.954651 520.915466,453.405365 
	C518.026306,455.362885 515.039551,457.176331 512.838196,458.578156 
	C510.875671,456.749817 509.442017,455.414185 508.008392,454.078522 
	C507.339325,456.026672 506.136505,457.962769 506.092316,459.924957 
	C505.886322,469.074310 506.000488,478.230865 506.000793,488.346893 
M713.003235,440.894165 
	C713.001282,457.173218 712.933777,473.453033 713.112183,489.730103 
	C713.127747,491.148621 714.761292,492.549438 715.643250,493.958466 
	C716.760193,492.491211 718.743530,491.078918 718.840820,489.546936 
	C719.218872,483.590759 718.999512,477.596558 718.999695,471.616486 
	C719.000000,461.815826 719.078674,452.013733 718.904114,442.216156 
	C718.880005,440.859375 717.898987,438.992920 716.793335,438.370270 
	C716.075867,437.966248 714.327942,439.392181 713.003235,440.894165 
M677.000000,447.670074 
	C677.036926,445.840820 676.744507,443.926239 677.190979,442.203125 
	C677.800476,439.851349 677.856628,438.250275 674.905212,438.033691 
	C671.787659,437.804993 671.997986,439.961273 671.998901,442.013855 
	C672.005798,457.661102 671.929626,473.309235 672.114746,488.954285 
	C672.133362,490.527466 673.715332,492.082153 674.571716,493.645447 
	C675.381653,492.122742 676.873718,490.609344 676.894714,489.075897 
	C677.078674,475.595154 677.000549,462.110809 677.000000,447.670074 
M985.531250,493.335266 
	C986.354126,492.085327 987.790161,490.880798 987.886719,489.577087 
	C988.193542,485.434479 987.950012,481.254181 988.011902,477.089813 
	C988.157349,467.302643 992.853271,461.010284 1001.874634,458.112732 
	C1003.040405,457.738312 1004.577332,456.699402 1004.843567,455.681030 
	C1005.688293,452.449371 1003.236572,450.867920 999.368164,452.468414 
	C996.005432,453.859680 992.927002,455.938324 989.724548,457.712280 
	C988.977722,455.999054 988.356262,454.573456 987.595093,452.827240 
	C986.584412,453.542114 985.633911,453.895355 985.627380,454.265198 
	C985.402466,467.052216 985.266846,479.840759 985.531250,493.335266 
M1107.000000,472.500763 
	C1106.995605,467.170380 1107.156006,461.830811 1106.859375,456.516754 
	C1106.793335,455.333527 1105.118896,454.240112 1104.185059,453.105377 
	C1103.461670,453.991180 1102.119019,454.869629 1102.108521,455.763855 
	C1101.970093,467.422363 1101.941895,479.084534 1102.155640,490.740845 
	C1102.175049,491.805206 1104.050781,492.835510 1105.064453,493.881653 
	C1105.709839,492.751465 1106.873291,491.638947 1106.912476,490.488098 
	C1107.105591,484.831116 1107.000122,479.163940 1107.000000,472.500763 
M984.002441,464.658905 
	C984.002441,462.479340 984.002441,460.299774 984.002441,458.120209 
	C983.769592,458.129852 983.536804,458.139496 983.303955,458.149109 
	C983.303955,468.047180 983.303955,477.945221 983.303955,487.843292 
	C983.536804,487.844086 983.769592,487.844879 984.002441,487.845673 
	C984.002441,480.435669 984.002441,473.025696 984.002441,464.658905 
z"/>
<path fill="#D2D6D5" opacity="1.000000" stroke="none" 
	d="
M1135.702637,251.667648 
	C1128.728394,265.779388 1121.165527,279.288025 1115.503052,293.551086 
	C1109.719238,308.120026 1105.688843,323.395447 1101.113647,338.429413 
	C1098.845093,345.883484 1099.071289,345.952637 1091.558350,345.952881 
	C1088.059692,345.952972 1084.560913,345.928772 1081.062500,345.957153 
	C1077.760864,345.983887 1076.461670,344.576447 1077.424194,341.260925 
	C1081.536255,327.095184 1085.624634,312.922577 1089.695435,298.744934 
	C1092.577148,288.708527 1095.396851,278.654297 1098.280029,268.618317 
	C1103.078491,251.915146 1107.930664,235.227371 1112.713379,218.519684 
	C1116.545410,205.132812 1120.174805,191.686432 1124.148071,178.342026 
	C1126.799438,169.436935 1124.176270,164.566711 1114.977783,162.457382 
	C1113.853638,162.199600 1112.627075,162.291870 1111.559692,161.909729 
	C1110.357422,161.479263 1109.281616,160.695236 1108.150879,160.065002 
	C1109.384399,159.058884 1110.513794,157.382874 1111.870850,157.172272 
	C1115.943604,156.540222 1120.183960,156.887894 1124.215454,156.109909 
	C1132.014648,154.604797 1139.692749,152.479568 1147.473022,150.861954 
	C1149.581909,150.423492 1151.877075,150.882202 1154.086792,150.929123 
	C1153.992798,152.968307 1154.289185,155.118225 1153.746582,157.030136 
	C1145.196533,187.163986 1136.541016,217.267929 1127.901855,247.376480 
	C1126.941406,250.723190 1125.933105,254.056168 1124.947144,257.395538 
	C1125.414185,257.604401 1125.881348,257.813263 1126.348389,258.022125 
	C1127.145264,256.915497 1128.036987,255.864578 1128.724121,254.693573 
	C1135.366089,243.373199 1142.197266,232.223724 1152.894653,224.092239 
	C1163.870850,215.748901 1175.914917,212.267944 1189.219360,217.095428 
	C1195.785889,219.478104 1197.432007,225.709396 1198.001709,232.113525 
	C1199.002808,243.366501 1195.202026,253.756287 1191.821533,264.107147 
	C1184.680298,285.973267 1177.063110,307.683838 1169.674805,329.469635 
	C1168.349976,333.375671 1168.152832,337.391968 1172.366455,339.503967 
	C1176.366699,341.509094 1180.130005,339.761963 1182.252686,336.169220 
	C1186.705811,328.631409 1190.706421,320.825653 1194.862915,313.113831 
	C1195.251221,312.393433 1195.205322,311.289581 1195.752319,310.838013 
	C1196.641113,310.104431 1197.853882,309.763214 1198.929932,309.256348 
	C1199.150146,310.429474 1199.743042,311.674622 1199.532471,312.764496 
	C1197.665283,322.427155 1192.636719,330.545013 1187.099243,338.498169 
	C1181.306641,346.817474 1173.226807,349.947174 1163.568604,349.943695 
	C1152.391479,349.939697 1143.992065,340.667969 1146.472412,329.796722 
	C1149.192261,317.876038 1152.843628,306.113007 1156.892212,294.562683 
	C1163.772949,274.931885 1172.774902,256.036377 1176.489258,235.333313 
	C1178.207397,225.756592 1173.021118,220.398834 1163.898315,223.732864 
	C1159.070068,225.497406 1154.158325,228.424820 1150.664062,232.128738 
	C1145.148315,237.975266 1140.794067,244.917343 1135.702637,251.667648 
M1124.554443,259.668060 
	C1124.411255,260.097443 1124.245728,260.521698 1124.144775,260.960754 
	C1124.125854,261.043091 1124.364380,261.184601 1124.483887,261.298767 
	C1124.628662,260.868896 1124.773438,260.438995 1124.554443,259.668060 
z"/>
<path fill="#D2D6D5" opacity="1.000000" stroke="none" 
	d="
M411.416992,334.409515 
	C415.066711,326.973175 418.483368,319.823944 421.982208,312.715210 
	C422.839294,310.973846 423.965240,309.364868 424.967590,307.695038 
	C425.507416,307.868805 426.047241,308.042572 426.587067,308.216339 
	C426.709290,310.072601 427.421570,312.133118 426.860931,313.753082 
	C422.108185,327.485168 417.047424,341.270599 402.350647,347.574219 
	C398.121704,349.388062 392.896423,350.127686 388.315918,349.629913 
	C376.432953,348.338684 372.911041,338.011200 375.566833,327.895111 
	C380.009430,310.973114 386.331726,294.552124 391.589935,277.834381 
	C395.912170,264.092407 400.019623,250.274887 403.780182,236.371262 
	C404.493713,233.733078 403.747437,230.258484 402.575195,227.667252 
	C401.210266,224.650101 398.708496,222.595764 394.550446,223.511200 
	C385.414734,225.522552 379.457336,231.878967 374.266571,238.680908 
	C353.658081,265.686127 340.355682,296.213196 331.980530,328.998505 
	C331.816467,329.640808 331.668304,330.288147 331.476379,330.922150 
	C326.881500,346.099701 324.348236,347.699249 308.547516,345.990143 
	C304.839752,345.589111 304.622101,343.384277 305.306915,340.721497 
	C307.866425,330.769318 310.408661,320.808319 313.234894,310.930023 
	C318.704620,291.812256 324.402527,272.759827 329.919983,253.655533 
	C331.753876,247.305756 333.244781,240.857376 335.044983,234.497223 
	C336.174866,230.505173 335.207794,227.178741 331.860718,224.976349 
	C328.427856,222.717499 324.584320,223.511139 322.593719,226.775101 
	C318.670044,233.208542 315.403870,240.052856 312.044189,246.815872 
	C310.577057,249.769135 309.678009,253.003296 308.233551,255.969955 
	C307.857880,256.741486 306.402008,256.987030 305.442261,257.474182 
	C305.084229,256.472839 304.259705,255.378464 304.438110,254.484131 
	C307.147003,240.906204 312.603119,228.517349 323.881500,220.126083 
	C330.719849,215.038223 339.080505,213.013275 347.764893,216.873367 
	C352.164032,218.828735 353.637604,222.303513 354.030365,226.753113 
	C354.985992,237.579422 351.982666,247.791748 349.433472,258.088409 
	C348.123535,263.379547 346.889954,268.689545 346.626465,274.194458 
	C351.846588,264.648285 356.559753,254.778091 362.405060,245.631470 
	C371.271912,231.756744 381.470734,218.896927 399.041199,215.638458 
	C406.958405,214.170212 415.332214,213.501480 421.061462,220.850906 
	C423.218292,223.617691 424.449860,227.588364 424.847961,231.150482 
	C425.918213,240.727493 423.598175,249.956497 420.466034,258.945892 
	C414.144745,277.088440 407.591492,295.151367 401.418518,313.343719 
	C399.457977,319.121704 398.212402,325.167847 396.997833,331.163818 
	C396.261078,334.801117 397.005371,338.440216 401.019653,339.825378 
	C404.735504,341.107544 407.841156,339.515839 410.125824,336.381958 
	C410.516785,335.845673 410.852814,335.269348 411.416992,334.409515 
z"/>
<path fill="#D2D6D5" opacity="1.000000" stroke="none" 
	d="
M143.000000,169.985382 
	C175.111511,169.985367 206.723022,169.985367 238.939224,169.985367 
	C233.509583,186.968521 228.299377,203.265244 223.089188,219.561981 
	C222.674011,219.752182 222.258820,219.942383 221.843643,220.132584 
	C221.229004,218.520676 220.029099,216.876877 220.114853,215.303131 
	C220.329895,211.356796 221.386597,207.458740 221.638535,203.511490 
	C222.239395,194.097610 222.130417,184.842575 213.740402,178.140350 
	C208.642487,174.067963 202.453247,174.524918 196.634125,174.143661 
	C188.670700,173.621887 180.647110,174.057724 172.649902,174.000046 
	C165.465485,173.948242 159.577408,177.222458 157.489532,184.931656 
	C152.898087,201.884872 148.469864,218.882233 143.933868,235.850571 
	C142.056152,242.874817 140.073013,249.870880 138.144058,256.857208 
	C154.634323,263.479767 174.988541,255.391281 182.027771,239.648010 
	C183.514236,236.323547 185.283386,233.107986 187.155701,229.982071 
	C187.919540,228.706802 189.304581,227.803619 190.406998,226.731140 
	C190.842422,226.901199 191.277863,227.071243 191.713303,227.241302 
	C191.713303,228.915314 192.067932,230.681732 191.659515,232.249359 
	C186.480591,252.127136 181.255554,271.993927 175.777267,291.790192 
	C175.439316,293.011444 172.884659,293.619324 171.052353,294.693787 
	C171.052353,288.932251 170.693008,284.339142 171.124344,279.821503 
	C172.139999,269.184235 163.786667,263.761841 155.360077,263.084717 
	C150.062180,262.658936 144.686630,262.777008 139.380524,263.147186 
	C137.892014,263.251038 135.597763,264.867126 135.243896,266.204987 
	C130.288940,284.938202 125.794838,303.793823 120.791214,322.513458 
	C117.474098,334.923492 124.857948,340.609833 134.985123,342.071594 
	C136.420288,342.278778 137.742691,343.267029 139.117294,343.893738 
	C138.990875,344.419342 138.864456,344.944946 138.738037,345.470551 
	C137.365311,345.631104 135.992813,345.929352 134.619843,345.931519 
	C115.291206,345.962097 95.962257,345.992432 76.634293,345.874512 
	C75.128670,345.865326 73.629784,344.749847 72.127754,344.148560 
	C73.481461,343.258484 74.757111,341.763000 76.201584,341.576721 
	C85.438141,340.385681 92.144440,335.965942 94.894524,326.869263 
	C96.663025,321.019440 97.473244,314.886139 99.089302,308.982910 
	C105.001587,287.386444 111.200378,265.867950 117.042168,244.252762 
	C121.834351,226.521255 126.504333,208.749557 130.779312,190.888184 
	C133.278458,180.446503 129.358765,175.602829 118.443390,173.864944 
	C117.200958,173.667145 116.109306,172.522278 114.947731,171.816559 
	C115.093330,171.206177 115.238922,170.595779 115.384521,169.985397 
	C124.423012,169.985397 133.461502,169.985397 143.000000,169.985382 
z"/>
<path fill="#D2D6D5" opacity="1.000000" stroke="none" 
	d="
M554.332275,325.269409 
	C550.598511,333.527954 546.702515,341.014221 538.679810,345.689026 
	C531.200745,350.047089 517.197937,350.693176 512.395508,344.016022 
	C507.540100,337.265167 508.521118,330.168945 510.010864,323.010345 
	C510.997559,318.268829 512.848083,313.707092 513.351746,308.696014 
	C509.818817,314.274567 506.136322,319.764984 502.785034,325.450684 
	C496.447479,336.202698 487.557800,344.263672 475.706268,347.708954 
	C459.109344,352.533661 445.072937,347.299011 442.871948,326.605133 
	C440.963531,308.661926 445.541260,292.131958 452.150055,275.910095 
	C457.963928,261.639374 466.246948,248.787338 476.525085,237.384781 
	C485.402161,227.536545 495.680664,219.237076 509.143982,216.612534 
	C517.555054,214.972885 525.828247,215.363739 531.261963,223.762085 
	C531.887451,224.728897 532.734985,225.553497 533.497253,226.428604 
	C533.585693,226.530212 533.788330,226.532410 534.318115,226.703186 
	C535.097961,225.667847 536.496216,224.622711 536.735474,223.358261 
	C538.001831,216.667572 542.711853,216.615204 547.956726,216.962387 
	C551.736389,217.212570 555.545837,217.011124 560.266907,217.011124 
	C559.357056,221.463867 558.848816,225.324615 557.767639,229.017593 
	C551.160400,251.584167 544.311218,274.080261 537.777527,296.667786 
	C534.602722,307.643311 531.763550,318.725128 529.138428,329.845215 
	C528.261719,333.559052 528.159424,338.055328 532.745056,339.637817 
	C536.871826,341.061859 540.420532,339.628571 542.588623,335.285095 
	C546.571716,327.305328 550.784790,319.439301 554.986816,311.571136 
	C555.504028,310.602661 556.539490,309.910980 557.334839,309.091034 
	C557.766052,310.285553 558.795959,311.642273 558.523926,312.646271 
	C557.398743,316.798981 555.879639,320.844971 554.332275,325.269409 
M469.969360,290.570740 
	C467.067505,301.824677 464.255341,313.133057 465.118988,324.866577 
	C465.416168,328.904114 466.135864,333.291290 468.056427,336.743225 
	C471.280090,342.537231 479.017120,342.094116 485.879456,336.678070 
	C495.760254,328.879639 502.240417,318.519745 508.138672,307.704376 
	C516.201904,292.919098 522.490540,277.352081 526.639343,261.078400 
	C528.704651,252.977371 529.573914,244.422607 529.768738,236.044830 
	C529.903015,230.272522 527.965576,224.121979 522.056396,221.331772 
	C516.286194,218.607178 510.963989,220.749985 505.861877,224.328918 
	C496.484100,230.907104 490.822052,240.437546 486.135986,250.230667 
	C480.011047,263.030731 475.409546,276.559723 469.969360,290.570740 
z"/>
<path fill="#D3D6D5" opacity="1.000000" stroke="none" 
	d="
M823.965088,200.930023 
	C824.630249,212.976089 825.328064,224.558578 825.954407,236.144943 
	C827.002075,255.523453 827.864624,274.913177 829.076721,294.281158 
	C829.820801,306.170349 830.960571,318.038818 832.142456,329.894684 
	C832.684326,335.330811 836.144653,338.761536 840.936707,341.102509 
	C842.493103,341.862823 843.765747,343.204041 845.168213,344.279572 
	C844.992615,344.697754 844.817017,345.115936 844.641418,345.534119 
	C843.240112,345.674683 841.838928,345.935120 840.437378,345.937561 
	C823.774841,345.966522 807.112244,345.961273 790.449646,345.948395 
	C789.291321,345.947510 788.076660,346.000610 786.996399,345.672455 
	C786.365845,345.480865 785.560303,344.589630 785.548218,343.998596 
	C785.536377,343.415070 786.321106,342.468689 786.937378,342.283386 
	C788.832642,341.713379 790.807678,341.393005 792.764099,341.044586 
	C800.445618,339.676636 805.050659,334.859497 804.995422,327.088898 
	C804.895630,313.039429 804.383972,298.991791 803.936157,284.946808 
	C803.826538,281.506714 802.289490,279.799347 798.294128,279.855469 
	C781.634827,280.089600 764.968750,279.848083 748.309814,280.095703 
	C746.268127,280.126068 743.603027,281.549408 742.337219,283.186005 
	C735.742188,291.713013 729.208862,300.320892 723.263916,309.304291 
	C720.006897,314.226074 717.549744,319.792938 715.462097,325.343536 
	C712.866150,332.245361 717.437561,339.459045 724.666077,341.215820 
	C726.610413,341.688354 728.375916,342.896729 730.223511,343.767303 
	C730.066833,344.338623 729.910217,344.909943 729.753540,345.481262 
	C728.377136,345.638763 727.001038,345.929321 725.624146,345.933044 
	C712.627441,345.967987 699.629883,346.013184 686.634521,345.874390 
	C685.120972,345.858215 683.619141,344.746368 682.111877,344.142487 
	C683.308044,343.082245 684.332336,341.585510 685.729370,341.035492 
	C692.722778,338.281952 698.666443,334.111908 702.999207,328.013428 
	C717.883362,307.063690 732.619202,286.008453 747.405151,264.988892 
	C762.385864,243.692413 777.372131,222.399826 792.328857,201.086517 
	C798.516846,192.268677 804.635681,183.402344 810.778992,174.553223 
	C811.062439,174.144897 811.171570,173.538696 811.540771,173.279175 
	C813.883362,171.632446 816.276489,170.057449 818.652893,168.458771 
	C819.747375,171.041290 821.480713,173.543716 821.816467,176.221359 
	C822.825256,184.266983 823.289185,192.380905 823.965088,200.930023 
M750.342285,275.925232 
	C765.664612,275.952972 780.986938,275.988464 796.309265,276.004730 
	C802.716919,276.011536 803.146545,275.771698 802.922485,269.159485 
	C802.382935,253.242935 801.747559,237.326828 800.869385,221.426071 
	C800.548462,215.614822 799.432007,209.847488 798.678467,204.060120 
	C798.193054,203.906281 797.707581,203.752441 797.222168,203.598587 
	C794.741638,206.557556 792.101257,209.398727 789.815247,212.501022 
	C785.594849,218.228531 781.517944,224.065079 777.495911,229.934830 
	C767.745483,244.164627 758.037781,258.424133 748.444153,272.759552 
	C748.104065,273.267670 749.156372,274.707672 750.342285,275.925232 
z"/>
<path fill="#D2D6D5" opacity="1.000000" stroke="none" 
	d="
M607.482422,345.667114 
	C600.622131,349.766693 593.388550,349.323669 586.270447,348.898224 
	C580.457275,348.550781 574.495850,341.940582 575.267822,335.512970 
	C576.485718,325.371185 578.330200,315.218079 580.963196,305.350922 
	C586.309753,285.315063 592.272766,265.441162 598.147278,245.549423 
	C603.780762,226.473633 609.638855,207.464249 615.363953,188.415375 
	C616.748108,183.809845 618.082458,179.185684 619.282776,174.529648 
	C620.354675,170.372147 617.447876,165.585495 612.883667,164.141922 
	C610.695251,163.449783 608.284058,163.479218 606.069580,162.846329 
	C604.674927,162.447678 603.457825,161.427582 602.161072,160.686249 
	C603.681274,159.474075 605.068298,157.473053 606.745300,157.190018 
	C613.093262,156.118622 619.598755,155.948044 625.923157,154.779373 
	C631.612244,153.728119 637.115479,151.707077 642.748779,150.306854 
	C647.410828,149.148056 648.724731,150.459854 647.400024,155.095139 
	C641.486938,175.785934 635.384827,196.422867 629.498596,217.121216 
	C622.922913,240.243866 616.679688,263.462311 609.951111,286.539703 
	C606.330933,298.956390 601.820496,311.111938 598.096741,323.501007 
	C597.024902,327.067230 596.890869,331.052277 597.043396,334.816284 
	C597.253052,339.990448 601.309631,342.091095 605.786194,339.528168 
	C612.566772,335.646149 615.596741,329.058899 618.103027,322.049805 
	C619.928772,316.943909 622.186523,311.992462 624.251709,306.972168 
	C624.889526,306.859314 625.527344,306.746460 626.165161,306.633606 
	C626.959290,308.336395 628.866760,310.522430 628.370728,311.665161 
	C624.551086,320.464172 620.589905,329.240173 615.957153,337.628052 
	C614.214905,340.782623 610.579224,342.891388 607.482422,345.667114 
z"/>
<path fill="#D3D6D5" opacity="1.000000" stroke="none" 
	d="
M1370.521729,216.538910 
	C1371.608276,215.505051 1372.330444,214.516006 1373.303589,214.006790 
	C1374.040894,213.621063 1375.098267,213.847107 1376.013184,213.800903 
	C1375.989746,214.849548 1376.339722,216.123917 1375.869263,216.902496 
	C1374.678101,218.873703 1373.138306,220.637802 1371.703369,222.457504 
	C1361.543823,235.341187 1354.220703,249.849762 1347.605469,264.743500 
	C1341.191162,279.184509 1336.184570,294.111328 1334.285278,309.844391 
	C1333.340942,317.667389 1332.709839,325.638153 1336.129272,333.287964 
	C1338.938232,339.572479 1344.685669,342.773071 1351.390625,341.111603 
	C1365.967529,337.499512 1377.128784,328.772461 1385.479492,316.727295 
	C1396.254150,301.185669 1403.798950,284.036377 1408.267944,265.605347 
	C1408.929688,262.876465 1409.418213,260.103577 1409.925659,257.339783 
	C1410.745361,252.874268 1408.538818,250.397049 1404.774658,248.209167 
	C1397.802002,244.156479 1391.125122,239.287247 1390.498169,230.376846 
	C1390.212280,226.315048 1390.721680,221.439224 1392.790039,218.133804 
	C1396.634644,211.989761 1408.740601,213.776794 1412.203247,220.694809 
	C1416.030640,228.341309 1416.846924,236.817856 1415.701050,245.026962 
	C1413.875488,258.104553 1411.555298,271.186066 1408.288574,283.970612 
	C1404.424194,299.094330 1395.991333,312.025452 1386.305664,324.179626 
	C1378.578979,333.875366 1369.000000,341.255707 1357.861572,346.212952 
	C1342.956665,352.846558 1321.091309,351.813446 1311.964111,336.016388 
	C1309.173584,331.186676 1307.932861,324.576752 1308.341675,318.953613 
	C1309.454224,303.649719 1315.442505,289.733459 1323.038574,276.479797 
	C1330.128174,264.109833 1337.561646,252.045410 1348.349976,242.425323 
	C1352.736572,238.513824 1356.937256,234.393753 1361.222290,230.368423 
	C1360.836426,229.788101 1360.450439,229.207764 1360.064453,228.627426 
	C1357.368530,229.862396 1354.537598,230.869629 1352.000000,232.372147 
	C1341.638062,238.507431 1331.130737,240.197540 1319.881226,234.628311 
	C1316.572754,232.990417 1312.770752,233.141663 1311.080322,237.368027 
	C1309.141479,242.215942 1307.773315,247.290863 1305.873169,252.156174 
	C1305.192749,253.897919 1303.683960,255.316071 1302.553345,256.881958 
	C1301.704834,255.158020 1300.051636,253.393494 1300.136230,251.716583 
	C1300.771362,239.117859 1305.905273,228.050949 1314.210205,218.978638 
	C1318.546997,214.241135 1326.925659,212.291977 1334.496094,216.778732 
	C1337.610474,218.624496 1340.620117,220.791443 1343.959229,222.085068 
	C1352.079224,225.230881 1359.869263,224.624847 1366.861450,218.867691 
	C1367.877563,218.031052 1369.124878,217.475586 1370.521729,216.538910 
z"/>
<path fill="#D3D6D5" opacity="1.000000" stroke="none" 
	d="
M1446.233887,257.197388 
	C1455.088013,243.235687 1466.239136,232.043655 1480.076050,223.702515 
	C1490.958008,217.142639 1502.945190,214.669022 1515.546265,216.202667 
	C1524.513184,217.294022 1528.522095,222.561646 1528.968262,232.402969 
	C1529.587524,246.064590 1522.181152,255.497803 1511.985474,262.797638 
	C1496.929443,273.577240 1480.344360,281.737762 1462.922729,287.954071 
	C1456.357300,290.296661 1452.292358,294.062622 1451.541504,300.877014 
	C1450.390625,311.323456 1449.832764,321.781342 1454.750977,331.622009 
	C1458.637207,339.398041 1466.636841,342.908875 1475.139893,340.456390 
	C1486.694824,337.123627 1496.017578,330.547638 1503.166382,320.874817 
	C1505.495361,317.723511 1505.647949,317.704376 1510.329224,319.289337 
	C1498.329834,335.999756 1484.183838,348.503021 1462.476440,348.977753 
	C1455.530273,349.129700 1448.701782,349.271393 1442.092651,345.777771 
	C1432.112915,340.502411 1428.158325,331.664795 1427.167236,321.465454 
	C1424.860352,297.728577 1432.243652,276.605682 1446.233887,257.197388 
M1497.203247,261.654480 
	C1504.232300,251.591782 1508.128784,240.500748 1508.035400,228.151184 
	C1507.977295,220.474701 1503.751709,217.827423 1496.963623,221.633377 
	C1492.818848,223.957352 1488.715820,226.779816 1485.468872,230.207123 
	C1471.742065,244.695480 1463.710815,262.547607 1456.659302,280.883881 
	C1456.138184,282.238678 1456.048828,284.708588 1456.840698,285.375763 
	C1457.800537,286.184235 1460.122192,286.139679 1461.492310,285.578979 
	C1474.791992,280.135651 1487.854736,274.263275 1497.203247,261.654480 
z"/>
<path fill="#D2D6D5" opacity="1.000000" stroke="none" 
	d="
M922.038208,254.067398 
	C927.509827,244.765015 932.228455,235.371277 938.307129,226.960541 
	C945.119568,217.534668 955.061279,213.343857 966.770508,215.543808 
	C976.928345,217.452286 980.408936,222.835724 978.848938,234.184570 
	C977.820312,241.668121 972.969849,246.345093 963.562134,246.944916 
	C959.511658,247.203171 955.580200,246.965607 952.692505,243.389938 
	C948.778137,238.542908 949.144531,233.559189 953.968323,227.646759 
	C955.273132,226.047501 956.522034,224.402664 958.166260,222.307770 
	C952.194580,221.346207 948.303711,223.346756 944.982727,226.974579 
	C933.005127,240.058823 924.947998,255.517654 918.956116,271.954926 
	C911.235229,293.135132 904.309814,314.606384 897.117371,335.977722 
	C893.770264,345.923248 893.850830,345.950623 883.694275,345.953156 
	C881.194519,345.953766 878.690979,345.864990 876.195801,345.971710 
	C872.402405,346.134003 871.407837,344.062500 872.266602,340.890778 
	C876.551941,325.063568 880.899658,309.252930 885.303711,293.458282 
	C888.153870,283.236633 891.154907,273.057190 894.058350,262.850281 
	C896.863770,252.988312 899.913208,243.180450 902.211182,233.200470 
	C902.767456,230.784500 901.243591,227.492096 899.764587,225.187866 
	C899.114258,224.174500 895.620483,223.776230 894.398132,224.583389 
	C891.566101,226.453552 888.651672,228.838547 886.999512,231.719513 
	C883.810303,237.280594 881.453186,243.320923 878.792419,249.181351 
	C878.244690,250.387772 878.194824,251.976837 877.357239,252.860321 
	C875.911560,254.385193 874.028259,255.495102 872.328491,256.779144 
	C872.230835,254.853836 871.421082,252.587402 872.153015,251.059509 
	C876.365662,242.265808 880.136658,233.088242 885.642883,225.139069 
	C890.357727,218.332336 898.062744,215.016296 906.857544,215.946106 
	C910.097534,216.288666 913.806152,215.904404 916.444214,217.381653 
	C920.585144,219.700470 921.713989,224.275208 921.984863,229.012466 
	C922.617981,240.083817 918.602112,250.221878 915.966370,260.643555 
	C915.591370,262.126129 915.280823,263.624969 914.940491,265.116302 
	C915.395203,265.292572 915.849915,265.468842 916.304626,265.645111 
	C918.164795,261.900024 920.025024,258.154938 922.038208,254.067398 
z"/>
<path fill="#D3D6D5" opacity="1.000000" stroke="none" 
	d="
M1050.886719,219.183136 
	C1033.141235,221.165909 1023.741272,233.539520 1015.714600,246.897003 
	C1007.326660,260.855713 1000.896851,275.888580 998.261780,292.084503 
	C996.312195,304.066895 995.144592,316.135315 998.886963,328.243011 
	C1002.410217,339.641754 1015.069885,343.438934 1025.762207,339.284271 
	C1037.134888,334.865265 1044.519165,325.870209 1052.944458,317.435089 
	C1056.229858,318.020996 1056.557495,319.542847 1054.366943,322.287323 
	C1044.756836,334.327454 1033.845215,345.019104 1018.372375,348.445526 
	C1002.622803,351.933228 985.191406,349.739594 976.257568,332.608368 
	C972.251099,324.925598 971.694153,316.391846 972.304260,307.915802 
	C973.496948,291.345917 978.620239,275.836670 985.941528,261.029663 
	C997.353516,237.949326 1014.400452,221.146393 1040.415283,216.465149 
	C1050.541016,214.643082 1061.755249,213.668915 1070.357544,222.825272 
	C1077.987183,230.946396 1079.217041,241.584061 1072.571533,250.518845 
	C1068.220581,256.368500 1061.516113,255.718201 1055.589600,254.626907 
	C1052.834106,254.119522 1049.431152,250.903229 1048.475464,248.163574 
	C1046.583984,242.741226 1048.616211,237.565109 1053.490845,234.194061 
	C1057.095215,231.701492 1061.070312,229.744934 1065.114990,227.414261 
	C1061.793213,221.910583 1056.769165,220.188110 1050.886719,219.183136 
z"/>
<path fill="#D2D6D5" opacity="1.000000" stroke="none" 
	d="
M228.060898,330.277740 
	C233.024979,304.574188 243.737076,281.249023 252.395782,257.231415 
	C255.249802,249.314911 258.032593,241.343399 260.177124,233.219940 
	C260.753326,231.037415 259.567108,227.417084 257.886475,225.918045 
	C256.533936,224.711624 252.805054,224.889160 250.839462,225.871353 
	C242.217041,230.179977 240.585434,239.211472 237.407669,247.141434 
	C236.181732,250.200714 235.246750,253.401978 233.738937,256.310303 
	C233.146896,257.452271 231.349762,257.969482 230.101425,258.771179 
	C229.556412,257.271271 228.131180,255.370514 228.603302,254.333740 
	C233.059753,244.547089 237.251068,234.559525 242.708801,225.333862 
	C247.236862,217.679657 263.780945,213.530899 272.167664,216.674133 
	C277.735504,218.760864 280.710236,223.262589 281.038361,229.272385 
	C281.862946,244.375992 275.921814,257.872070 271.094147,271.603790 
	C264.163666,291.316956 257.033997,310.961334 249.813812,330.570374 
	C248.417603,334.362305 249.355209,337.504547 252.274719,339.312286 
	C255.457977,341.283356 259.552368,340.657440 261.769989,337.577789 
	C265.890228,331.855957 269.460480,325.718964 272.984741,319.596588 
	C274.372925,317.185059 274.789764,314.224243 276.106079,311.757538 
	C276.814423,310.430115 278.490021,309.618835 280.406830,309.185486 
	C278.950378,319.271851 275.885620,328.331787 270.114807,336.366547 
	C265.086700,343.367188 259.059692,348.086914 249.933380,349.400940 
	C238.677963,351.021484 226.704269,346.067566 228.060898,330.277740 
z"/>
<path fill="#D2D6D5" opacity="1.000000" stroke="none" 
	d="
M1274.071167,317.035950 
	C1270.709106,326.319244 1267.467773,335.038574 1259.974243,341.727722 
	C1251.976685,348.866791 1242.872803,350.098267 1233.026001,348.686920 
	C1228.274170,348.005829 1223.456543,341.187927 1222.955444,336.327393 
	C1222.065552,327.697449 1225.438354,320.047150 1228.005371,312.195007 
	C1232.389648,298.783722 1236.658691,285.331848 1241.267456,271.997742 
	C1244.684204,262.112976 1248.720215,252.442673 1252.158936,242.564957 
	C1253.556274,238.550751 1254.598389,234.275467 1254.899048,230.054626 
	C1255.215820,225.609924 1251.409058,223.286194 1247.148193,224.803711 
	C1242.007812,226.634521 1238.710938,230.585464 1236.366577,235.233948 
	C1233.389160,241.138031 1230.871826,247.272705 1227.979248,253.221939 
	C1227.230103,254.762589 1225.821411,255.982437 1224.715820,257.349670 
	C1224.252197,257.133545 1223.788574,256.917450 1223.324951,256.701355 
	C1223.324951,255.333801 1222.859985,253.739761 1223.398438,252.634460 
	C1227.803833,243.590256 1231.581177,234.090775 1237.141479,225.796921 
	C1243.850586,215.789230 1254.847778,214.771759 1265.847168,216.285934 
	C1271.941284,217.124847 1276.505371,223.052750 1275.771851,230.488571 
	C1274.803345,240.306244 1273.393921,250.323730 1270.317139,259.642242 
	C1262.627930,282.930634 1253.833862,305.852875 1245.665771,328.986572 
	C1244.882568,331.205078 1244.819946,334.019714 1245.407837,336.304108 
	C1246.393066,340.132446 1250.769653,341.334534 1254.194092,339.375183 
	C1260.229004,335.922119 1262.784790,329.826660 1265.784180,324.144562 
	C1267.791626,320.341339 1269.017456,316.130249 1270.941040,312.275391 
	C1271.600830,310.953125 1273.316772,310.157867 1274.550171,309.121826 
	C1274.747070,310.689667 1275.099121,312.259125 1275.083130,313.824829 
	C1275.073486,314.771362 1274.492920,315.712097 1274.071167,317.035950 
z"/>
<path fill="#D2D6D5" opacity="1.000000" stroke="none" 
	d="
M298.850372,165.567230 
	C299.082031,180.104080 288.851227,188.046646 276.630188,185.998886 
	C269.526215,184.808548 265.907440,180.485565 266.007477,173.330627 
	C266.163605,162.164505 274.404449,153.695648 285.061157,154.144485 
	C292.154846,154.443268 296.559418,158.572861 298.850372,165.567230 
z"/>
<path fill="#F4F4F4" opacity="1.000000" stroke="none" 
	d="
M793.000000,463.000000 
	C793.000488,455.671692 793.110718,448.840790 792.950806,442.016235 
	C792.880554,439.019440 793.844360,437.893311 796.940735,437.943298 
	C806.431274,438.096710 815.927856,437.904846 825.416870,438.101013 
	C826.839905,438.130432 828.234924,439.520447 829.642883,440.281067 
	C828.199951,441.184631 826.785889,442.809937 825.309265,442.868805 
	C818.325439,443.147308 811.321289,443.121826 804.331055,442.944489 
	C801.176208,442.864410 799.733887,443.729736 799.946472,447.130920 
	C800.185059,450.946564 800.104187,454.792053 799.971985,458.617981 
	C799.860352,461.849152 801.257324,463.097321 804.441956,463.029388 
	C810.268372,462.905060 816.099487,462.975555 821.928345,463.009674 
	C823.498718,463.018890 825.068176,463.189789 826.638062,463.286469 
	C826.822266,463.890930 827.006531,464.495392 827.190796,465.099854 
	C825.729736,465.733002 824.286621,466.858215 822.804382,466.912506 
	C816.983093,467.125732 811.139771,467.207794 805.323669,466.933899 
	C801.072937,466.733765 799.734619,468.441315 799.938110,472.500488 
	C800.194885,477.622620 800.000061,482.767365 800.000061,487.998871 
	C809.473877,487.998871 818.575134,488.003632 827.676331,487.995422 
	C829.886658,487.993408 832.589233,487.801544 831.801208,491.087524 
	C831.510803,492.298340 829.287720,493.839600 827.915466,493.870575 
	C817.594971,494.103394 807.265564,493.906036 796.941895,494.051636 
	C793.849670,494.095245 792.900818,492.977783 792.949585,489.979767 
	C793.093140,481.155212 793.000305,472.326874 793.000000,463.000000 
z"/>
<path fill="#D2D6D5" opacity="1.000000" stroke="none" 
	d="
M1261.309326,177.121597 
	C1259.416138,162.842072 1269.148560,153.762589 1280.547363,154.061371 
	C1285.499390,154.191208 1289.419678,156.239853 1291.266846,160.746628 
	C1295.734985,171.648132 1293.262451,184.606857 1276.177734,185.997696 
	C1269.228027,186.563461 1264.332886,183.843521 1261.309326,177.121597 
z"/>
<path fill="#F4F4F4" opacity="1.000000" stroke="none" 
	d="
M602.876953,481.135010 
	C601.954895,484.334351 601.660278,487.422607 600.551941,490.184296 
	C599.971497,491.630463 598.085876,492.747681 596.543640,493.525238 
	C595.843933,493.878021 593.728882,493.152863 593.672302,492.728119 
	C593.501648,491.446075 593.902649,490.033966 594.299927,488.739838 
	C595.835083,483.740112 597.218262,478.674164 599.112122,473.809692 
	C600.929993,469.140259 603.409546,464.733124 605.418701,460.132263 
	C608.099121,453.993988 610.351318,447.652283 613.347290,441.678650 
	C614.210388,439.957703 616.922913,438.497375 618.936646,438.276276 
	C620.101440,438.148407 622.137573,440.498352 622.801575,442.131592 
	C628.071228,455.092834 633.051025,468.171631 638.253357,481.160828 
	C639.450439,484.149567 641.424316,486.839264 642.493469,489.860260 
	C642.851562,490.871979 641.507629,492.486053 640.941711,493.824799 
	C638.984192,492.694794 636.185181,492.032013 635.244263,490.337555 
	C633.286804,486.812195 632.708679,482.521454 630.754333,478.993622 
	C629.890198,477.433777 627.125122,476.355743 625.103394,476.129944 
	C621.154907,475.688934 617.088440,476.326508 613.133301,475.915802 
	C608.563354,475.441254 605.418823,477.084869 602.876953,481.135010 
M610.882751,471.998322 
	C616.443359,471.998322 622.004028,471.998322 628.807434,471.998322 
	C625.280334,462.916199 622.181580,454.937042 619.082825,446.957886 
	C618.543274,446.894165 618.003723,446.830414 617.464172,446.766693 
	C614.071777,454.537048 610.654175,462.296997 607.413025,470.129944 
	C607.319397,470.356171 609.094666,471.355713 610.882751,471.998322 
z"/>
<path fill="#F4F4F4" opacity="1.000000" stroke="none" 
	d="
M921.519226,456.456848 
	C930.351318,448.388275 944.177917,451.058105 949.733154,461.808136 
	C951.505066,465.236969 952.521606,469.056183 953.883789,472.696777 
	C953.436584,473.241821 952.989441,473.786865 952.542297,474.331909 
	C941.569153,474.331909 930.596008,474.331909 919.537415,474.331909 
	C920.529541,483.006409 924.776184,488.989075 931.967773,489.476776 
	C936.144592,489.759979 940.554077,486.458801 944.877808,484.820435 
	C946.173767,484.329315 947.533447,484.006470 948.864014,483.606506 
	C948.893127,485.095978 949.455261,486.854889 948.861511,488.029541 
	C945.899780,493.889099 932.534912,496.603729 926.750549,493.455597 
	C921.314331,490.497009 917.203674,486.972748 914.897156,481.036652 
	C912.765503,475.550842 911.476013,470.423401 915.193481,465.203461 
	C917.210510,462.371246 919.226318,459.538177 921.519226,456.456848 
M930.187927,456.162872 
	C928.733093,457.168610 927.274048,458.168457 925.824219,459.181305 
	C922.594543,461.437500 919.663757,463.831512 921.680298,468.719696 
	C929.908875,468.719696 938.126099,468.719696 946.368652,468.719696 
	C945.674744,461.740173 938.562805,455.982544 930.187927,456.162872 
z"/>
<path fill="#F4F4F4" opacity="1.000000" stroke="none" 
	d="
M445.963501,492.324768 
	C442.875000,489.577179 439.670593,487.363831 437.475739,484.402283 
	C436.121796,482.575409 436.201233,479.623199 435.844299,477.146362 
	C435.658691,475.858521 436.459320,474.184021 435.891724,473.237488 
	C433.228485,468.796417 435.874176,465.337799 438.074158,462.199463 
	C440.200409,459.166382 442.840302,455.906616 446.035889,454.312836 
	C458.983215,447.855286 466.116852,452.779388 470.913177,459.218994 
	C481.767487,473.792175 474.715729,491.146118 457.628510,494.677460 
	C454.139648,495.398499 450.073700,493.327240 445.963501,492.324768 
M443.508881,481.877136 
	C447.988525,486.612640 452.044434,491.594452 459.999512,487.997284 
	C466.844788,484.902008 471.342102,477.676300 469.961456,469.859253 
	C468.772675,463.128174 462.369324,458.459229 455.257599,457.877045 
	C447.491180,457.241241 443.952118,462.335022 441.385498,467.778473 
	C439.384949,472.021423 438.836609,477.252197 443.508881,481.877136 
z"/>
<path fill="#F4F4F4" opacity="1.000000" stroke="none" 
	d="
M1205.637817,490.255188 
	C1200.600952,478.348358 1195.737793,466.769592 1190.685303,454.740326 
	C1194.194702,454.132202 1196.844604,452.298584 1198.409668,457.254730 
	C1200.824219,464.900757 1204.102051,472.276489 1207.081055,479.739899 
	C1207.655518,481.178955 1208.541382,482.493744 1209.645752,484.535492 
	C1213.361938,475.893280 1216.690063,468.139374 1220.032959,460.391876 
	C1220.690674,458.867737 1221.057251,456.973053 1222.194214,455.970703 
	C1223.291260,455.003510 1225.210449,454.968719 1226.768433,454.524353 
	C1226.757324,455.843079 1227.111450,457.299347 1226.675415,458.458252 
	C1223.901489,465.830688 1221.145630,473.221375 1218.001709,480.439697 
	C1215.451172,486.295746 1211.685303,491.697235 1209.726074,497.713165 
	C1208.065063,502.813110 1205.093506,504.438507 1200.517578,506.532440 
	C1195.361694,508.891785 1193.901245,505.595367 1190.921143,502.485474 
	C1192.595215,502.145142 1194.280029,501.470917 1195.941406,501.524200 
	C1202.020996,501.719147 1207.337280,495.945251 1205.637817,490.255188 
z"/>
<path fill="#F4F4F4" opacity="1.000000" stroke="none" 
	d="
M1039.001221,489.571350 
	C1037.969482,491.466644 1036.939819,492.910919 1035.910156,494.355194 
	C1035.428711,494.105316 1034.947144,493.855408 1034.465698,493.605499 
	C1034.465698,480.284210 1034.465698,466.962952 1034.465698,452.966949 
	C1035.675049,453.494141 1037.099487,453.651794 1037.419556,454.330353 
	C1039.403687,458.537476 1041.652222,457.321320 1044.408691,455.135895 
	C1053.703613,447.766663 1065.347534,452.637482 1068.257080,462.665558 
	C1068.512329,463.545258 1068.312012,464.560181 1068.305786,465.512207 
	C1068.255005,473.315033 1068.303467,481.121063 1068.061157,488.918030 
	C1068.011353,490.519440 1066.869141,492.086884 1066.230469,493.669983 
	C1065.156250,492.229340 1063.245117,490.839020 1063.154907,489.339233 
	C1062.796143,483.372559 1063.250488,477.357330 1062.900269,471.389587 
	C1062.725708,468.415192 1061.858154,465.323334 1060.609009,462.603882 
	C1058.198364,457.355347 1053.258423,457.385956 1048.583740,458.154358 
	C1044.277222,458.862305 1042.520508,462.356659 1040.898682,466.174194 
	C1037.703857,473.693878 1039.554688,481.474762 1039.001221,489.571350 
z"/>
<path fill="#F4F4F4" opacity="1.000000" stroke="none" 
	d="
M403.925537,467.929993 
	C402.493805,468.909821 401.107300,469.885498 399.694427,469.925354 
	C393.538574,470.098969 387.369354,470.160522 381.216370,469.942139 
	C377.358765,469.805267 375.745605,471.129547 375.945679,475.109558 
	C376.187775,479.926086 376.054779,484.764954 375.970764,489.592194 
	C375.945801,491.027618 375.539398,492.456390 375.307739,493.888214 
	C374.745636,493.876648 374.183563,493.865082 373.621490,493.853546 
	C373.413818,492.225220 373.031342,490.597504 373.025879,488.968506 
	C372.978424,474.815582 373.008453,460.662445 372.985718,446.509430 
	C372.983063,444.854950 372.437805,443.112305 372.812744,441.573456 
	C373.131378,440.265747 374.389618,438.192841 375.275879,438.170166 
	C384.926880,437.923401 394.587860,437.942230 404.241547,438.128571 
	C405.159058,438.146271 406.045197,439.787415 406.945923,440.674927 
	C405.925385,441.447144 404.922028,442.860748 403.881561,442.888641 
	C396.560455,443.084778 389.230743,443.069183 381.905853,442.968964 
	C377.777740,442.912506 374.944946,443.252533 376.627747,448.826782 
	C377.467072,451.606964 376.816284,454.927063 376.458923,457.958099 
	C375.868469,462.966125 377.442505,464.956665 382.579498,464.989075 
	C388.406982,465.025818 394.241791,464.847260 400.057465,465.112183 
	C401.391296,465.172913 402.660004,466.662933 403.925537,467.929993 
z"/>
<path fill="#F4F4F4" opacity="1.000000" stroke="none" 
	d="
M1165.966797,454.744110 
	C1167.705322,458.040436 1165.583618,457.976135 1163.655273,457.988098 
	C1159.222900,458.015594 1154.790161,457.996796 1149.634033,457.996796 
	C1151.583130,469.765961 1145.090332,482.837708 1159.619385,489.916321 
	C1160.053833,489.625031 1160.548706,489.037537 1161.108276,488.967499 
	C1162.593994,488.781464 1164.107788,488.818817 1165.610352,488.767273 
	C1165.032349,490.333069 1164.897705,492.405731 1163.794434,493.370941 
	C1160.294189,496.433014 1152.145264,495.128601 1148.780029,491.134186 
	C1146.312622,488.205322 1144.609131,485.121460 1144.875366,480.842163 
	C1145.328125,473.564941 1145.000000,466.239166 1145.000000,458.361969 
	C1142.924683,458.216095 1141.130615,458.288635 1139.447998,457.889832 
	C1138.577271,457.683411 1137.904663,456.641479 1137.142456,455.977051 
	C1137.920044,455.327087 1138.611328,454.318298 1139.494019,454.106293 
	C1141.048340,453.732941 1142.719604,453.846222 1144.723145,453.734528 
	C1144.723145,449.661072 1144.723145,445.900574 1144.723145,442.375763 
	C1146.458496,441.905914 1147.749512,441.556305 1149.693970,441.029816 
	C1149.807251,443.017365 1149.964111,444.750214 1149.994507,446.485260 
	C1150.102905,452.653900 1151.421509,453.912415 1157.730713,454.017517 
	C1160.371094,454.061462 1163.007812,454.312408 1165.966797,454.744110 
z"/>
<path fill="#F4F4F4" opacity="1.000000" stroke="none" 
	d="
M872.808533,458.660461 
	C871.948364,459.852325 871.018860,460.868958 871.085449,461.815613 
	C871.613281,469.322174 872.165771,476.835327 873.066711,484.303558 
	C873.457642,487.544250 879.401978,490.078949 882.565247,489.056427 
	C883.819458,488.650970 885.364319,489.144501 886.776855,489.228699 
	C885.834045,490.767944 885.244202,493.140167 883.892029,493.713043 
	C874.124023,497.851654 866.660889,490.401398 866.078247,481.092529 
	C865.632263,473.966766 865.915344,466.795654 865.850769,459.644897 
	C865.848083,459.347290 865.606323,459.051849 865.418823,458.625732 
	C865.066223,458.472534 864.633606,458.259888 864.183838,458.093628 
	C862.504639,457.472839 860.819885,456.867249 859.137207,456.256012 
	C860.647095,455.457825 862.308228,454.848572 863.618164,453.800507 
	C864.633240,452.988373 865.681702,451.704315 865.878479,450.493958 
	C866.247681,448.222351 865.789795,445.818756 866.135254,443.539703 
	C866.275330,442.615997 867.592590,441.258606 868.420593,441.224487 
	C869.237671,441.190796 870.142883,442.551086 870.939941,443.367615 
	C871.111694,443.543518 870.971008,444.010956 870.999512,444.341949 
	C871.814148,453.815765 871.817383,453.737976 881.471680,454.080658 
	C882.953003,454.133209 884.395325,455.281830 885.855713,455.923523 
	C884.445496,456.615936 883.094604,457.685974 881.612183,457.919220 
	C878.848755,458.354004 876.008789,458.302124 872.808533,458.660461 
z"/>
<path fill="#F4F4F4" opacity="1.000000" stroke="none" 
	d="
M506.000427,487.865845 
	C506.000488,478.230865 505.886322,469.074310 506.092316,459.924957 
	C506.136505,457.962769 507.339325,456.026672 508.008362,454.078522 
	C509.442017,455.414185 510.875671,456.749817 512.838196,458.578156 
	C515.039551,457.176331 518.026306,455.362885 520.915466,453.405365 
	C523.056702,451.954651 525.400330,450.853882 526.554871,453.926605 
	C526.909180,454.869476 524.881409,457.623932 523.423828,458.177216 
	C515.856873,461.049286 512.847290,466.528259 512.980286,474.291260 
	C513.088074,480.583862 513.002197,486.879791 513.002197,493.578125 
	C510.646301,493.578125 508.753387,493.578125 506.272278,493.578125 
	C506.183472,491.866699 506.092133,490.106781 506.000427,487.865845 
z"/>
<path fill="#F4F4F4" opacity="1.000000" stroke="none" 
	d="
M713.022461,440.446167 
	C714.327942,439.392181 716.075867,437.966248 716.793335,438.370270 
	C717.898987,438.992920 718.880005,440.859375 718.904114,442.216156 
	C719.078674,452.013733 719.000000,461.815826 718.999695,471.616486 
	C718.999512,477.596558 719.218872,483.590759 718.840820,489.546936 
	C718.743530,491.078918 716.760193,492.491211 715.643250,493.958466 
	C714.761292,492.549438 713.127747,491.148621 713.112183,489.730103 
	C712.933777,473.453033 713.001282,457.173218 713.022461,440.446167 
z"/>
<path fill="#F4F4F4" opacity="1.000000" stroke="none" 
	d="
M677.000000,448.148804 
	C677.000549,462.110809 677.078674,475.595154 676.894714,489.075897 
	C676.873718,490.609344 675.381653,492.122742 674.571716,493.645447 
	C673.715332,492.082153 672.133362,490.527466 672.114746,488.954285 
	C671.929626,473.309235 672.005798,457.661102 671.998901,442.013855 
	C671.997986,439.961273 671.787659,437.804993 674.905212,438.033691 
	C677.856628,438.250275 677.800476,439.851349 677.190979,442.203125 
	C676.744507,443.926239 677.036926,445.840820 677.000000,448.148804 
z"/>
<path fill="#F4F4F4" opacity="1.000000" stroke="none" 
	d="
M985.324829,492.982178 
	C985.266846,479.840759 985.402466,467.052216 985.627380,454.265198 
	C985.633911,453.895355 986.584412,453.542114 987.595093,452.827240 
	C988.356262,454.573456 988.977722,455.999054 989.724548,457.712280 
	C992.927002,455.938324 996.005432,453.859680 999.368164,452.468414 
	C1003.236572,450.867920 1005.688293,452.449371 1004.843567,455.681030 
	C1004.577332,456.699402 1003.040405,457.738312 1001.874634,458.112732 
	C992.853271,461.010284 988.157349,467.302643 988.011902,477.089813 
	C987.950012,481.254181 988.193542,485.434479 987.886719,489.577087 
	C987.790161,490.880798 986.354126,492.085327 985.324829,492.982178 
z"/>
<path fill="#F4F4F4" opacity="1.000000" stroke="none" 
	d="
M1107.000000,473.000549 
	C1107.000122,479.163940 1107.105591,484.831116 1106.912476,490.488098 
	C1106.873291,491.638947 1105.709839,492.751465 1105.064453,493.881653 
	C1104.050781,492.835510 1102.175049,491.805206 1102.155640,490.740845 
	C1101.941895,479.084534 1101.970093,467.422363 1102.108521,455.763855 
	C1102.119019,454.869629 1103.461670,453.991180 1104.185059,453.105347 
	C1105.118896,454.240112 1106.793335,455.333527 1106.859375,456.516754 
	C1107.156006,461.830811 1106.995605,467.170380 1107.000000,473.000549 
z"/>
<path fill="#F4F4F4" opacity="1.000000" stroke="none" 
	d="
M984.002441,465.137329 
	C984.002441,473.025696 984.002441,480.435669 984.002441,487.845673 
	C983.769592,487.844879 983.536804,487.844086 983.303955,487.843292 
	C983.303955,477.945221 983.303955,468.047180 983.303955,458.149109 
	C983.536804,458.139496 983.769592,458.129852 984.002441,458.120209 
	C984.002441,460.299774 984.002441,462.479340 984.002441,465.137329 
z"/>
<path fill="#FFFFFF" opacity="1.000000" stroke="none" 
	d="
M1124.736328,259.838562 
	C1124.773438,260.438995 1124.628662,260.868896 1124.483887,261.298767 
	C1124.364380,261.184601 1124.125854,261.043091 1124.144775,260.960754 
	C1124.245728,260.521698 1124.411255,260.097443 1124.736328,259.838562 
z"/>
<path fill="#FEFEFE" opacity="1.000000" stroke="none" 
	d="
M470.061035,290.172943 
	C475.409546,276.559723 480.011047,263.030731 486.135986,250.230667 
	C490.822052,240.437546 496.484100,230.907104 505.861877,224.328918 
	C510.963989,220.749985 516.286194,218.607178 522.056396,221.331772 
	C527.965576,224.121979 529.903015,230.272522 529.768738,236.044830 
	C529.573914,244.422607 528.704651,252.977371 526.639343,261.078400 
	C522.490540,277.352081 516.201904,292.919098 508.138672,307.704376 
	C502.240417,318.519745 495.760254,328.879639 485.879456,336.678070 
	C479.017120,342.094116 471.280090,342.537231 468.056427,336.743225 
	C466.135864,333.291290 465.416168,328.904114 465.118988,324.866577 
	C464.255341,313.133057 467.067505,301.824677 470.061035,290.172943 
z"/>
<path fill="#FEFEFE" opacity="1.000000" stroke="none" 
	d="
M749.951050,275.819275 
	C749.156372,274.707672 748.104065,273.267670 748.444153,272.759552 
	C758.037781,258.424133 767.745483,244.164627 777.495911,229.934830 
	C781.517944,224.065079 785.594849,218.228531 789.815247,212.501022 
	C792.101257,209.398727 794.741638,206.557556 797.222168,203.598587 
	C797.707581,203.752441 798.193054,203.906281 798.678467,204.060120 
	C799.432007,209.847488 800.548462,215.614822 800.869385,221.426071 
	C801.747559,237.326828 802.382935,253.242935 802.922485,269.159485 
	C803.146545,275.771698 802.716919,276.011536 796.309265,276.004730 
	C780.986938,275.988464 765.664612,275.952972 749.951050,275.819275 
z"/>
<path fill="#FEFEFE" opacity="1.000000" stroke="none" 
	d="
M1497.037109,261.972382 
	C1487.854736,274.263275 1474.791992,280.135651 1461.492310,285.578979 
	C1460.122192,286.139679 1457.800537,286.184235 1456.840698,285.375763 
	C1456.048828,284.708588 1456.138184,282.238678 1456.659302,280.883881 
	C1463.710815,262.547607 1471.742065,244.695480 1485.468872,230.207123 
	C1488.715820,226.779816 1492.818848,223.957352 1496.963623,221.633377 
	C1503.751709,217.827423 1507.977295,220.474701 1508.035400,228.151184 
	C1508.128784,240.500748 1504.232300,251.591782 1497.037109,261.972382 
z"/>
<path fill="#FEFEFE" opacity="1.000000" stroke="none" 
	d="
M610.440674,471.996521 
	C609.094666,471.355713 607.319397,470.356171 607.413025,470.129944 
	C610.654175,462.296997 614.071777,454.537048 617.464172,446.766693 
	C618.003723,446.830414 618.543274,446.894165 619.082825,446.957886 
	C622.181580,454.937042 625.280334,462.916199 628.807434,471.998322 
	C622.004028,471.998322 616.443359,471.998322 610.440674,471.996521 
z"/>
<path fill="#FEFEFE" opacity="1.000000" stroke="none" 
	d="
M930.584839,456.099243 
	C938.562805,455.982544 945.674744,461.740173 946.368652,468.719696 
	C938.126099,468.719696 929.908875,468.719696 921.680298,468.719696 
	C919.663757,463.831512 922.594543,461.437500 925.824219,459.181305 
	C927.274048,458.168457 928.733093,457.168610 930.584839,456.099243 
z"/>
<path fill="#FEFEFE" opacity="1.000000" stroke="none" 
	d="
M443.316071,481.566254 
	C438.836609,477.252197 439.384949,472.021423 441.385498,467.778473 
	C443.952118,462.335022 447.491180,457.241241 455.257599,457.877045 
	C462.369324,458.459229 468.772675,463.128174 469.961456,469.859253 
	C471.342102,477.676300 466.844788,484.902008 459.999512,487.997284 
	C452.044434,491.594452 447.988525,486.612640 443.316071,481.566254 
z"/>
</svg>