<?xml version="1.0" encoding="UTF-8"?>
<svg id="Layer_1" xmlns="http://www.w3.org/2000/svg" version="1.1" viewBox="0 0 2793.47 1209.55">
  <!-- Generator: Adobe Illustrator 29.0.0, SVG Export Plug-In . SVG Version: 2.1.0 Build 186)  -->
  <defs>
    <style>
      .st0 {
        fill: #474848;
      }

      .st1 {
        fill: #5c5c5c;
      }
    </style>
  </defs>
  <g>
    <path class="st0" d="M1795.93,679.42c-.7-.19-2.34-2.02-1.85-3.13l69.29-241.82c2.45-15.06-10.48-20.94-23.75-19.62-3.24-8.22,10.48-4.95,16.21-5.63,15.07-1.81,30.81-6.36,45.31-10.72l3.26,3.27-46.35,161.73c1.68,2.11,6.77-7.2,7.4-8.28,16.8-29.03,36.2-63,75.04-62.49,35.6.47,26.93,36.75,20.31,59.55-9.21,31.71-25.94,66.46-33.52,97.44-1.89,7.73-5.6,20.35,4.76,23.41,15.8,4.66,28.93-33.01,33.23-44.1,3.15-2.84,5.44-2.43,4.46,1.71-3.19,13.5-16.9,41.39-29.28,48.49-25.5,14.63-51.98,3.52-45.15-28.73,9.55-45.08,37.35-90.59,43.21-136.69-2-15.3-16.97-13.49-27.94-7.63-27.51,14.69-55.28,75.88-65.71,104.84-8.09,22.47-12.96,46.43-21.63,68.41h-27.3Z"/>
    <path class="st0" d="M684.62,679.42c-1.28-.97-1.74-1.41-1.79-3.09-.09-2.93,2.97-12.85,3.92-16.61,11.88-47.14,27.25-93.53,39.5-140.58,1.27-7.24-1.83-15.63-10.2-15.7-16.23-.13-23.86,32.86-28.97,44.78-3.16,7.37-6.74,4.85-4.94-2.19,5.9-23.06,21.73-53.09,49.05-53.3,41.23-.31,9.39,63.28,8.67,83.68-.05,1.51-.87,5.17,1.4,4.81,17.09-34.32,41.4-88.84,86.7-88.74,34.66.07,27.49,35.49,20.78,57.68-9.52,31.48-24.32,64.21-32.73,95.51-1.99,7.39-6.06,17.16-1.03,23.56,10.77,13.71,23.44-6.59,28.06-15.65,2.9-5.69,7.45-21.86,10.09-25.12,3.23-4,4.98-.19,3.55,4.65-6.34,21.5-21.38,50.02-46.49,51.84-28.81,2.09-29.27-21.44-23.48-42.63,9.9-36.2,30.87-79.61,37.49-115.29,3.56-19.18-4.95-31.41-24.11-20-25.55,15.22-56.74,76.83-67.04,104.87-7.26,19.75-11.71,44.08-20.38,62.83-.89,1.92-1.69,3.45-3.48,4.7h-24.57Z"/>
    <path class="st0" d="M346.72,679.42v-4.08c14.92-.99,26.48-3.69,32.48-18.7,14.93-63.24,35.21-125.38,50.13-188.59,4.87-20.63,8.02-35.12-18.95-36.86l-.86-3.38,176.06-.62-22.5,70.85c-1.83.39-3.1-1.21-3.13-3.06-.09-5.37,2.24-13.96,2.45-19.45.62-16.19.57-34.81-17.74-40.9-9.81-3.26-48.11-3.31-59.39-2.05-14.49,1.61-16.79,15.24-20.47,27.28-8.9,29.09-14.54,59.34-23.12,88.53l-1.51,5.57h30.1c14.38,0,26.18-9.8,33.18-21.41,1.98-3.29,10.63-26.83,15.28-22.23-5.84,31.76-16.1,62.84-24.1,94.17-2.5,1.29-4.35,2.05-5.83-.93,2.69-16.74,4.48-38.02-16.15-42.42-6.01-1.28-28.44-1.29-33.68-1.01-1.18.06-1.06.01-1.97,3.56-5.37,17.91-10.04,34.37-14.52,51.63-3.03,11.68-11.15,39.51-5.95,49.62,2.83,5.51,9.06,8.41,14.77,9.8,4.16,1.01,11.14-1.03,11,4.7h-95.57Z"/>
    <path class="st0" d="M1048.57,495.3c-2.07,9.85-4.54,19.44-7.04,29.22-10.18,39.79-25.13,79.84-34.77,119.38-1.62,6.65-4.26,16.13-3.44,22.63.24,1.93,6.03,6.86,7.92,7.23,14.3,2.83,29.44-34.68,31.79-46.16,1.61.22,4.56-1.43,4.08,2.03-.37,2.63-4.89,15.22-6.17,18.4-3.33,8.24-9.05,19.31-15.61,25.29-20.58,18.75-51.77,15.27-49.05-17.61.97-11.72,8.12-22.04,8.01-33.57-11.52,13.84-18.31,31.68-31.37,44.34-26.18,25.37-68.69,27.7-72.35-16.4-3.44-41.42,20.82-94.57,48.43-124.79,17.11-18.73,48.27-42.21,73.73-25.88l9.55,13.61s8.21-17.72,8.22-17.72c9.36,0,18.74.13,28.09,0ZM965.66,508.06c-29.99,29.52-57.48,104.51-53.7,146.11,2.23,24.59,18.6,24.38,34.75,10.21,22.57-19.8,42.07-63.88,50.85-92.4,5.49-17.83,14.64-48.16,4.28-64.88-8.86-14.32-26.13-8.93-36.18.97Z"/>
    <path class="st0" d="M1226.62,679.42c-1.14-.33-2.49-2.62-2.04-4.08,12.86-1.55,21.84-9.15,29.99-18.46l151.63-216.46c8.5-10.37,16.81-26.86,19.05-1.69,5.51,62.01,7.7,124.66,12.29,186.84,1.02,13.75-1.91,32.28,7.74,43.95,4.21,5.09,11.39,4.28,12.75,9.91h-82.6l-1.38-2.73c1.27-1.75,15.53-1.65,21.12-6.19,8.73-7.09,8.59-22.52,8.3-32.73l-3.39-53.36c-4.17-.25-8.57-.53-10.95-.51-25.44.26-51.65,1.06-75.8.75-9.38,13.81-20.93,26.95-29.8,41.15-7.07,11.34-17.88,28.89-9.58,41.79,4.87,7.57,10.58,5.83,17.16,8.77,1.89.84,2.12.16,1.73,3.06h-66.21ZM1320.83,579.86h78.84c3.04-2.5-.09,2.81-.29-.95-1.54-29.14-2.38-72-5.44-100.73-.51-4.8-2.29-5.9-5.61-2.35-5.73,6.14-14.26,18.98-19.63,26.37-17.44,23.97-36.8,52.58-52.9,77.26l5.03.38Z"/>
    <path class="st0" d="M1125.79,672.11c-14.9,15.17-51.23,21.06-54.12-7-1.18-11.43,7.58-40.57,10.99-53.13,16.41-60.35,36.96-119.74,53.07-180.23-1.43-13.75-10-14.55-21.26-16.72-2.19-.42-5.21,1.06-4.56-2.21,2.05-5.26,14.14-3.03,19.41-3.81,14.78-2.17,29.46-6.95,43.94-10.48l1.94,3.05c-19.3,65.59-36.92,131.77-56.43,197.37-4.29,14.41-21.05,54.44-17.79,66.86,3.85,14.66,16.72,6.56,23.14-1.51,9.1-11.43,10.44-24.94,16.9-36.3.78-1.38,1.55-3.58,3.63-3.1l2.88,4.1c-7.06,12.61-11.61,32.81-21.73,43.11Z"/>
    <path class="st0" d="M2228.92,650.3c20.11-20.95,43.52-72.33,44.21-101.2.23-9.72-5.08-7.84-9.95-11.55-13.38-10.19-20.83-17.2-17.08-35.79,2.5-12.41,20.46-12.41,27.03-4.08,15.34,19.45.92,83.95-8.19,106.09-16.83,40.89-64.97,98.39-115.25,76.86-52.19-22.35-.26-107.45,22.41-135.51,8.5-10.52,21.91-19.91,29.4-29.93,1.4-1.87,3.61-3.68,3.33-6.24-17.45,4.31-25.91,16.72-45.56,14.82-15.86-1.53-25.66-15.27-34.27,7.03-2.17,5.62-2.52,14.37-4.46,18.73-.9,2.02-1.38,2.7-3.75,1.68-3.1-2.11-2.09-5.47-1.72-8.49,1.67-13.66,12.54-41.81,25.73-47.96,20.52-9.57,26.91,7.04,40.45,9.78,9.22,1.87,18.78.43,27.02-3.75,4.08-2.07,10.48-9.36,11.99-9.91,2.17-.78,1.81-1.33,3.68,1.03-4.46,6.85-9.96,12.75-14.5,19.58-23.58,35.44-50.09,94.2-46.98,137.29,3.32,46.02,47.08,21.72,66.47,1.52Z"/>
    <path class="st0" d="M2361.04,591.21c-6.35,2.63-12.83,5.01-19.17,7.56-11.58,4.66-11.01,18.6-11.43,29.52-2.06,54.03,33.65,57.5,68.97,26.62,2.82-2.46,11.4-13.45,12.28-13.73.61-.19,3.41-.39,3.38.73-17.69,29.38-55.43,51.23-90.09,39.55-25.49-8.59-28.78-33.88-27.3-57.25,3.18-50.13,55.04-123.53,107.54-129.88,13.31-1.61,33.79-1.16,36.84,15.6,7.55,41.39-38.5,59.82-67.88,75.23-4.26,2.24-8.67,4.21-13.14,6.06ZM2371.96,523.15c-10.43,13.21-17.36,26.68-24.03,42.14-2.4,5.57-9.93,21.72-10.45,26.5-.99,9.06,15.42-.26,19.81-2.15,21.56-9.28,38.12-19.67,48.46-41.6,4.57-9.7,14.98-40.36,5.22-47.95-11.12-8.66-32.56,14.89-39.01,23.07Z"/>
    <path class="st0" d="M1498.99,679.42c-.14-1.95,0-3.86.33-5.8,3.77-21.49,14.33-52.77,20.54-74.95,4.24-15.14,8.89-30.15,13.43-45.2,2.23-7.38,4.43-14.76,6.54-22.17,1.95-6.84,7.36-27.58-6.16-27.61-8.98-.02-16.59,13.8-20.19,20.42-3.84,7.07-6.83,18.64-10.7,24.77-1.22,1.93-3.77,3.72-5.16,2.33-2.42-2.41,14.75-37.45,18.52-42.17,9.06-11.34,28.67-19.99,42.93-14.44,10.84,4.22,10.33,18.98,9.51,28.64-1.4,16.46-10.68,32.29-8.86,48.43,14.98-26.85,30.5-79.16,68.27-79.22,19.16-.03,29.11,15.88,20.86,33.23-6.27,13.18-31.2,15.83-36.88,2-5.4-13.14,14.42-22.33,11.24-26.91-9.81-3.51-18.54,4.76-24.53,11.62-21,24.04-37.4,66.66-47.85,96.76-8.08,23.27-13.96,47.44-22.5,70.26h-29.35Z"/>
    <path class="st0" d="M1775.96,511.51c3.22-5.13-7.96-11.79-12.07-12.84-47.34-12.04-81.19,73.85-85.91,109.28-2.77,20.8-5.58,61.95,22.51,65.88,24.75,3.46,44.1-17.02,58.61-33.96l3.36,2.03c-16.15,23.61-43.97,45.26-74.21,42.8-81.99-6.69-34.9-134.95,7.04-168.88,21.43-17.34,69.29-35.71,89.74-9.62,7.39,9.43,8.84,19.09,4.36,30.29-9.15,22.91-48.83,13.34-34.89-10.3,5.39-9.14,20.76-13.56,21.46-14.68Z"/>
    <path class="st0" d="M2054.16,668.02c9.42-8.81,13.95-25.88,19.5-37.12,2.7-5.47,7.02-5.66,4.46,1.73-5.2,15.04-10.25,30.77-22.76,41.36-22.52,19.06-58.35,13.2-50.61-21.92,10.44-29.09,19.38-58.69,29.39-87.93,4.23-12.36,19.26-42.9,15.79-53.92-2.63-8.36-11.84-6.97-17.82-2.66-14.05,10.13-16.92,31.62-25.93,44.99-1.3-1.07-1.96-1.57-2.11-3.4-.26-3.35,9.48-24.97,11.81-29.16,6.67-11.99,16.18-22.83,30.51-25.44,38.39-7,35.31,23.04,27.75,49.55-9.33,32.73-25.02,66.98-35.15,99.91-2.13,6.92-7.12,19.82-2.74,25.83,5.43,7.46,12.65,3.1,17.91-1.82Z"/>
    <path class="st0" d="M619.26,670.67c4.52-2.95,11.98-16.22,14.68-21.42,2.85-5.48,5.36-15.04,7.94-19.35,1.57-2.62,2.17-2.62,5.19-2.3-6.47,25.91-21.27,60.75-53.77,57.12-22.14-2.48-23.93-19.31-19.23-38,10.53-41.88,31.67-84.8,44.01-126.51,3.36-15.65-9.03-20.37-20.19-10.63-9.96,8.69-18.13,42.62-20.51,44.3-1.56,1.09-5.63-.44-5.4-3.28,6.43-15.52,14.27-42.53,29.76-50.82,19.59-10.48,45.73-9.84,45.45,18.04-.26,25.15-27.14,84.3-36.25,111.16-2.37,6.99-10.05,27.7-10.2,33.54-.29,11.12,9.8,13.84,18.53,8.14Z"/>
    <path class="st0" d="M667,438.83c-13.33,20.14-50.94,11.79-37.93-18.12,13.51-31.04,57.72-11.78,37.93,18.12Z"/>
    <path class="st0" d="M2097.88,441.65c-8.51,8.62-29.77,11.39-36.1-.47-12.57-23.54,20.47-47.51,37.25-30.44,7.45,7.58,6.01,23.66-1.15,30.91Z"/>
  </g>
  <g>
    <path class="st1" d="M786.16,893.13h-8.54v-81.37h52.04v7.91h-43.49v31.15h38.01v7.79h-38.01v34.52Z"/>
    <path class="st1" d="M898.65,832.69c16.65,0,29.25,13.37,29.25,30.69s-12.93,30.92-29.58,30.92-29.25-13.25-29.25-30.57,12.93-31.04,29.58-31.04ZM898.55,886.27c11.94,0,21.14-9.88,21.14-22.78s-9.2-22.67-21.14-22.67-21.25,9.76-21.25,22.67,9.2,22.78,21.25,22.78Z"/>
    <path class="st1" d="M972.26,833.85h7.34l.66,13.37c4.05-9.53,12.05-14.53,22.9-14.53l-.22,8.83h-1.42c-12.93,0-21.03,8.02-21.03,25.46v26.15h-8.22v-59.28Z"/>
    <path class="st1" d="M1128.13,811.77h8.55l32.97,81.37h-9.42l-9.31-23.48h-37.47l-9.42,23.48h-8.98l33.08-81.37ZM1148.18,862.33l-15.99-40.34-16.21,40.34h32.21Z"/>
    <path class="st1" d="M1218.83,811.77v81.37h-8.43v-81.37h8.43Z"/>
    <path class="st1" d="M1276.55,811.77v81.37h-8.43v-81.37h8.43Z"/>
    <path class="st1" d="M1385.21,811.77h53.13v7.91h-44.59v27.31h39.11v7.44h-39.11v30.8h45.68v7.9h-54.23v-81.37Z"/>
    <path class="st1" d="M1489.82,874.77v-33.82h-11.5v-7.09h11.5v-15.11h8.22v15.11h21.91v7.09h-21.91v32.55c0,8.6,4.6,12.79,10.95,12.79,5.26,0,9.75-1.74,9.75-1.74l1.2,7.32s-4.27,2.44-12.27,2.44c-10.85,0-17.86-6.63-17.86-19.53Z"/>
    <path class="st1" d="M1557.73,863.72c0-17.32,12.82-31.04,29.47-31.04,14.9,0,27.06,13.14,27.06,29.18,0,1.39-.22,2.21-.22,2.21h-47.98c.33,13.37,9.42,22.43,21.36,22.43,13.36,0,19.28-10.81,19.28-10.81l5.26,4.53s-7.34,14.06-24.98,14.06c-16.65,0-29.25-13.25-29.25-30.57ZM1606.04,857.91c-1.42-10.23-9.53-18.13-19.06-18.13-10.52,0-18.84,7.67-20.7,18.13h39.77Z"/>
    <path class="st1" d="M1658.39,833.85h7.34l.66,13.37c4.05-9.53,12.05-14.53,22.9-14.53l-.22,8.83h-1.42c-12.93,0-21.03,8.02-21.03,25.46v26.15h-8.22v-59.28Z"/>
    <path class="st1" d="M1731.45,893.13v-59.28h7.34l.55,11.51c4.16-8.49,11.83-12.67,20.7-12.67,11.83,0,21.8,8.83,21.8,26.97v33.48h-8.21v-30.57c0-15.46-7.56-21.74-15.99-21.74-9.64,0-17.97,6.39-17.97,23.48v28.83h-8.22Z"/>
    <path class="st1" d="M1833.87,810.84c3.29,0,5.91,2.67,5.91,6.04s-2.63,5.93-5.91,5.93-5.92-2.56-5.92-5.93,2.52-6.04,5.92-6.04ZM1838.03,833.85v59.28h-8.43v-59.28h8.43Z"/>
    <path class="st1" d="M1891.71,874.77v-33.82h-11.5v-7.09h11.5v-15.11h8.22v15.11h21.91v7.09h-21.91v32.55c0,8.6,4.6,12.79,10.95,12.79,5.26,0,9.75-1.74,9.75-1.74l1.2,7.32s-4.27,2.44-12.27,2.44c-10.85,0-17.86-6.63-17.86-19.53Z"/>
    <path class="st1" d="M1965.53,833.85l18.73,49.28,18.84-49.28h8.87l-23.99,59.86c-4.82,12.09-11.94,19.18-21.47,19.18-6.9,0-10.19-2.56-10.19-2.56l2.74-6.86s2.3,1.63,6.9,1.63c5.91,0,10.62-4.3,14.02-12.32l-23.66-58.93h9.2Z"/>
  </g>
</svg>