<svg xmlns="http://www.w3.org/2000/svg" xmlns:xlink="http://www.w3.org/1999/xlink" width="1600" zoomAndPan="magnify" viewBox="0 0 1200 446.999989" height="596" preserveAspectRatio="xMidYMid meet" version="1.0"><defs><g/></defs><g fill="#6b6b6b" fill-opacity="1"><g transform="translate(52.291506, 204.61323)"><g><path d="M 53.96875 -66.15625 L 57.46875 -49.53125 L 57.09375 -49.34375 C 54.695312 -52.863281 52.519531 -55.757812 50.5625 -58.03125 C 48.613281 -60.300781 46.394531 -61.972656 43.90625 -63.046875 C 41.414062 -64.117188 38.125 -64.65625 34.03125 -64.65625 L 21.546875 -64.65625 L 21.546875 -32.890625 L 30.34375 -32.890625 C 34.25 -32.890625 37.414062 -33.21875 39.84375 -33.875 C 42.269531 -34.539062 44.175781 -35.691406 45.5625 -37.328125 C 46.945312 -38.972656 48.015625 -41.242188 48.765625 -44.140625 L 48.765625 -20.21875 C 48.015625 -23.125 46.945312 -25.378906 45.5625 -26.984375 C 44.175781 -28.585938 42.269531 -29.71875 39.84375 -30.375 C 37.414062 -31.039062 34.25 -31.375 30.34375 -31.375 L 21.546875 -31.375 L 21.546875 -5.390625 C 21.546875 -3.679688 22.253906 -2.492188 23.671875 -1.828125 C 25.085938 -1.171875 26.773438 -0.71875 28.734375 -0.46875 L 28.734375 0 L 1.421875 0 L 1.421875 -0.46875 C 3.367188 -1.164062 5.050781 -2.046875 6.46875 -3.109375 C 7.882812 -4.179688 8.59375 -5.570312 8.59375 -7.28125 L 8.59375 -60.78125 C 8.59375 -62.476562 7.882812 -63.65625 6.46875 -64.3125 C 5.050781 -64.976562 3.367188 -65.4375 1.421875 -65.6875 L 1.421875 -66.15625 Z M 53.96875 -66.15625 "/></g></g></g><g fill="#6b6b6b" fill-opacity="1"><g transform="translate(125.538792, 204.61323)"><g><path d="M 12.28125 -53.3125 C 10.332031 -53.3125 8.695312 -53.988281 7.375 -55.34375 C 6.050781 -56.695312 5.390625 -58.347656 5.390625 -60.296875 C 5.390625 -62.253906 6.050781 -63.894531 7.375 -65.21875 C 8.695312 -66.539062 10.332031 -67.203125 12.28125 -67.203125 C 14.238281 -67.203125 15.878906 -66.539062 17.203125 -65.21875 C 18.523438 -63.894531 19.1875 -62.253906 19.1875 -60.296875 C 19.1875 -58.347656 18.523438 -56.695312 17.203125 -55.34375 C 15.878906 -53.988281 14.238281 -53.3125 12.28125 -53.3125 Z M 6.140625 0 L 6.703125 -6.515625 L 6.703125 -42.8125 C 6.078125 -43.257812 5.210938 -43.640625 4.109375 -43.953125 C 3.003906 -44.265625 1.945312 -44.453125 0.9375 -44.515625 L 0.9375 -44.890625 L 19.1875 -46.3125 L 18.71875 -39.3125 L 18.71875 -8.796875 C 18.71875 -6.273438 18.984375 -4.414062 19.515625 -3.21875 C 20.054688 -2.019531 21.019531 -0.945312 22.40625 0 Z M 6.140625 0 "/></g></g></g><g fill="#6b6b6b" fill-opacity="1"><g transform="translate(164.667341, 204.61323)"><g><path d="M 40.453125 0 L 41.015625 -6.515625 L 41.015625 -29.015625 C 41.015625 -32.546875 40.632812 -35.253906 39.875 -37.140625 C 39.125 -39.035156 38.132812 -40.328125 36.90625 -41.015625 C 35.675781 -41.710938 34.304688 -42.0625 32.796875 -42.0625 C 29.898438 -42.0625 27.285156 -41.320312 24.953125 -39.84375 C 22.617188 -38.363281 20.539062 -36.957031 18.71875 -35.625 L 18.71875 -8.796875 C 18.71875 -6.273438 18.984375 -4.414062 19.515625 -3.21875 C 20.054688 -2.019531 21.019531 -0.945312 22.40625 0 L 6.140625 0 L 6.703125 -6.515625 L 6.703125 -42.8125 C 6.078125 -43.257812 5.210938 -43.640625 4.109375 -43.953125 C 3.003906 -44.265625 1.945312 -44.453125 0.9375 -44.515625 L 0.9375 -44.890625 L 19.1875 -46.3125 L 18.71875 -39.3125 L 18.71875 -37.90625 C 20.164062 -38.90625 21.925781 -40.066406 24 -41.390625 C 26.082031 -42.710938 28.398438 -43.878906 30.953125 -44.890625 C 33.503906 -45.898438 36.195312 -46.40625 39.03125 -46.40625 C 40.539062 -46.40625 42.097656 -46.164062 43.703125 -45.6875 C 45.316406 -45.21875 46.832031 -44.367188 48.25 -43.140625 C 49.664062 -41.910156 50.8125 -40.175781 51.6875 -37.9375 C 52.570312 -35.707031 53.015625 -32.796875 53.015625 -29.203125 L 53.015625 -8.796875 C 53.015625 -6.273438 53.28125 -4.414062 53.8125 -3.21875 C 54.351562 -2.019531 55.316406 -0.945312 56.703125 0 Z M 40.453125 0 "/></g></g></g><g fill="#6b6b6b" fill-opacity="1"><g transform="translate(237.158505, 204.61323)"><g><path d="M 52.078125 -7.75 C 52.078125 -5.226562 52.34375 -3.398438 52.875 -2.265625 C 53.414062 -1.128906 54.378906 -0.09375 55.765625 0.84375 L 55.765625 1.140625 L 37.71875 -1.796875 C 37.71875 -1.796875 37.734375 -1.796875 37.765625 -1.796875 C 37.796875 -1.796875 37.8125 -1.828125 37.8125 -1.890625 C 36.289062 -1.066406 34.582031 -0.4375 32.6875 0 C 30.800781 0.4375 28.757812 0.65625 26.5625 0.65625 C 21.957031 0.65625 17.953125 -0.222656 14.546875 -1.984375 C 11.148438 -3.742188 8.503906 -6.242188 6.609375 -9.484375 C 4.722656 -12.734375 3.78125 -16.535156 3.78125 -20.890625 C 3.78125 -25.484375 4.863281 -29.71875 7.03125 -33.59375 C 9.207031 -37.46875 12.484375 -40.570312 16.859375 -42.90625 C 21.242188 -45.238281 26.773438 -46.40625 33.453125 -46.40625 C 36.484375 -46.40625 39.585938 -46.117188 42.765625 -45.546875 C 45.953125 -44.984375 49.054688 -44.101562 52.078125 -42.90625 Z M 15.78125 -26.375 C 15.78125 -21.832031 16.503906 -17.75 17.953125 -14.125 C 19.398438 -10.507812 21.398438 -7.644531 23.953125 -5.53125 C 26.503906 -3.414062 29.359375 -2.359375 32.515625 -2.359375 C 35.472656 -2.359375 37.929688 -3.429688 39.890625 -5.578125 C 39.953125 -6.078125 40 -6.59375 40.03125 -7.125 C 40.0625 -7.664062 40.078125 -8.285156 40.078125 -8.984375 L 40.078125 -39.5 C 38.628906 -41.144531 37.019531 -42.40625 35.25 -43.28125 C 33.488281 -44.164062 31.472656 -44.609375 29.203125 -44.609375 C 24.796875 -44.609375 21.457031 -42.9375 19.1875 -39.59375 C 16.914062 -36.257812 15.78125 -31.851562 15.78125 -26.375 Z M 15.78125 -26.375 "/></g></g></g><g fill="#6b6b6b" fill-opacity="1"><g transform="translate(310.122253, 204.61323)"><g><path d="M 19.5625 -9.171875 C 19.5625 -6.648438 19.875 -4.679688 20.5 -3.265625 C 21.132812 -1.847656 22.617188 -0.882812 24.953125 -0.375 L 24.953125 0 L 6.703125 0 L 7.5625 -5.859375 L 7.5625 -62.09375 C 7.5625 -63.988281 6.898438 -64.9375 5.578125 -64.9375 C 4.253906 -64.9375 2.082031 -64.492188 -0.9375 -63.609375 L -0.9375 -64.171875 L 20.03125 -74 L 19.5625 -69.75 Z M 19.5625 -9.171875 "/></g></g></g><g fill="#6b6b6b" fill-opacity="1"><g transform="translate(350.384946, 204.61323)"><g/></g></g><g fill="#6b6b6b" fill-opacity="1"><g transform="translate(383.181194, 204.61323)"><g><path d="M 67.203125 -11.90625 C 68.335938 -9.007812 69.34375 -6.753906 70.21875 -5.140625 C 71.101562 -3.535156 72.035156 -2.382812 73.015625 -1.6875 C 73.992188 -1 75.175781 -0.5625 76.5625 -0.375 L 76.5625 0 L 46.6875 0 L 46.6875 -0.375 C 48.894531 -0.5625 50.722656 -0.984375 52.171875 -1.640625 C 53.617188 -2.304688 54.53125 -3.394531 54.90625 -4.90625 C 55.289062 -6.425781 54.914062 -8.570312 53.78125 -11.34375 L 51.890625 -16.0625 L 15.78125 -16.0625 L 13.703125 -11.34375 C 12.503906 -8.632812 12.0625 -6.554688 12.375 -5.109375 C 12.695312 -3.660156 13.488281 -2.601562 14.75 -1.9375 C 16.007812 -1.269531 17.519531 -0.75 19.28125 -0.375 L 19.28125 0 L 1.890625 0 L 1.890625 -0.375 C 3.210938 -0.75 4.394531 -1.285156 5.4375 -1.984375 C 6.476562 -2.679688 7.484375 -3.753906 8.453125 -5.203125 C 9.429688 -6.648438 10.488281 -8.726562 11.625 -11.4375 L 32.328125 -59.171875 L 32.140625 -61.90625 L 33.9375 -62.953125 L 45.078125 -68.90625 C 45.078125 -68.65625 45.1875 -68.101562 45.40625 -67.25 C 45.632812 -66.394531 46.25 -64.738281 47.25 -62.28125 Z M 16.453125 -17.765625 L 51.234375 -17.765625 L 34.5 -59.453125 Z M 16.453125 -17.765625 "/></g></g></g><g fill="#6b6b6b" fill-opacity="1"><g transform="translate(475.519856, 204.61323)"><g><path d="M 33.9375 -46.3125 C 35.820312 -46.3125 37.550781 -45.929688 39.125 -45.171875 L 29.671875 -29.484375 L 29.296875 -29.484375 C 30.367188 -32.316406 30.554688 -34.726562 29.859375 -36.71875 C 29.171875 -38.707031 27.945312 -39.703125 26.1875 -39.703125 C 24.039062 -39.703125 22.351562 -38.488281 21.125 -36.0625 C 19.894531 -33.632812 19.09375 -30.78125 18.71875 -27.5 L 18.71875 -8.796875 C 18.71875 -6.273438 18.984375 -4.414062 19.515625 -3.21875 C 20.054688 -2.019531 21.019531 -0.945312 22.40625 0 L 6.234375 0 L 6.703125 -6.515625 L 6.703125 -42.8125 C 6.078125 -43.257812 5.210938 -43.640625 4.109375 -43.953125 C 3.003906 -44.265625 1.945312 -44.453125 0.9375 -44.515625 L 0.9375 -44.890625 L 19.1875 -46.3125 L 18.71875 -39.3125 L 18.71875 -36.296875 L 19.9375 -36.296875 C 21.007812 -39.316406 22.773438 -41.738281 25.234375 -43.5625 C 27.691406 -45.394531 30.59375 -46.3125 33.9375 -46.3125 Z M 33.9375 -46.3125 "/></g></g></g><g fill="#6b6b6b" fill-opacity="1"><g transform="translate(526.178728, 204.61323)"><g><path d="M 29.109375 0.65625 C 24.128906 0.65625 19.734375 -0.316406 15.921875 -2.265625 C 12.109375 -4.222656 9.128906 -6.914062 6.984375 -10.34375 C 4.847656 -13.78125 3.78125 -17.769531 3.78125 -22.3125 C 3.78125 -27.34375 5.039062 -31.65625 7.5625 -35.25 C 10.082031 -38.84375 13.421875 -41.597656 17.578125 -43.515625 C 21.734375 -45.441406 26.269531 -46.40625 31.1875 -46.40625 C 35.34375 -46.40625 38.835938 -45.773438 41.671875 -44.515625 C 44.515625 -43.253906 46.660156 -41.773438 48.109375 -40.078125 L 38.65625 -25.890625 L 38.46875 -25.890625 C 39.914062 -30.179688 40.242188 -33.726562 39.453125 -36.53125 C 38.671875 -39.332031 37.269531 -41.441406 35.25 -42.859375 C 33.238281 -44.273438 31.066406 -44.984375 28.734375 -44.984375 C 26.523438 -44.984375 24.441406 -44.351562 22.484375 -43.09375 C 20.535156 -41.832031 18.976562 -39.925781 17.8125 -37.375 C 16.644531 -34.820312 16.0625 -31.59375 16.0625 -27.6875 C 16.0625 -23.28125 16.863281 -19.28125 18.46875 -15.6875 C 20.082031 -12.09375 22.335938 -9.238281 25.234375 -7.125 C 28.128906 -5.019531 31.5 -3.96875 35.34375 -3.96875 C 37.300781 -3.96875 39.460938 -4.328125 41.828125 -5.046875 C 44.191406 -5.773438 46.097656 -7.054688 47.546875 -8.890625 L 48.015625 -8.5 C 46.628906 -5.976562 44.34375 -3.820312 41.15625 -2.03125 C 37.976562 -0.238281 33.960938 0.65625 29.109375 0.65625 Z M 29.109375 0.65625 "/></g></g></g><g fill="#6b6b6b" fill-opacity="1"><g transform="translate(590.541898, 204.61323)"><g><path d="M 41.296875 0 L 41.875 -6.515625 L 41.875 -29.015625 C 41.875 -32.546875 41.492188 -35.253906 40.734375 -37.140625 C 39.984375 -39.035156 38.992188 -40.328125 37.765625 -41.015625 C 36.535156 -41.710938 35.160156 -42.0625 33.640625 -42.0625 C 30.742188 -42.0625 28.128906 -41.320312 25.796875 -39.84375 C 23.472656 -38.363281 21.394531 -36.992188 19.5625 -35.734375 L 19.5625 -9.171875 C 19.5625 -6.648438 19.875 -4.679688 20.5 -3.265625 C 21.132812 -1.847656 22.617188 -0.882812 24.953125 -0.375 L 24.953125 0 L 6.703125 0 L 7.5625 -5.859375 L 7.5625 -62.09375 C 7.5625 -63.988281 6.898438 -64.9375 5.578125 -64.9375 C 4.253906 -64.9375 2.082031 -64.492188 -0.9375 -63.609375 L -0.9375 -64.171875 L 20.03125 -74 L 19.5625 -69.75 L 19.5625 -38 C 21.070312 -39 22.867188 -40.160156 24.953125 -41.484375 C 27.035156 -42.816406 29.351562 -43.96875 31.90625 -44.9375 C 34.457031 -45.914062 37.117188 -46.40625 39.890625 -46.40625 C 41.398438 -46.40625 42.957031 -46.164062 44.5625 -45.6875 C 46.164062 -45.21875 47.675781 -44.367188 49.09375 -43.140625 C 50.519531 -41.910156 51.671875 -40.175781 52.546875 -37.9375 C 53.429688 -35.707031 53.875 -32.796875 53.875 -29.203125 L 53.875 -8.796875 C 53.875 -6.273438 54.140625 -4.414062 54.671875 -3.21875 C 55.210938 -2.019531 56.175781 -0.945312 57.5625 0 Z M 41.296875 0 "/></g></g></g><g fill="#6b6b6b" fill-opacity="1"><g transform="translate(664.828788, 204.61323)"><g><path d="M 12.28125 -53.3125 C 10.332031 -53.3125 8.695312 -53.988281 7.375 -55.34375 C 6.050781 -56.695312 5.390625 -58.347656 5.390625 -60.296875 C 5.390625 -62.253906 6.050781 -63.894531 7.375 -65.21875 C 8.695312 -66.539062 10.332031 -67.203125 12.28125 -67.203125 C 14.238281 -67.203125 15.878906 -66.539062 17.203125 -65.21875 C 18.523438 -63.894531 19.1875 -62.253906 19.1875 -60.296875 C 19.1875 -58.347656 18.523438 -56.695312 17.203125 -55.34375 C 15.878906 -53.988281 14.238281 -53.3125 12.28125 -53.3125 Z M 6.140625 0 L 6.703125 -6.515625 L 6.703125 -42.8125 C 6.078125 -43.257812 5.210938 -43.640625 4.109375 -43.953125 C 3.003906 -44.265625 1.945312 -44.453125 0.9375 -44.515625 L 0.9375 -44.890625 L 19.1875 -46.3125 L 18.71875 -39.3125 L 18.71875 -8.796875 C 18.71875 -6.273438 18.984375 -4.414062 19.515625 -3.21875 C 20.054688 -2.019531 21.019531 -0.945312 22.40625 0 Z M 6.140625 0 "/></g></g></g><g fill="#6b6b6b" fill-opacity="1"><g transform="translate(704.71346, 204.61323)"><g><path d="M 36.953125 -45.84375 L 51.328125 -45.84375 L 51.328125 -45.46875 C 50.316406 -45.082031 49.367188 -44.539062 48.484375 -43.84375 C 47.597656 -43.15625 46.695312 -42.085938 45.78125 -40.640625 C 44.875 -39.191406 43.789062 -37.113281 42.53125 -34.40625 L 26.375 1.140625 L 25.796875 1.140625 L 6.234375 -39.40625 L 2.359375 -45.84375 L 25.140625 -45.84375 L 25.140625 -45.46875 C 23.566406 -45.269531 22.164062 -44.820312 20.9375 -44.125 C 19.707031 -43.4375 18.96875 -42.335938 18.71875 -40.828125 C 18.46875 -39.316406 18.96875 -37.207031 20.21875 -34.5 L 30.8125 -12.671875 L 40.734375 -34.5 C 41.929688 -37.207031 42.40625 -39.285156 42.15625 -40.734375 C 41.90625 -42.179688 41.257812 -43.234375 40.21875 -43.890625 C 39.175781 -44.554688 38.085938 -45.082031 36.953125 -45.46875 Z M 36.953125 -45.84375 "/></g></g></g><g fill="#6b6b6b" fill-opacity="1"><g transform="translate(766.146576, 204.61323)"><g><path d="M 49.25 -9.265625 L 49.71875 -8.890625 C 48.332031 -6.242188 45.828125 -3.988281 42.203125 -2.125 C 38.578125 -0.269531 34.242188 0.65625 29.203125 0.65625 C 24.160156 0.65625 19.734375 -0.300781 15.921875 -2.21875 C 12.109375 -4.144531 9.128906 -6.835938 6.984375 -10.296875 C 4.847656 -13.765625 3.78125 -17.738281 3.78125 -22.21875 C 3.78125 -25.988281 4.519531 -29.367188 6 -32.359375 C 7.476562 -35.359375 9.507812 -37.894531 12.09375 -39.96875 C 14.675781 -42.050781 17.585938 -43.644531 20.828125 -44.75 C 24.078125 -45.851562 27.46875 -46.40625 31 -46.40625 C 35.09375 -46.40625 38.445312 -45.726562 41.0625 -44.375 C 43.675781 -43.019531 45.597656 -41.347656 46.828125 -39.359375 C 48.054688 -37.378906 48.640625 -35.378906 48.578125 -33.359375 C 48.515625 -31.347656 47.835938 -29.664062 46.546875 -28.3125 C 45.253906 -26.957031 43.410156 -26.28125 41.015625 -26.28125 L 16.0625 -26.28125 C 16.125 -21.800781 16.957031 -17.890625 18.5625 -14.546875 C 20.175781 -11.210938 22.414062 -8.613281 25.28125 -6.75 C 28.144531 -4.894531 31.46875 -3.96875 35.25 -3.96875 C 36.757812 -3.96875 38.410156 -4.140625 40.203125 -4.484375 C 42.003906 -4.835938 43.722656 -5.40625 45.359375 -6.1875 C 47.003906 -6.976562 48.300781 -8.003906 49.25 -9.265625 Z M 27.875 -44.890625 C 24.664062 -44.890625 21.941406 -43.378906 19.703125 -40.359375 C 17.460938 -37.335938 16.25 -33.175781 16.0625 -27.875 L 35.0625 -28.078125 C 36.320312 -28.078125 37.234375 -28.640625 37.796875 -29.765625 C 38.367188 -30.898438 38.59375 -32.300781 38.46875 -33.96875 C 38.34375 -35.644531 37.851562 -37.316406 37 -38.984375 C 36.15625 -40.660156 34.972656 -42.0625 33.453125 -43.1875 C 31.941406 -44.320312 30.082031 -44.890625 27.875 -44.890625 Z M 27.875 -44.890625 "/></g></g></g><g fill="#6b6b6b" fill-opacity="1"><g transform="translate(831.832958, 204.61323)"><g><path d="M 84.03125 -65.6875 C 82.070312 -65.4375 80.382812 -64.976562 78.96875 -64.3125 C 77.550781 -63.65625 76.84375 -62.476562 76.84375 -60.78125 L 76.84375 -5.390625 C 76.84375 -3.679688 77.550781 -2.492188 78.96875 -1.828125 C 80.382812 -1.171875 82.070312 -0.71875 84.03125 -0.46875 L 84.03125 0 L 56.703125 0 L 56.703125 -0.46875 C 58.660156 -0.71875 60.347656 -1.171875 61.765625 -1.828125 C 63.179688 -2.492188 63.890625 -3.679688 63.890625 -5.390625 L 63.890625 -61.25 L 37.515625 1.046875 L 10.484375 -52.921875 L 10.484375 -16.734375 C 10.484375 -12.441406 10.8125 -9.144531 11.46875 -6.84375 C 12.132812 -4.550781 13.019531 -2.960938 14.125 -2.078125 C 15.226562 -1.191406 16.410156 -0.65625 17.671875 -0.46875 L 17.671875 0 L 1.421875 0 L 1.421875 -0.46875 C 2.742188 -0.65625 3.9375 -1.03125 5 -1.59375 C 6.070312 -2.164062 6.9375 -3.441406 7.59375 -5.421875 C 8.257812 -7.410156 8.59375 -10.550781 8.59375 -14.84375 L 8.59375 -56.703125 C 7.71875 -58.535156 6.726562 -60.191406 5.625 -61.671875 C 4.519531 -63.148438 2.957031 -64.644531 0.9375 -66.15625 L 17.578125 -66.15625 L 42.71875 -15.96875 L 63.890625 -66.15625 L 84.03125 -66.15625 Z M 84.03125 -65.6875 "/></g></g></g><g fill="#6b6b6b" fill-opacity="1"><g transform="translate(929.747777, 204.61323)"><g><path d="M 49.25 -9.265625 L 49.71875 -8.890625 C 48.332031 -6.242188 45.828125 -3.988281 42.203125 -2.125 C 38.578125 -0.269531 34.242188 0.65625 29.203125 0.65625 C 24.160156 0.65625 19.734375 -0.300781 15.921875 -2.21875 C 12.109375 -4.144531 9.128906 -6.835938 6.984375 -10.296875 C 4.847656 -13.765625 3.78125 -17.738281 3.78125 -22.21875 C 3.78125 -25.988281 4.519531 -29.367188 6 -32.359375 C 7.476562 -35.359375 9.507812 -37.894531 12.09375 -39.96875 C 14.675781 -42.050781 17.585938 -43.644531 20.828125 -44.75 C 24.078125 -45.851562 27.46875 -46.40625 31 -46.40625 C 35.09375 -46.40625 38.445312 -45.726562 41.0625 -44.375 C 43.675781 -43.019531 45.597656 -41.347656 46.828125 -39.359375 C 48.054688 -37.378906 48.640625 -35.378906 48.578125 -33.359375 C 48.515625 -31.347656 47.835938 -29.664062 46.546875 -28.3125 C 45.253906 -26.957031 43.410156 -26.28125 41.015625 -26.28125 L 16.0625 -26.28125 C 16.125 -21.800781 16.957031 -17.890625 18.5625 -14.546875 C 20.175781 -11.210938 22.414062 -8.613281 25.28125 -6.75 C 28.144531 -4.894531 31.46875 -3.96875 35.25 -3.96875 C 36.757812 -3.96875 38.410156 -4.140625 40.203125 -4.484375 C 42.003906 -4.835938 43.722656 -5.40625 45.359375 -6.1875 C 47.003906 -6.976562 48.300781 -8.003906 49.25 -9.265625 Z M 27.875 -44.890625 C 24.664062 -44.890625 21.941406 -43.378906 19.703125 -40.359375 C 17.460938 -37.335938 16.25 -33.175781 16.0625 -27.875 L 35.0625 -28.078125 C 36.320312 -28.078125 37.234375 -28.640625 37.796875 -29.765625 C 38.367188 -30.898438 38.59375 -32.300781 38.46875 -33.96875 C 38.34375 -35.644531 37.851562 -37.316406 37 -38.984375 C 36.15625 -40.660156 34.972656 -42.0625 33.453125 -43.1875 C 31.941406 -44.320312 30.082031 -44.890625 27.875 -44.890625 Z M 27.875 -44.890625 "/></g></g></g><g fill="#6b6b6b" fill-opacity="1"><g transform="translate(995.434113, 204.61323)"><g><path d="M 52.078125 -7.75 C 52.078125 -5.226562 52.34375 -3.398438 52.875 -2.265625 C 53.414062 -1.128906 54.378906 -0.09375 55.765625 0.84375 L 55.765625 1.140625 L 37.71875 -1.796875 C 37.71875 -1.796875 37.734375 -1.796875 37.765625 -1.796875 C 37.796875 -1.796875 37.8125 -1.828125 37.8125 -1.890625 C 36.289062 -1.066406 34.582031 -0.4375 32.6875 0 C 30.800781 0.4375 28.757812 0.65625 26.5625 0.65625 C 21.957031 0.65625 17.953125 -0.222656 14.546875 -1.984375 C 11.148438 -3.742188 8.503906 -6.242188 6.609375 -9.484375 C 4.722656 -12.734375 3.78125 -16.535156 3.78125 -20.890625 C 3.78125 -25.484375 4.863281 -29.71875 7.03125 -33.59375 C 9.207031 -37.46875 12.484375 -40.570312 16.859375 -42.90625 C 21.242188 -45.238281 26.773438 -46.40625 33.453125 -46.40625 C 34.523438 -46.40625 35.613281 -46.359375 36.71875 -46.265625 C 37.820312 -46.171875 38.941406 -46.0625 40.078125 -45.9375 L 40.078125 -62.09375 C 40.078125 -63.988281 39.414062 -64.9375 38.09375 -64.9375 C 36.769531 -64.9375 34.59375 -64.492188 31.5625 -63.609375 L 31.5625 -64.171875 L 52.546875 -74 L 52.078125 -69.75 Z M 15.78125 -26.375 C 15.78125 -21.832031 16.503906 -17.75 17.953125 -14.125 C 19.398438 -10.507812 21.398438 -7.644531 23.953125 -5.53125 C 26.503906 -3.414062 29.359375 -2.359375 32.515625 -2.359375 C 35.472656 -2.359375 37.929688 -3.429688 39.890625 -5.578125 C 39.953125 -6.078125 40 -6.59375 40.03125 -7.125 C 40.0625 -7.664062 40.078125 -8.285156 40.078125 -8.984375 L 40.078125 -39.5 C 38.628906 -41.144531 37.019531 -42.40625 35.25 -43.28125 C 33.488281 -44.164062 31.472656 -44.609375 29.203125 -44.609375 C 24.796875 -44.609375 21.457031 -42.9375 19.1875 -39.59375 C 16.914062 -36.257812 15.78125 -31.851562 15.78125 -26.375 Z M 15.78125 -26.375 "/></g></g></g><g fill="#6b6b6b" fill-opacity="1"><g transform="translate(1068.397884, 204.61323)"><g><path d="M 12.28125 -53.3125 C 10.332031 -53.3125 8.695312 -53.988281 7.375 -55.34375 C 6.050781 -56.695312 5.390625 -58.347656 5.390625 -60.296875 C 5.390625 -62.253906 6.050781 -63.894531 7.375 -65.21875 C 8.695312 -66.539062 10.332031 -67.203125 12.28125 -67.203125 C 14.238281 -67.203125 15.878906 -66.539062 17.203125 -65.21875 C 18.523438 -63.894531 19.1875 -62.253906 19.1875 -60.296875 C 19.1875 -58.347656 18.523438 -56.695312 17.203125 -55.34375 C 15.878906 -53.988281 14.238281 -53.3125 12.28125 -53.3125 Z M 6.140625 0 L 6.703125 -6.515625 L 6.703125 -42.8125 C 6.078125 -43.257812 5.210938 -43.640625 4.109375 -43.953125 C 3.003906 -44.265625 1.945312 -44.453125 0.9375 -44.515625 L 0.9375 -44.890625 L 19.1875 -46.3125 L 18.71875 -39.3125 L 18.71875 -8.796875 C 18.71875 -6.273438 18.984375 -4.414062 19.515625 -3.21875 C 20.054688 -2.019531 21.019531 -0.945312 22.40625 0 Z M 6.140625 0 "/></g></g></g><g fill="#6b6b6b" fill-opacity="1"><g transform="translate(1106.581231, 204.61323)"><g><path d="M 52.078125 -7.75 C 52.078125 -5.226562 52.34375 -3.398438 52.875 -2.265625 C 53.414062 -1.128906 54.378906 -0.09375 55.765625 0.84375 L 55.765625 1.140625 L 37.71875 -1.796875 C 37.71875 -1.796875 37.734375 -1.796875 37.765625 -1.796875 C 37.796875 -1.796875 37.8125 -1.828125 37.8125 -1.890625 C 36.289062 -1.066406 34.582031 -0.4375 32.6875 0 C 30.800781 0.4375 28.757812 0.65625 26.5625 0.65625 C 21.957031 0.65625 17.953125 -0.222656 14.546875 -1.984375 C 11.148438 -3.742188 8.503906 -6.242188 6.609375 -9.484375 C 4.722656 -12.734375 3.78125 -16.535156 3.78125 -20.890625 C 3.78125 -25.484375 4.863281 -29.71875 7.03125 -33.59375 C 9.207031 -37.46875 12.484375 -40.570312 16.859375 -42.90625 C 21.242188 -45.238281 26.773438 -46.40625 33.453125 -46.40625 C 36.484375 -46.40625 39.585938 -46.117188 42.765625 -45.546875 C 45.953125 -44.984375 49.054688 -44.101562 52.078125 -42.90625 Z M 15.78125 -26.375 C 15.78125 -21.832031 16.503906 -17.75 17.953125 -14.125 C 19.398438 -10.507812 21.398438 -7.644531 23.953125 -5.53125 C 26.503906 -3.414062 29.359375 -2.359375 32.515625 -2.359375 C 35.472656 -2.359375 37.929688 -3.429688 39.890625 -5.578125 C 39.953125 -6.078125 40 -6.59375 40.03125 -7.125 C 40.0625 -7.664062 40.078125 -8.285156 40.078125 -8.984375 L 40.078125 -39.5 C 38.628906 -41.144531 37.019531 -42.40625 35.25 -43.28125 C 33.488281 -44.164062 31.472656 -44.609375 29.203125 -44.609375 C 24.796875 -44.609375 21.457031 -42.9375 19.1875 -39.59375 C 16.914062 -36.257812 15.78125 -31.851562 15.78125 -26.375 Z M 15.78125 -26.375 "/></g></g></g><g fill="#6b6b6b" fill-opacity="1"><g transform="translate(227.97183, 334.039547)"><g><path d="M 36.859375 -49.890625 L 36.859375 -45.046875 L 13.40625 -45.046875 L 13.40625 -26.890625 L 34.5 -26.890625 L 34.5 -22.015625 L 13.40625 -22.015625 L 13.40625 0 L 7.546875 0 L 7.546875 -49.890625 Z M 36.859375 -49.890625 "/></g></g></g><g fill="#6b6b6b" fill-opacity="1"><g transform="translate(284.334196, 334.039547)"><g><path d="M 21.609375 0.71875 C 18.054688 0.71875 14.960938 -0.03125 12.328125 -1.53125 C 9.703125 -3.03125 7.675781 -5.242188 6.25 -8.171875 C 4.832031 -11.097656 4.125 -14.640625 4.125 -18.796875 C 4.125 -22.960938 4.832031 -26.515625 6.25 -29.453125 C 7.675781 -32.390625 9.703125 -34.609375 12.328125 -36.109375 C 14.960938 -37.609375 18.054688 -38.359375 21.609375 -38.359375 C 25.148438 -38.359375 28.234375 -37.609375 30.859375 -36.109375 C 33.492188 -34.609375 35.519531 -32.390625 36.9375 -29.453125 C 38.363281 -26.515625 39.078125 -22.960938 39.078125 -18.796875 C 39.078125 -14.640625 38.363281 -11.097656 36.9375 -8.171875 C 35.519531 -5.242188 33.492188 -3.03125 30.859375 -1.53125 C 28.234375 -0.03125 25.148438 0.71875 21.609375 0.71875 Z M 21.609375 -4.265625 C 25.359375 -4.265625 28.226562 -5.445312 30.21875 -7.8125 C 32.207031 -10.175781 33.203125 -13.835938 33.203125 -18.796875 C 33.203125 -23.785156 32.207031 -27.460938 30.21875 -29.828125 C 28.226562 -32.191406 25.359375 -33.375 21.609375 -33.375 C 17.847656 -33.375 14.96875 -32.1875 12.96875 -29.8125 C 10.96875 -27.4375 9.96875 -23.765625 9.96875 -18.796875 C 9.96875 -13.835938 10.96875 -10.175781 12.96875 -7.8125 C 14.96875 -5.445312 17.847656 -4.265625 21.609375 -4.265625 Z M 21.609375 -4.265625 "/></g></g></g><g fill="#6b6b6b" fill-opacity="1"><g transform="translate(345.781411, 334.039547)"><g><path d="M 6.546875 0 L 6.546875 -37.640625 L 11.84375 -37.640625 L 11.84375 -31.734375 L 12.5625 -31.5625 C 14.3125 -35.84375 17.609375 -37.984375 22.453125 -37.984375 C 25.023438 -37.984375 26.945312 -37.515625 28.21875 -36.578125 L 26.796875 -31.875 L 26.109375 -31.734375 C 24.691406 -32.441406 23.144531 -32.796875 21.46875 -32.796875 C 18.457031 -32.796875 16.144531 -31.664062 14.53125 -29.40625 C 12.914062 -27.15625 12.109375 -23.507812 12.109375 -18.46875 L 12.109375 0 Z M 6.546875 0 "/></g></g></g><g fill="#6b6b6b" fill-opacity="1"><g transform="translate(393.100347, 334.039547)"><g/></g></g><g fill="#6b6b6b" fill-opacity="1"><g transform="translate(428.475097, 334.039547)"><g><path d="M 44.90625 0 L 38.625 0 L 34.03125 -13.6875 L 12.765625 -13.6875 L 8.125 0 L 1.984375 0 L 19.390625 -49.890625 L 27.5 -49.890625 Z M 22.96875 -43.859375 L 14.40625 -18.59375 L 32.359375 -18.59375 L 23.8125 -43.859375 Z M 22.96875 -43.859375 "/></g></g></g><g fill="#6b6b6b" fill-opacity="1"><g transform="translate(493.164286, 334.039547)"><g><path d="M 14.984375 0.71875 C 12.316406 0.71875 10.222656 -0.0351562 8.703125 -1.546875 C 7.179688 -3.066406 6.421875 -5.328125 6.421875 -8.328125 L 6.421875 -52.765625 L 11.984375 -52.765625 L 11.984375 -8.703125 C 11.984375 -7.128906 12.28125 -5.992188 12.875 -5.296875 C 13.476562 -4.609375 14.421875 -4.265625 15.703125 -4.265625 C 16.472656 -4.265625 17.253906 -4.390625 18.046875 -4.640625 L 18.53125 -4.5 L 19.171875 -0.140625 C 18.765625 0.128906 18.179688 0.335938 17.421875 0.484375 C 16.660156 0.640625 15.847656 0.71875 14.984375 0.71875 Z M 14.984375 0.71875 "/></g></g></g><g fill="#6b6b6b" fill-opacity="1"><g transform="translate(531.883399, 334.039547)"><g><path d="M 14.984375 0.71875 C 12.316406 0.71875 10.222656 -0.0351562 8.703125 -1.546875 C 7.179688 -3.066406 6.421875 -5.328125 6.421875 -8.328125 L 6.421875 -52.765625 L 11.984375 -52.765625 L 11.984375 -8.703125 C 11.984375 -7.128906 12.28125 -5.992188 12.875 -5.296875 C 13.476562 -4.609375 14.421875 -4.265625 15.703125 -4.265625 C 16.472656 -4.265625 17.253906 -4.390625 18.046875 -4.640625 L 18.53125 -4.5 L 19.171875 -0.140625 C 18.765625 0.128906 18.179688 0.335938 17.421875 0.484375 C 16.660156 0.640625 15.847656 0.71875 14.984375 0.71875 Z M 14.984375 0.71875 "/></g></g></g><g fill="#6b6b6b" fill-opacity="1"><g transform="translate(570.602513, 334.039547)"><g/></g></g><g fill="#6b6b6b" fill-opacity="1"><g transform="translate(605.977251, 334.039547)"><g><path d="M 13.40625 -23.515625 L 13.40625 -4.84375 L 38.828125 -4.84375 L 38.828125 0 L 7.546875 0 L 7.546875 -49.890625 L 38.296875 -49.890625 L 38.296875 -45.046875 L 13.40625 -45.046875 L 13.40625 -28.359375 L 35.359375 -28.359375 L 35.359375 -23.515625 Z M 13.40625 -23.515625 "/></g></g></g><g fill="#6b6b6b" fill-opacity="1"><g transform="translate(666.366575, 334.039547)"><g><path d="M 25.453125 -5.96875 L 27.234375 -1.984375 C 26.347656 -1.085938 25.179688 -0.414062 23.734375 0.03125 C 22.285156 0.488281 20.722656 0.71875 19.046875 0.71875 C 11.859375 0.71875 8.265625 -2.921875 8.265625 -10.203125 L 8.265625 -33.109375 L 1.703125 -33.109375 L 1.703125 -37.671875 L 8.265625 -37.671875 L 8.265625 -45.625 L 13.828125 -46.546875 L 13.828125 -37.671875 L 25.9375 -37.671875 L 25.9375 -33.109375 L 13.828125 -33.109375 L 13.828125 -10.75 C 13.828125 -6.425781 15.703125 -4.265625 19.453125 -4.265625 C 21.492188 -4.265625 23.253906 -4.832031 24.734375 -5.96875 Z M 25.453125 -5.96875 "/></g></g></g><g fill="#6b6b6b" fill-opacity="1"><g transform="translate(712.832332, 334.039547)"><g><path d="M 35.859375 -17.546875 L 10 -17.546875 C 10.15625 -12.972656 11.25 -9.613281 13.28125 -7.46875 C 15.320312 -5.332031 18.117188 -4.265625 21.671875 -4.265625 C 24.359375 -4.265625 26.519531 -4.738281 28.15625 -5.6875 C 29.789062 -6.644531 31.078125 -8.148438 32.015625 -10.203125 L 32.734375 -10.203125 L 36.34375 -8.046875 C 35.25 -5.316406 33.5 -3.171875 31.09375 -1.609375 C 28.695312 -0.0546875 25.554688 0.71875 21.671875 0.71875 C 18.023438 0.71875 14.894531 0.00390625 12.28125 -1.421875 C 9.664062 -2.859375 7.648438 -5.03125 6.234375 -7.9375 C 4.828125 -10.851562 4.125 -14.472656 4.125 -18.796875 C 4.125 -23.078125 4.867188 -26.6875 6.359375 -29.625 C 7.847656 -32.5625 9.882812 -34.75 12.46875 -36.1875 C 15.050781 -37.632812 18.003906 -38.359375 21.328125 -38.359375 C 26.148438 -38.359375 29.914062 -37 32.625 -34.28125 C 35.332031 -31.5625 36.695312 -27.53125 36.71875 -22.1875 C 36.71875 -20.09375 36.671875 -18.679688 36.578125 -17.953125 Z M 31.21875 -22.1875 C 31.132812 -26.1875 30.25 -29.097656 28.5625 -30.921875 C 26.875 -32.742188 24.460938 -33.65625 21.328125 -33.65625 C 18.023438 -33.65625 15.4375 -32.738281 13.5625 -30.90625 C 11.6875 -29.070312 10.546875 -26.164062 10.140625 -22.1875 Z M 31.21875 -22.1875 "/></g></g></g><g fill="#6b6b6b" fill-opacity="1"><g transform="translate(771.208183, 334.039547)"><g><path d="M 6.546875 0 L 6.546875 -37.640625 L 11.84375 -37.640625 L 11.84375 -31.734375 L 12.5625 -31.5625 C 14.3125 -35.84375 17.609375 -37.984375 22.453125 -37.984375 C 25.023438 -37.984375 26.945312 -37.515625 28.21875 -36.578125 L 26.796875 -31.875 L 26.109375 -31.734375 C 24.691406 -32.441406 23.144531 -32.796875 21.46875 -32.796875 C 18.457031 -32.796875 16.144531 -31.664062 14.53125 -29.40625 C 12.914062 -27.15625 12.109375 -23.507812 12.109375 -18.46875 L 12.109375 0 Z M 6.546875 0 "/></g></g></g><g fill="#6b6b6b" fill-opacity="1"><g transform="translate(818.527119, 334.039547)"><g><path d="M 6.546875 0 L 6.546875 -37.640625 L 11.84375 -37.640625 L 11.84375 -31.734375 L 12.5625 -31.5625 C 13.8125 -33.769531 15.40625 -35.453125 17.34375 -36.609375 C 19.289062 -37.773438 21.664062 -38.359375 24.46875 -38.359375 C 29 -38.359375 32.28125 -37.203125 34.3125 -34.890625 C 36.351562 -32.585938 37.375 -29.035156 37.375 -24.234375 L 37.375 0 L 31.8125 0 L 31.8125 -24.09375 C 31.8125 -26.363281 31.519531 -28.1875 30.9375 -29.5625 C 30.351562 -30.945312 29.453125 -31.953125 28.234375 -32.578125 C 27.015625 -33.203125 25.414062 -33.515625 23.4375 -33.515625 C 20.050781 -33.515625 17.316406 -32.394531 15.234375 -30.15625 C 13.148438 -27.914062 12.109375 -24.300781 12.109375 -19.3125 L 12.109375 0 Z M 6.546875 0 "/></g></g></g><g fill="#6b6b6b" fill-opacity="1"><g transform="translate(880.110839, 334.039547)"><g><path d="M 9.34375 -44.90625 C 8.164062 -44.90625 7.207031 -45.273438 6.46875 -46.015625 C 5.726562 -46.753906 5.359375 -47.691406 5.359375 -48.828125 C 5.359375 -49.972656 5.726562 -50.914062 6.46875 -51.65625 C 7.207031 -52.394531 8.164062 -52.765625 9.34375 -52.765625 C 10.53125 -52.765625 11.492188 -52.394531 12.234375 -51.65625 C 12.972656 -50.914062 13.34375 -49.972656 13.34375 -48.828125 C 13.34375 -47.691406 12.972656 -46.753906 12.234375 -46.015625 C 11.492188 -45.273438 10.53125 -44.90625 9.34375 -44.90625 Z M 6.546875 0 L 6.546875 -37.640625 L 12.109375 -37.640625 L 12.109375 0 Z M 6.546875 0 "/></g></g></g><g fill="#6b6b6b" fill-opacity="1"><g transform="translate(917.021237, 334.039547)"><g><path d="M 25.453125 -5.96875 L 27.234375 -1.984375 C 26.347656 -1.085938 25.179688 -0.414062 23.734375 0.03125 C 22.285156 0.488281 20.722656 0.71875 19.046875 0.71875 C 11.859375 0.71875 8.265625 -2.921875 8.265625 -10.203125 L 8.265625 -33.109375 L 1.703125 -33.109375 L 1.703125 -37.671875 L 8.265625 -37.671875 L 8.265625 -45.625 L 13.828125 -46.546875 L 13.828125 -37.671875 L 25.9375 -37.671875 L 25.9375 -33.109375 L 13.828125 -33.109375 L 13.828125 -10.75 C 13.828125 -6.425781 15.703125 -4.265625 19.453125 -4.265625 C 21.492188 -4.265625 23.253906 -4.832031 24.734375 -5.96875 Z M 25.453125 -5.96875 "/></g></g></g><g fill="#6b6b6b" fill-opacity="1"><g transform="translate(963.930658, 334.039547)"><g><path d="M 7.546875 15.96875 C 6.265625 15.96875 5.070312 15.859375 3.96875 15.640625 C 2.875 15.429688 1.925781 15.132812 1.125 14.75 L 2.15625 10.34375 L 2.765625 10.140625 C 3.304688 10.410156 3.988281 10.640625 4.8125 10.828125 C 5.632812 11.023438 6.476562 11.125 7.34375 11.125 C 8.863281 11.125 10.125 10.914062 11.125 10.5 C 12.125 10.09375 12.984375 9.414062 13.703125 8.46875 C 14.421875 7.53125 15.085938 6.234375 15.703125 4.578125 L 17.03125 0.890625 L 1.90625 -37.640625 L 7.921875 -37.640625 L 19.765625 -6.921875 L 20.40625 -6.921875 L 31.875 -37.640625 L 37.578125 -37.640625 L 20.75 5.90625 C 19.789062 8.3125 18.71875 10.25 17.53125 11.71875 C 16.351562 13.1875 14.957031 14.257812 13.34375 14.9375 C 11.726562 15.625 9.796875 15.96875 7.546875 15.96875 Z M 7.546875 15.96875 "/></g></g></g></svg>