<svg xmlns="http://www.w3.org/2000/svg" xmlns:xlink="http://www.w3.org/1999/xlink" width="1600" zoomAndPan="magnify" viewBox="0 0 1200 446.999989" height="596" preserveAspectRatio="xMidYMid meet" version="1.0"><defs><g/><clipPath id="446e74e2a7"><rect x="0" width="1092" y="0" height="160"/></clipPath></defs><g transform="matrix(1, 0, 0, 1, 64, 64)"><g clip-path="url(#446e74e2a7)"><g fill="#6b6b6b" fill-opacity="1"><g transform="translate(0.301385, 132.49661)"><g><path d="M 75.515625 -92.578125 L 80.40625 -69.296875 L 79.875 -69.03125 C 76.53125 -73.96875 73.488281 -78.023438 70.75 -81.203125 C 68.019531 -84.378906 64.910156 -86.710938 61.421875 -88.203125 C 57.941406 -89.703125 53.335938 -90.453125 47.609375 -90.453125 L 30.15625 -90.453125 L 30.15625 -46.015625 L 42.453125 -46.015625 C 47.921875 -46.015625 52.347656 -46.476562 55.734375 -47.40625 C 59.128906 -48.332031 61.796875 -49.941406 63.734375 -52.234375 C 65.679688 -54.523438 67.179688 -57.703125 68.234375 -61.765625 L 68.234375 -28.296875 C 67.179688 -32.359375 65.679688 -35.507812 63.734375 -37.75 C 61.796875 -40 59.128906 -41.585938 55.734375 -42.515625 C 52.347656 -43.441406 47.921875 -43.90625 42.453125 -43.90625 L 30.15625 -43.90625 L 30.15625 -7.53125 C 30.15625 -5.15625 31.144531 -3.503906 33.125 -2.578125 C 35.113281 -1.648438 37.472656 -1.007812 40.203125 -0.65625 L 40.203125 0 L 1.984375 0 L 1.984375 -0.65625 C 4.710938 -1.625 7.066406 -2.859375 9.046875 -4.359375 C 11.035156 -5.859375 12.03125 -7.800781 12.03125 -10.1875 L 12.03125 -85.03125 C 12.03125 -87.414062 11.035156 -89.070312 9.046875 -90 C 7.066406 -90.925781 4.710938 -91.5625 1.984375 -91.90625 L 1.984375 -92.578125 Z M 75.515625 -92.578125 "/></g></g></g><g fill="#6b6b6b" fill-opacity="1"><g transform="translate(102.797094, 132.49661)"><g><path d="M 17.1875 -74.59375 C 14.457031 -74.59375 12.164062 -75.539062 10.3125 -77.4375 C 8.457031 -79.332031 7.53125 -81.644531 7.53125 -84.375 C 7.53125 -87.101562 8.457031 -89.394531 10.3125 -91.25 C 12.164062 -93.101562 14.457031 -94.03125 17.1875 -94.03125 C 19.925781 -94.03125 22.21875 -93.101562 24.0625 -91.25 C 25.914062 -89.394531 26.84375 -87.101562 26.84375 -84.375 C 26.84375 -81.644531 25.914062 -79.332031 24.0625 -77.4375 C 22.21875 -75.539062 19.925781 -74.59375 17.1875 -74.59375 Z M 8.59375 0 L 9.390625 -9.125 L 9.390625 -59.90625 C 8.503906 -60.519531 7.289062 -61.046875 5.75 -61.484375 C 4.207031 -61.929688 2.734375 -62.203125 1.328125 -62.296875 L 1.328125 -62.8125 L 26.84375 -64.796875 L 26.1875 -55.015625 L 26.1875 -12.296875 C 26.1875 -8.773438 26.5625 -6.175781 27.3125 -4.5 C 28.0625 -2.820312 29.40625 -1.320312 31.34375 0 Z M 8.59375 0 "/></g></g></g><g fill="#6b6b6b" fill-opacity="1"><g transform="translate(157.550392, 132.49661)"><g><path d="M 56.609375 0 L 57.390625 -9.125 L 57.390625 -40.59375 C 57.390625 -45.53125 56.859375 -49.320312 55.796875 -51.96875 C 54.742188 -54.613281 53.359375 -56.421875 51.640625 -57.390625 C 49.921875 -58.359375 48.003906 -58.84375 45.890625 -58.84375 C 41.835938 -58.84375 38.175781 -57.804688 34.90625 -55.734375 C 31.644531 -53.671875 28.738281 -51.710938 26.1875 -49.859375 L 26.1875 -12.296875 C 26.1875 -8.773438 26.5625 -6.175781 27.3125 -4.5 C 28.0625 -2.820312 29.40625 -1.320312 31.34375 0 L 8.59375 0 L 9.390625 -9.125 L 9.390625 -59.90625 C 8.503906 -60.519531 7.289062 -61.046875 5.75 -61.484375 C 4.207031 -61.929688 2.734375 -62.203125 1.328125 -62.296875 L 1.328125 -62.8125 L 26.84375 -64.796875 L 26.1875 -55.015625 L 26.1875 -53.03125 C 28.21875 -54.4375 30.6875 -56.066406 33.59375 -57.921875 C 36.5 -59.773438 39.738281 -61.40625 43.3125 -62.8125 C 46.882812 -64.226562 50.65625 -64.9375 54.625 -64.9375 C 56.738281 -64.9375 58.914062 -64.601562 61.15625 -63.9375 C 63.40625 -63.28125 65.519531 -62.09375 67.5 -60.375 C 69.488281 -58.65625 71.097656 -56.226562 72.328125 -53.09375 C 73.566406 -49.96875 74.1875 -45.890625 74.1875 -40.859375 L 74.1875 -12.296875 C 74.1875 -8.773438 74.5625 -6.175781 75.3125 -4.5 C 76.0625 -2.820312 77.40625 -1.320312 79.34375 0 Z M 56.609375 0 "/></g></g></g><g fill="#6b6b6b" fill-opacity="1"><g transform="translate(258.98805, 132.49661)"><g><path d="M 72.875 -10.84375 C 72.875 -7.3125 73.25 -4.753906 74 -3.171875 C 74.75 -1.585938 76.09375 -0.132812 78.03125 1.1875 L 78.03125 1.59375 L 52.765625 -2.515625 C 52.765625 -2.515625 52.785156 -2.515625 52.828125 -2.515625 C 52.878906 -2.515625 52.90625 -2.554688 52.90625 -2.640625 C 50.78125 -1.492188 48.394531 -0.613281 45.75 0 C 43.113281 0.613281 40.25 0.921875 37.15625 0.921875 C 30.726562 0.921875 25.128906 -0.3125 20.359375 -2.78125 C 15.597656 -5.25 11.894531 -8.753906 9.25 -13.296875 C 6.613281 -17.835938 5.296875 -23.148438 5.296875 -29.234375 C 5.296875 -35.660156 6.816406 -41.582031 9.859375 -47 C 12.898438 -52.425781 17.484375 -56.769531 23.609375 -60.03125 C 29.734375 -63.300781 37.46875 -64.9375 46.8125 -64.9375 C 51.050781 -64.9375 55.394531 -64.535156 59.84375 -63.734375 C 64.289062 -62.941406 68.632812 -61.710938 72.875 -60.046875 Z M 22.078125 -36.890625 C 22.078125 -30.546875 23.09375 -24.835938 25.125 -19.765625 C 27.15625 -14.703125 29.953125 -10.691406 33.515625 -7.734375 C 37.085938 -4.785156 41.082031 -3.3125 45.5 -3.3125 C 49.632812 -3.3125 53.070312 -4.804688 55.8125 -7.796875 C 55.894531 -8.503906 55.957031 -9.234375 56 -9.984375 C 56.050781 -10.734375 56.078125 -11.59375 56.078125 -12.5625 L 56.078125 -55.28125 C 54.046875 -57.570312 51.796875 -59.332031 49.328125 -60.5625 C 46.859375 -61.800781 44.035156 -62.421875 40.859375 -62.421875 C 34.691406 -62.421875 30.019531 -60.082031 26.84375 -55.40625 C 23.664062 -50.738281 22.078125 -44.566406 22.078125 -36.890625 Z M 22.078125 -36.890625 "/></g></g></g><g fill="#6b6b6b" fill-opacity="1"><g transform="translate(361.086958, 132.49661)"><g><path d="M 27.375 -12.828125 C 27.375 -9.296875 27.8125 -6.539062 28.6875 -4.5625 C 29.570312 -2.582031 31.644531 -1.238281 34.90625 -0.53125 L 34.90625 0 L 9.390625 0 L 10.578125 -8.203125 L 10.578125 -86.890625 C 10.578125 -89.535156 9.648438 -90.859375 7.796875 -90.859375 C 5.953125 -90.859375 2.910156 -90.238281 -1.328125 -89 L -1.328125 -89.796875 L 28.03125 -103.546875 L 27.375 -97.59375 Z M 27.375 -12.828125 "/></g></g></g><g fill="#6b6b6b" fill-opacity="1"><g transform="translate(417.427269, 132.49661)"><g/></g></g><g fill="#6b6b6b" fill-opacity="1"><g transform="translate(463.319788, 132.49661)"><g><path d="M 94.03125 -16.65625 C 95.613281 -12.601562 97.019531 -9.453125 98.25 -7.203125 C 99.488281 -4.953125 100.789062 -3.34375 102.15625 -2.375 C 103.53125 -1.40625 105.1875 -0.789062 107.125 -0.53125 L 107.125 0 L 65.328125 0 L 65.328125 -0.53125 C 68.410156 -0.789062 70.96875 -1.382812 73 -2.3125 C 75.03125 -3.238281 76.304688 -4.757812 76.828125 -6.875 C 77.359375 -8.988281 76.832031 -11.988281 75.25 -15.875 L 72.609375 -22.484375 L 22.078125 -22.484375 L 19.171875 -15.875 C 17.492188 -12.082031 16.875 -9.171875 17.3125 -7.140625 C 17.757812 -5.109375 18.863281 -3.628906 20.625 -2.703125 C 22.394531 -1.785156 24.515625 -1.0625 26.984375 -0.53125 L 26.984375 0 L 2.640625 0 L 2.640625 -0.53125 C 4.492188 -1.0625 6.144531 -1.8125 7.59375 -2.78125 C 9.050781 -3.75 10.460938 -5.242188 11.828125 -7.265625 C 13.203125 -9.296875 14.679688 -12.207031 16.265625 -16 L 45.234375 -82.78125 L 44.96875 -86.625 L 47.484375 -88.078125 L 63.078125 -96.40625 C 63.078125 -96.050781 63.234375 -95.28125 63.546875 -94.09375 C 63.859375 -92.90625 64.71875 -90.59375 66.125 -87.15625 Z M 23.015625 -24.859375 L 71.671875 -24.859375 L 48.265625 -83.1875 Z M 23.015625 -24.859375 "/></g></g></g><g fill="#6b6b6b" fill-opacity="1"><g transform="translate(592.530106, 132.49661)"><g><path d="M 47.484375 -64.796875 C 50.117188 -64.796875 52.539062 -64.269531 54.75 -63.21875 L 41.53125 -41.265625 L 41 -41.265625 C 42.5 -45.234375 42.765625 -48.601562 41.796875 -51.375 C 40.828125 -54.15625 39.109375 -55.546875 36.640625 -55.546875 C 33.640625 -55.546875 31.28125 -53.847656 29.5625 -50.453125 C 27.84375 -47.054688 26.71875 -43.066406 26.1875 -38.484375 L 26.1875 -12.296875 C 26.1875 -8.773438 26.5625 -6.175781 27.3125 -4.5 C 28.0625 -2.820312 29.40625 -1.320312 31.34375 0 L 8.734375 0 L 9.390625 -9.125 L 9.390625 -59.90625 C 8.503906 -60.519531 7.289062 -61.046875 5.75 -61.484375 C 4.207031 -61.929688 2.734375 -62.203125 1.328125 -62.296875 L 1.328125 -62.8125 L 26.84375 -64.796875 L 26.1875 -55.015625 L 26.1875 -50.78125 L 27.90625 -50.78125 C 29.40625 -55.007812 31.875 -58.398438 35.3125 -60.953125 C 38.75 -63.515625 42.804688 -64.796875 47.484375 -64.796875 Z M 47.484375 -64.796875 "/></g></g></g><g fill="#6b6b6b" fill-opacity="1"><g transform="translate(663.417707, 132.49661)"><g><path d="M 40.734375 0.921875 C 33.765625 0.921875 27.613281 -0.441406 22.28125 -3.171875 C 16.945312 -5.910156 12.78125 -9.679688 9.78125 -14.484375 C 6.789062 -19.285156 5.296875 -24.863281 5.296875 -31.21875 C 5.296875 -38.269531 7.054688 -44.304688 10.578125 -49.328125 C 14.109375 -54.359375 18.78125 -58.21875 24.59375 -60.90625 C 30.414062 -63.59375 36.765625 -64.9375 43.640625 -64.9375 C 49.460938 -64.9375 54.359375 -64.050781 58.328125 -62.28125 C 62.296875 -60.519531 65.289062 -58.453125 67.3125 -56.078125 L 54.09375 -36.234375 L 53.828125 -36.234375 C 55.859375 -42.234375 56.320312 -47.191406 55.21875 -51.109375 C 54.113281 -55.035156 52.148438 -57.988281 49.328125 -59.96875 C 46.503906 -61.957031 43.460938 -62.953125 40.203125 -62.953125 C 37.117188 -62.953125 34.207031 -62.066406 31.46875 -60.296875 C 28.738281 -58.535156 26.554688 -55.867188 24.921875 -52.296875 C 23.296875 -48.734375 22.484375 -44.21875 22.484375 -38.75 C 22.484375 -32.570312 23.609375 -26.972656 25.859375 -21.953125 C 28.109375 -16.929688 31.257812 -12.941406 35.3125 -9.984375 C 39.363281 -7.023438 44.082031 -5.546875 49.46875 -5.546875 C 52.195312 -5.546875 55.210938 -6.050781 58.515625 -7.0625 C 61.828125 -8.082031 64.492188 -9.875 66.515625 -12.4375 L 67.1875 -11.90625 C 65.25 -8.375 62.050781 -5.351562 57.59375 -2.84375 C 53.144531 -0.332031 47.523438 0.921875 40.734375 0.921875 Z M 40.734375 0.921875 "/></g></g></g><g fill="#6b6b6b" fill-opacity="1"><g transform="translate(753.481779, 132.49661)"><g><path d="M 57.796875 0 L 58.59375 -9.125 L 58.59375 -40.59375 C 58.59375 -45.53125 58.0625 -49.320312 57 -51.96875 C 55.9375 -54.613281 54.546875 -56.421875 52.828125 -57.390625 C 51.109375 -58.359375 49.191406 -58.84375 47.078125 -58.84375 C 43.023438 -58.84375 39.367188 -57.804688 36.109375 -55.734375 C 32.847656 -53.671875 29.9375 -51.753906 27.375 -49.984375 L 27.375 -12.828125 C 27.375 -9.296875 27.8125 -6.539062 28.6875 -4.5625 C 29.570312 -2.582031 31.644531 -1.238281 34.90625 -0.53125 L 34.90625 0 L 9.390625 0 L 10.578125 -8.203125 L 10.578125 -86.890625 C 10.578125 -89.535156 9.648438 -90.859375 7.796875 -90.859375 C 5.953125 -90.859375 2.910156 -90.238281 -1.328125 -89 L -1.328125 -89.796875 L 28.03125 -103.546875 L 27.375 -97.59375 L 27.375 -53.171875 C 29.488281 -54.578125 32 -56.203125 34.90625 -58.046875 C 37.820312 -59.898438 41.0625 -61.507812 44.625 -62.875 C 48.195312 -64.25 51.925781 -64.9375 55.8125 -64.9375 C 57.925781 -64.9375 60.109375 -64.601562 62.359375 -63.9375 C 64.609375 -63.28125 66.722656 -62.09375 68.703125 -60.375 C 70.679688 -58.65625 72.285156 -56.226562 73.515625 -53.09375 C 74.753906 -49.96875 75.375 -45.890625 75.375 -40.859375 L 75.375 -12.296875 C 75.375 -8.773438 75.75 -6.175781 76.5 -4.5 C 77.25 -2.820312 78.597656 -1.320312 80.546875 0 Z M 57.796875 0 "/></g></g></g><g fill="#6b6b6b" fill-opacity="1"><g transform="translate(857.432313, 132.49661)"><g><path d="M 17.1875 -74.59375 C 14.457031 -74.59375 12.164062 -75.539062 10.3125 -77.4375 C 8.457031 -79.332031 7.53125 -81.644531 7.53125 -84.375 C 7.53125 -87.101562 8.457031 -89.394531 10.3125 -91.25 C 12.164062 -93.101562 14.457031 -94.03125 17.1875 -94.03125 C 19.925781 -94.03125 22.21875 -93.101562 24.0625 -91.25 C 25.914062 -89.394531 26.84375 -87.101562 26.84375 -84.375 C 26.84375 -81.644531 25.914062 -79.332031 24.0625 -77.4375 C 22.21875 -75.539062 19.925781 -74.59375 17.1875 -74.59375 Z M 8.59375 0 L 9.390625 -9.125 L 9.390625 -59.90625 C 8.503906 -60.519531 7.289062 -61.046875 5.75 -61.484375 C 4.207031 -61.929688 2.734375 -62.203125 1.328125 -62.296875 L 1.328125 -62.8125 L 26.84375 -64.796875 L 26.1875 -55.015625 L 26.1875 -12.296875 C 26.1875 -8.773438 26.5625 -6.175781 27.3125 -4.5 C 28.0625 -2.820312 29.40625 -1.320312 31.34375 0 Z M 8.59375 0 "/></g></g></g><g fill="#6b6b6b" fill-opacity="1"><g transform="translate(913.243663, 132.49661)"><g><path d="M 51.703125 -64.140625 L 71.8125 -64.140625 L 71.8125 -63.609375 C 70.40625 -63.078125 69.082031 -62.328125 67.84375 -61.359375 C 66.613281 -60.390625 65.359375 -58.890625 64.078125 -56.859375 C 62.796875 -54.835938 61.273438 -51.929688 59.515625 -48.140625 L 36.890625 1.59375 L 36.109375 1.59375 L 8.734375 -55.140625 L 3.3125 -64.140625 L 35.171875 -64.140625 L 35.171875 -63.609375 C 32.972656 -63.347656 31.015625 -62.734375 29.296875 -61.765625 C 27.578125 -60.796875 26.539062 -59.25 26.1875 -57.125 C 25.832031 -55.007812 26.535156 -52.054688 28.296875 -48.265625 L 43.109375 -17.71875 L 57 -48.265625 C 58.675781 -52.054688 59.335938 -54.96875 58.984375 -57 C 58.628906 -59.03125 57.722656 -60.503906 56.265625 -61.421875 C 54.816406 -62.347656 53.296875 -63.078125 51.703125 -63.609375 Z M 51.703125 -64.140625 "/></g></g></g><g fill="#6b6b6b" fill-opacity="1"><g transform="translate(999.207675, 132.49661)"><g><path d="M 68.90625 -12.953125 L 69.5625 -12.4375 C 67.625 -8.726562 64.117188 -5.570312 59.046875 -2.96875 C 53.972656 -0.375 47.910156 0.921875 40.859375 0.921875 C 33.804688 0.921875 27.613281 -0.421875 22.28125 -3.109375 C 16.945312 -5.796875 12.78125 -9.5625 9.78125 -14.40625 C 6.789062 -19.257812 5.296875 -24.816406 5.296875 -31.078125 C 5.296875 -36.367188 6.328125 -41.109375 8.390625 -45.296875 C 10.460938 -49.484375 13.304688 -53.03125 16.921875 -55.9375 C 20.535156 -58.851562 24.613281 -61.082031 29.15625 -62.625 C 33.695312 -64.164062 38.4375 -64.9375 43.375 -64.9375 C 49.101562 -64.9375 53.796875 -63.988281 57.453125 -62.09375 C 61.117188 -60.195312 63.8125 -57.859375 65.53125 -55.078125 C 67.25 -52.304688 68.0625 -49.507812 67.96875 -46.6875 C 67.882812 -43.863281 66.9375 -41.503906 65.125 -39.609375 C 63.320312 -37.710938 60.742188 -36.765625 57.390625 -36.765625 L 22.484375 -36.765625 C 22.566406 -30.503906 23.734375 -25.035156 25.984375 -20.359375 C 28.234375 -15.691406 31.363281 -12.054688 35.375 -9.453125 C 39.382812 -6.847656 44.035156 -5.546875 49.328125 -5.546875 C 51.441406 -5.546875 53.753906 -5.789062 56.265625 -6.28125 C 58.785156 -6.769531 61.191406 -7.5625 63.484375 -8.65625 C 65.773438 -9.757812 67.582031 -11.191406 68.90625 -12.953125 Z M 39.015625 -62.8125 C 34.515625 -62.8125 30.695312 -60.695312 27.5625 -56.46875 C 24.4375 -52.238281 22.742188 -46.421875 22.484375 -39.015625 L 49.0625 -39.28125 C 50.820312 -39.28125 52.097656 -40.070312 52.890625 -41.65625 C 53.691406 -43.25 54.003906 -45.210938 53.828125 -47.546875 C 53.648438 -49.878906 52.960938 -52.210938 51.765625 -54.546875 C 50.578125 -56.890625 48.925781 -58.851562 46.8125 -60.4375 C 44.695312 -62.019531 42.097656 -62.8125 39.015625 -62.8125 Z M 39.015625 -62.8125 "/></g></g></g></g></g><g fill="#6b6b6b" fill-opacity="1"><g transform="translate(227.97183, 334.039547)"><g><path d="M 36.859375 -49.890625 L 36.859375 -45.046875 L 13.40625 -45.046875 L 13.40625 -26.890625 L 34.5 -26.890625 L 34.5 -22.015625 L 13.40625 -22.015625 L 13.40625 0 L 7.546875 0 L 7.546875 -49.890625 Z M 36.859375 -49.890625 "/></g></g></g><g fill="#6b6b6b" fill-opacity="1"><g transform="translate(284.334196, 334.039547)"><g><path d="M 21.609375 0.71875 C 18.054688 0.71875 14.960938 -0.03125 12.328125 -1.53125 C 9.703125 -3.03125 7.675781 -5.242188 6.25 -8.171875 C 4.832031 -11.097656 4.125 -14.640625 4.125 -18.796875 C 4.125 -22.960938 4.832031 -26.515625 6.25 -29.453125 C 7.675781 -32.390625 9.703125 -34.609375 12.328125 -36.109375 C 14.960938 -37.609375 18.054688 -38.359375 21.609375 -38.359375 C 25.148438 -38.359375 28.234375 -37.609375 30.859375 -36.109375 C 33.492188 -34.609375 35.519531 -32.390625 36.9375 -29.453125 C 38.363281 -26.515625 39.078125 -22.960938 39.078125 -18.796875 C 39.078125 -14.640625 38.363281 -11.097656 36.9375 -8.171875 C 35.519531 -5.242188 33.492188 -3.03125 30.859375 -1.53125 C 28.234375 -0.03125 25.148438 0.71875 21.609375 0.71875 Z M 21.609375 -4.265625 C 25.359375 -4.265625 28.226562 -5.445312 30.21875 -7.8125 C 32.207031 -10.175781 33.203125 -13.835938 33.203125 -18.796875 C 33.203125 -23.785156 32.207031 -27.460938 30.21875 -29.828125 C 28.226562 -32.191406 25.359375 -33.375 21.609375 -33.375 C 17.847656 -33.375 14.96875 -32.1875 12.96875 -29.8125 C 10.96875 -27.4375 9.96875 -23.765625 9.96875 -18.796875 C 9.96875 -13.835938 10.96875 -10.175781 12.96875 -7.8125 C 14.96875 -5.445312 17.847656 -4.265625 21.609375 -4.265625 Z M 21.609375 -4.265625 "/></g></g></g><g fill="#6b6b6b" fill-opacity="1"><g transform="translate(345.781411, 334.039547)"><g><path d="M 6.546875 0 L 6.546875 -37.640625 L 11.84375 -37.640625 L 11.84375 -31.734375 L 12.5625 -31.5625 C 14.3125 -35.84375 17.609375 -37.984375 22.453125 -37.984375 C 25.023438 -37.984375 26.945312 -37.515625 28.21875 -36.578125 L 26.796875 -31.875 L 26.109375 -31.734375 C 24.691406 -32.441406 23.144531 -32.796875 21.46875 -32.796875 C 18.457031 -32.796875 16.144531 -31.664062 14.53125 -29.40625 C 12.914062 -27.15625 12.109375 -23.507812 12.109375 -18.46875 L 12.109375 0 Z M 6.546875 0 "/></g></g></g><g fill="#6b6b6b" fill-opacity="1"><g transform="translate(393.100347, 334.039547)"><g/></g></g><g fill="#6b6b6b" fill-opacity="1"><g transform="translate(428.475097, 334.039547)"><g><path d="M 44.90625 0 L 38.625 0 L 34.03125 -13.6875 L 12.765625 -13.6875 L 8.125 0 L 1.984375 0 L 19.390625 -49.890625 L 27.5 -49.890625 Z M 22.96875 -43.859375 L 14.40625 -18.59375 L 32.359375 -18.59375 L 23.8125 -43.859375 Z M 22.96875 -43.859375 "/></g></g></g><g fill="#6b6b6b" fill-opacity="1"><g transform="translate(493.164286, 334.039547)"><g><path d="M 14.984375 0.71875 C 12.316406 0.71875 10.222656 -0.0351562 8.703125 -1.546875 C 7.179688 -3.066406 6.421875 -5.328125 6.421875 -8.328125 L 6.421875 -52.765625 L 11.984375 -52.765625 L 11.984375 -8.703125 C 11.984375 -7.128906 12.28125 -5.992188 12.875 -5.296875 C 13.476562 -4.609375 14.421875 -4.265625 15.703125 -4.265625 C 16.472656 -4.265625 17.253906 -4.390625 18.046875 -4.640625 L 18.53125 -4.5 L 19.171875 -0.140625 C 18.765625 0.128906 18.179688 0.335938 17.421875 0.484375 C 16.660156 0.640625 15.847656 0.71875 14.984375 0.71875 Z M 14.984375 0.71875 "/></g></g></g><g fill="#6b6b6b" fill-opacity="1"><g transform="translate(531.883399, 334.039547)"><g><path d="M 14.984375 0.71875 C 12.316406 0.71875 10.222656 -0.0351562 8.703125 -1.546875 C 7.179688 -3.066406 6.421875 -5.328125 6.421875 -8.328125 L 6.421875 -52.765625 L 11.984375 -52.765625 L 11.984375 -8.703125 C 11.984375 -7.128906 12.28125 -5.992188 12.875 -5.296875 C 13.476562 -4.609375 14.421875 -4.265625 15.703125 -4.265625 C 16.472656 -4.265625 17.253906 -4.390625 18.046875 -4.640625 L 18.53125 -4.5 L 19.171875 -0.140625 C 18.765625 0.128906 18.179688 0.335938 17.421875 0.484375 C 16.660156 0.640625 15.847656 0.71875 14.984375 0.71875 Z M 14.984375 0.71875 "/></g></g></g><g fill="#6b6b6b" fill-opacity="1"><g transform="translate(570.602513, 334.039547)"><g/></g></g><g fill="#6b6b6b" fill-opacity="1"><g transform="translate(605.977251, 334.039547)"><g><path d="M 13.40625 -23.515625 L 13.40625 -4.84375 L 38.828125 -4.84375 L 38.828125 0 L 7.546875 0 L 7.546875 -49.890625 L 38.296875 -49.890625 L 38.296875 -45.046875 L 13.40625 -45.046875 L 13.40625 -28.359375 L 35.359375 -28.359375 L 35.359375 -23.515625 Z M 13.40625 -23.515625 "/></g></g></g><g fill="#6b6b6b" fill-opacity="1"><g transform="translate(666.366575, 334.039547)"><g><path d="M 25.453125 -5.96875 L 27.234375 -1.984375 C 26.347656 -1.085938 25.179688 -0.414062 23.734375 0.03125 C 22.285156 0.488281 20.722656 0.71875 19.046875 0.71875 C 11.859375 0.71875 8.265625 -2.921875 8.265625 -10.203125 L 8.265625 -33.109375 L 1.703125 -33.109375 L 1.703125 -37.671875 L 8.265625 -37.671875 L 8.265625 -45.625 L 13.828125 -46.546875 L 13.828125 -37.671875 L 25.9375 -37.671875 L 25.9375 -33.109375 L 13.828125 -33.109375 L 13.828125 -10.75 C 13.828125 -6.425781 15.703125 -4.265625 19.453125 -4.265625 C 21.492188 -4.265625 23.253906 -4.832031 24.734375 -5.96875 Z M 25.453125 -5.96875 "/></g></g></g><g fill="#6b6b6b" fill-opacity="1"><g transform="translate(712.832332, 334.039547)"><g><path d="M 35.859375 -17.546875 L 10 -17.546875 C 10.15625 -12.972656 11.25 -9.613281 13.28125 -7.46875 C 15.320312 -5.332031 18.117188 -4.265625 21.671875 -4.265625 C 24.359375 -4.265625 26.519531 -4.738281 28.15625 -5.6875 C 29.789062 -6.644531 31.078125 -8.148438 32.015625 -10.203125 L 32.734375 -10.203125 L 36.34375 -8.046875 C 35.25 -5.316406 33.5 -3.171875 31.09375 -1.609375 C 28.695312 -0.0546875 25.554688 0.71875 21.671875 0.71875 C 18.023438 0.71875 14.894531 0.00390625 12.28125 -1.421875 C 9.664062 -2.859375 7.648438 -5.03125 6.234375 -7.9375 C 4.828125 -10.851562 4.125 -14.472656 4.125 -18.796875 C 4.125 -23.078125 4.867188 -26.6875 6.359375 -29.625 C 7.847656 -32.5625 9.882812 -34.75 12.46875 -36.1875 C 15.050781 -37.632812 18.003906 -38.359375 21.328125 -38.359375 C 26.148438 -38.359375 29.914062 -37 32.625 -34.28125 C 35.332031 -31.5625 36.695312 -27.53125 36.71875 -22.1875 C 36.71875 -20.09375 36.671875 -18.679688 36.578125 -17.953125 Z M 31.21875 -22.1875 C 31.132812 -26.1875 30.25 -29.097656 28.5625 -30.921875 C 26.875 -32.742188 24.460938 -33.65625 21.328125 -33.65625 C 18.023438 -33.65625 15.4375 -32.738281 13.5625 -30.90625 C 11.6875 -29.070312 10.546875 -26.164062 10.140625 -22.1875 Z M 31.21875 -22.1875 "/></g></g></g><g fill="#6b6b6b" fill-opacity="1"><g transform="translate(771.208183, 334.039547)"><g><path d="M 6.546875 0 L 6.546875 -37.640625 L 11.84375 -37.640625 L 11.84375 -31.734375 L 12.5625 -31.5625 C 14.3125 -35.84375 17.609375 -37.984375 22.453125 -37.984375 C 25.023438 -37.984375 26.945312 -37.515625 28.21875 -36.578125 L 26.796875 -31.875 L 26.109375 -31.734375 C 24.691406 -32.441406 23.144531 -32.796875 21.46875 -32.796875 C 18.457031 -32.796875 16.144531 -31.664062 14.53125 -29.40625 C 12.914062 -27.15625 12.109375 -23.507812 12.109375 -18.46875 L 12.109375 0 Z M 6.546875 0 "/></g></g></g><g fill="#6b6b6b" fill-opacity="1"><g transform="translate(818.527119, 334.039547)"><g><path d="M 6.546875 0 L 6.546875 -37.640625 L 11.84375 -37.640625 L 11.84375 -31.734375 L 12.5625 -31.5625 C 13.8125 -33.769531 15.40625 -35.453125 17.34375 -36.609375 C 19.289062 -37.773438 21.664062 -38.359375 24.46875 -38.359375 C 29 -38.359375 32.28125 -37.203125 34.3125 -34.890625 C 36.351562 -32.585938 37.375 -29.035156 37.375 -24.234375 L 37.375 0 L 31.8125 0 L 31.8125 -24.09375 C 31.8125 -26.363281 31.519531 -28.1875 30.9375 -29.5625 C 30.351562 -30.945312 29.453125 -31.953125 28.234375 -32.578125 C 27.015625 -33.203125 25.414062 -33.515625 23.4375 -33.515625 C 20.050781 -33.515625 17.316406 -32.394531 15.234375 -30.15625 C 13.148438 -27.914062 12.109375 -24.300781 12.109375 -19.3125 L 12.109375 0 Z M 6.546875 0 "/></g></g></g><g fill="#6b6b6b" fill-opacity="1"><g transform="translate(880.110839, 334.039547)"><g><path d="M 9.34375 -44.90625 C 8.164062 -44.90625 7.207031 -45.273438 6.46875 -46.015625 C 5.726562 -46.753906 5.359375 -47.691406 5.359375 -48.828125 C 5.359375 -49.972656 5.726562 -50.914062 6.46875 -51.65625 C 7.207031 -52.394531 8.164062 -52.765625 9.34375 -52.765625 C 10.53125 -52.765625 11.492188 -52.394531 12.234375 -51.65625 C 12.972656 -50.914062 13.34375 -49.972656 13.34375 -48.828125 C 13.34375 -47.691406 12.972656 -46.753906 12.234375 -46.015625 C 11.492188 -45.273438 10.53125 -44.90625 9.34375 -44.90625 Z M 6.546875 0 L 6.546875 -37.640625 L 12.109375 -37.640625 L 12.109375 0 Z M 6.546875 0 "/></g></g></g><g fill="#6b6b6b" fill-opacity="1"><g transform="translate(917.021237, 334.039547)"><g><path d="M 25.453125 -5.96875 L 27.234375 -1.984375 C 26.347656 -1.085938 25.179688 -0.414062 23.734375 0.03125 C 22.285156 0.488281 20.722656 0.71875 19.046875 0.71875 C 11.859375 0.71875 8.265625 -2.921875 8.265625 -10.203125 L 8.265625 -33.109375 L 1.703125 -33.109375 L 1.703125 -37.671875 L 8.265625 -37.671875 L 8.265625 -45.625 L 13.828125 -46.546875 L 13.828125 -37.671875 L 25.9375 -37.671875 L 25.9375 -33.109375 L 13.828125 -33.109375 L 13.828125 -10.75 C 13.828125 -6.425781 15.703125 -4.265625 19.453125 -4.265625 C 21.492188 -4.265625 23.253906 -4.832031 24.734375 -5.96875 Z M 25.453125 -5.96875 "/></g></g></g><g fill="#6b6b6b" fill-opacity="1"><g transform="translate(963.930658, 334.039547)"><g><path d="M 7.546875 15.96875 C 6.265625 15.96875 5.070312 15.859375 3.96875 15.640625 C 2.875 15.429688 1.925781 15.132812 1.125 14.75 L 2.15625 10.34375 L 2.765625 10.140625 C 3.304688 10.410156 3.988281 10.640625 4.8125 10.828125 C 5.632812 11.023438 6.476562 11.125 7.34375 11.125 C 8.863281 11.125 10.125 10.914062 11.125 10.5 C 12.125 10.09375 12.984375 9.414062 13.703125 8.46875 C 14.421875 7.53125 15.085938 6.234375 15.703125 4.578125 L 17.03125 0.890625 L 1.90625 -37.640625 L 7.921875 -37.640625 L 19.765625 -6.921875 L 20.40625 -6.921875 L 31.875 -37.640625 L 37.578125 -37.640625 L 20.75 5.90625 C 19.789062 8.3125 18.71875 10.25 17.53125 11.71875 C 16.351562 13.1875 14.957031 14.257812 13.34375 14.9375 C 11.726562 15.625 9.796875 15.96875 7.546875 15.96875 Z M 7.546875 15.96875 "/></g></g></g></svg>