<svg xmlns="http://www.w3.org/2000/svg" xmlns:xlink="http://www.w3.org/1999/xlink" width="1600" zoomAndPan="magnify" viewBox="0 0 1200 446.999989" height="596" preserveAspectRatio="xMidYMid meet" version="1.0"><defs><g/></defs><g fill="#6b6b6b" fill-opacity="1"><g transform="translate(38.827274, 193.767731)"><g><path d="M 52.828125 -64.765625 L 56.25 -48.484375 L 55.875 -48.296875 C 53.53125 -51.742188 51.398438 -54.578125 49.484375 -56.796875 C 47.578125 -59.023438 45.40625 -60.660156 42.96875 -61.703125 C 40.53125 -62.753906 37.3125 -63.28125 33.3125 -63.28125 L 21.09375 -63.28125 L 21.09375 -32.203125 L 29.703125 -32.203125 C 33.523438 -32.203125 36.625 -32.523438 39 -33.171875 C 41.375 -33.816406 43.238281 -34.941406 44.59375 -36.546875 C 45.945312 -38.148438 46.992188 -40.367188 47.734375 -43.203125 L 47.734375 -19.796875 C 46.992188 -22.628906 45.945312 -24.832031 44.59375 -26.40625 C 43.238281 -27.976562 41.375 -29.085938 39 -29.734375 C 36.625 -30.390625 33.523438 -30.71875 29.703125 -30.71875 L 21.09375 -30.71875 L 21.09375 -5.265625 C 21.09375 -3.609375 21.785156 -2.453125 23.171875 -1.796875 C 24.554688 -1.148438 26.207031 -0.707031 28.125 -0.46875 L 28.125 0 L 1.390625 0 L 1.390625 -0.46875 C 3.296875 -1.144531 4.941406 -2.003906 6.328125 -3.046875 C 7.722656 -4.097656 8.421875 -5.457031 8.421875 -7.125 L 8.421875 -59.484375 C 8.421875 -61.148438 7.722656 -62.304688 6.328125 -62.953125 C 4.941406 -63.597656 3.296875 -64.046875 1.390625 -64.296875 L 1.390625 -64.765625 Z M 52.828125 -64.765625 "/></g></g></g><g fill="#6b6b6b" fill-opacity="1"><g transform="translate(110.522158, 193.767731)"><g><path d="M 12.03125 -52.171875 C 10.113281 -52.171875 8.503906 -52.832031 7.203125 -54.15625 C 5.910156 -55.488281 5.265625 -57.113281 5.265625 -59.03125 C 5.265625 -60.9375 5.910156 -62.535156 7.203125 -63.828125 C 8.503906 -65.128906 10.113281 -65.78125 12.03125 -65.78125 C 13.9375 -65.78125 15.535156 -65.128906 16.828125 -63.828125 C 18.128906 -62.535156 18.78125 -60.9375 18.78125 -59.03125 C 18.78125 -57.113281 18.128906 -55.488281 16.828125 -54.15625 C 15.535156 -52.832031 13.9375 -52.171875 12.03125 -52.171875 Z M 6.015625 0 L 6.5625 -6.390625 L 6.5625 -41.90625 C 5.945312 -42.34375 5.097656 -42.710938 4.015625 -43.015625 C 2.941406 -43.328125 1.910156 -43.515625 0.921875 -43.578125 L 0.921875 -43.9375 L 18.78125 -45.328125 L 18.3125 -38.484375 L 18.3125 -8.609375 C 18.3125 -6.140625 18.570312 -4.316406 19.09375 -3.140625 C 19.625 -1.972656 20.566406 -0.925781 21.921875 0 Z M 6.015625 0 "/></g></g></g><g fill="#6b6b6b" fill-opacity="1"><g transform="translate(148.821731, 193.767731)"><g><path d="M 39.59375 0 L 40.15625 -6.390625 L 40.15625 -28.40625 C 40.15625 -31.851562 39.785156 -34.503906 39.046875 -36.359375 C 38.304688 -38.210938 37.332031 -39.476562 36.125 -40.15625 C 34.925781 -40.832031 33.585938 -41.171875 32.109375 -41.171875 C 29.265625 -41.171875 26.703125 -40.445312 24.421875 -39 C 22.140625 -37.550781 20.101562 -36.175781 18.3125 -34.875 L 18.3125 -8.609375 C 18.3125 -6.140625 18.570312 -4.316406 19.09375 -3.140625 C 19.625 -1.972656 20.566406 -0.925781 21.921875 0 L 6.015625 0 L 6.5625 -6.390625 L 6.5625 -41.90625 C 5.945312 -42.34375 5.097656 -42.710938 4.015625 -43.015625 C 2.941406 -43.328125 1.910156 -43.515625 0.921875 -43.578125 L 0.921875 -43.9375 L 18.78125 -45.328125 L 18.3125 -38.484375 L 18.3125 -37.09375 C 19.738281 -38.082031 21.46875 -39.222656 23.5 -40.515625 C 25.53125 -41.816406 27.796875 -42.957031 30.296875 -43.9375 C 32.796875 -44.925781 35.429688 -45.421875 38.203125 -45.421875 C 39.679688 -45.421875 41.207031 -45.1875 42.78125 -44.71875 C 44.351562 -44.257812 45.832031 -43.425781 47.21875 -42.21875 C 48.613281 -41.019531 49.742188 -39.328125 50.609375 -37.140625 C 51.472656 -34.953125 51.90625 -32.101562 51.90625 -28.59375 L 51.90625 -8.609375 C 51.90625 -6.140625 52.164062 -4.316406 52.6875 -3.140625 C 53.207031 -1.972656 54.148438 -0.925781 55.515625 0 Z M 39.59375 0 "/></g></g></g><g fill="#6b6b6b" fill-opacity="1"><g transform="translate(219.776492, 193.767731)"><g><path d="M 50.96875 -7.59375 C 50.96875 -5.125 51.226562 -3.332031 51.75 -2.21875 C 52.28125 -1.113281 53.222656 -0.0976562 54.578125 0.828125 L 54.578125 1.109375 L 36.90625 -1.75 C 36.90625 -1.75 36.921875 -1.75 36.953125 -1.75 C 36.984375 -1.75 37 -1.78125 37 -1.84375 C 35.519531 -1.039062 33.851562 -0.425781 32 0 C 30.15625 0.425781 28.15625 0.640625 26 0.640625 C 21.5 0.640625 17.582031 -0.21875 14.25 -1.9375 C 10.914062 -3.664062 8.320312 -6.117188 6.46875 -9.296875 C 4.625 -12.472656 3.703125 -16.191406 3.703125 -20.453125 C 3.703125 -24.953125 4.765625 -29.097656 6.890625 -32.890625 C 9.015625 -36.679688 12.21875 -39.71875 16.5 -42 C 20.789062 -44.28125 26.207031 -45.421875 32.75 -45.421875 C 35.707031 -45.421875 38.742188 -45.144531 41.859375 -44.59375 C 44.972656 -44.039062 48.007812 -43.175781 50.96875 -42 Z M 15.453125 -25.8125 C 15.453125 -21.375 16.160156 -17.378906 17.578125 -13.828125 C 18.992188 -10.285156 20.953125 -7.476562 23.453125 -5.40625 C 25.953125 -3.34375 28.742188 -2.3125 31.828125 -2.3125 C 34.722656 -2.3125 37.128906 -3.359375 39.046875 -5.453125 C 39.109375 -5.953125 39.15625 -6.460938 39.1875 -6.984375 C 39.21875 -7.503906 39.234375 -8.101562 39.234375 -8.78125 L 39.234375 -38.671875 C 37.804688 -40.273438 36.226562 -41.507812 34.5 -42.375 C 32.78125 -43.238281 30.8125 -43.671875 28.59375 -43.671875 C 24.269531 -43.671875 21 -42.035156 18.78125 -38.765625 C 16.5625 -35.492188 15.453125 -31.175781 15.453125 -25.8125 Z M 15.453125 -25.8125 "/></g></g></g><g fill="#6b6b6b" fill-opacity="1"><g transform="translate(291.193834, 193.767731)"><g><path d="M 19.15625 -8.96875 C 19.15625 -6.5 19.460938 -4.570312 20.078125 -3.1875 C 20.691406 -1.800781 22.140625 -0.863281 24.421875 -0.375 L 24.421875 0 L 6.5625 0 L 7.40625 -5.734375 L 7.40625 -60.78125 C 7.40625 -62.632812 6.753906 -63.5625 5.453125 -63.5625 C 4.160156 -63.5625 2.035156 -63.128906 -0.921875 -62.265625 L -0.921875 -62.8125 L 19.609375 -72.4375 L 19.15625 -68.28125 Z M 19.15625 -8.96875 "/></g></g></g><g fill="#6b6b6b" fill-opacity="1"><g transform="translate(330.603485, 193.767731)"><g/></g></g><g fill="#6b6b6b" fill-opacity="1"><g transform="translate(362.70503, 193.767731)"><g><path d="M 65.78125 -11.65625 C 66.882812 -8.820312 67.867188 -6.617188 68.734375 -5.046875 C 69.597656 -3.472656 70.507812 -2.34375 71.46875 -1.65625 C 72.425781 -0.976562 73.582031 -0.550781 74.9375 -0.375 L 74.9375 0 L 45.703125 0 L 45.703125 -0.375 C 47.859375 -0.550781 49.644531 -0.960938 51.0625 -1.609375 C 52.488281 -2.265625 53.382812 -3.332031 53.75 -4.8125 C 54.125 -6.289062 53.753906 -8.390625 52.640625 -11.109375 L 50.796875 -15.734375 L 15.453125 -15.734375 L 13.421875 -11.109375 C 12.242188 -8.453125 11.804688 -6.414062 12.109375 -5 C 12.421875 -3.582031 13.191406 -2.546875 14.421875 -1.890625 C 15.660156 -1.242188 17.144531 -0.738281 18.875 -0.375 L 18.875 0 L 1.84375 0 L 1.84375 -0.375 C 3.144531 -0.738281 4.300781 -1.257812 5.3125 -1.9375 C 6.332031 -2.613281 7.320312 -3.660156 8.28125 -5.078125 C 9.238281 -6.503906 10.269531 -8.539062 11.375 -11.1875 L 31.640625 -57.921875 L 31.453125 -60.59375 L 33.21875 -61.609375 L 44.125 -67.4375 C 44.125 -67.195312 44.234375 -66.660156 44.453125 -65.828125 C 44.671875 -64.992188 45.273438 -63.375 46.265625 -60.96875 Z M 16.09375 -17.390625 L 50.140625 -17.390625 L 33.765625 -58.1875 Z M 16.09375 -17.390625 "/></g></g></g><g fill="#6b6b6b" fill-opacity="1"><g transform="translate(453.086478, 193.767731)"><g><path d="M 33.21875 -45.328125 C 35.0625 -45.328125 36.753906 -44.957031 38.296875 -44.21875 L 29.046875 -28.859375 L 28.6875 -28.859375 C 29.726562 -31.640625 29.910156 -34 29.234375 -35.9375 C 28.554688 -37.882812 27.351562 -38.859375 25.625 -38.859375 C 23.53125 -38.859375 21.878906 -37.671875 20.671875 -35.296875 C 19.472656 -32.921875 18.6875 -30.128906 18.3125 -26.921875 L 18.3125 -8.609375 C 18.3125 -6.140625 18.570312 -4.316406 19.09375 -3.140625 C 19.625 -1.972656 20.566406 -0.925781 21.921875 0 L 6.109375 0 L 6.5625 -6.390625 L 6.5625 -41.90625 C 5.945312 -42.34375 5.097656 -42.710938 4.015625 -43.015625 C 2.941406 -43.328125 1.910156 -43.515625 0.921875 -43.578125 L 0.921875 -43.9375 L 18.78125 -45.328125 L 18.3125 -38.484375 L 18.3125 -35.53125 L 19.515625 -35.53125 C 20.566406 -38.488281 22.296875 -40.859375 24.703125 -42.640625 C 27.109375 -44.429688 29.945312 -45.328125 33.21875 -45.328125 Z M 33.21875 -45.328125 "/></g></g></g><g fill="#6b6b6b" fill-opacity="1"><g transform="translate(502.671803, 193.767731)"><g><path d="M 28.5 0.640625 C 23.625 0.640625 19.316406 -0.3125 15.578125 -2.21875 C 11.847656 -4.132812 8.9375 -6.769531 6.84375 -10.125 C 4.75 -13.488281 3.703125 -17.390625 3.703125 -21.828125 C 3.703125 -26.765625 4.9375 -30.988281 7.40625 -34.5 C 9.875 -38.019531 13.140625 -40.71875 17.203125 -42.59375 C 21.273438 -44.476562 25.71875 -45.421875 30.53125 -45.421875 C 34.601562 -45.421875 38.023438 -44.800781 40.796875 -43.5625 C 43.578125 -42.332031 45.675781 -40.890625 47.09375 -39.234375 L 37.84375 -25.34375 L 37.65625 -25.34375 C 39.070312 -29.539062 39.394531 -33.007812 38.625 -35.75 C 37.851562 -38.5 36.476562 -40.566406 34.5 -41.953125 C 32.53125 -43.335938 30.40625 -44.03125 28.125 -44.03125 C 25.96875 -44.03125 23.929688 -43.414062 22.015625 -42.1875 C 20.109375 -40.957031 18.582031 -39.09375 17.4375 -36.59375 C 16.300781 -34.09375 15.734375 -30.929688 15.734375 -27.109375 C 15.734375 -22.785156 16.519531 -18.863281 18.09375 -15.34375 C 19.664062 -11.832031 21.867188 -9.046875 24.703125 -6.984375 C 27.535156 -4.921875 30.832031 -3.890625 34.59375 -3.890625 C 36.507812 -3.890625 38.625 -4.242188 40.9375 -4.953125 C 43.25 -5.660156 45.113281 -6.910156 46.53125 -8.703125 L 47 -8.328125 C 45.644531 -5.859375 43.410156 -3.742188 40.296875 -1.984375 C 37.179688 -0.234375 33.25 0.640625 28.5 0.640625 Z M 28.5 0.640625 "/></g></g></g><g fill="#6b6b6b" fill-opacity="1"><g transform="translate(565.670928, 193.767731)"><g><path d="M 40.421875 0 L 40.984375 -6.390625 L 40.984375 -28.40625 C 40.984375 -31.851562 40.613281 -34.503906 39.875 -36.359375 C 39.132812 -38.210938 38.160156 -39.476562 36.953125 -40.15625 C 35.753906 -40.832031 34.414062 -41.171875 32.9375 -41.171875 C 30.101562 -41.171875 27.539062 -40.445312 25.25 -39 C 22.96875 -37.550781 20.9375 -36.207031 19.15625 -34.96875 L 19.15625 -8.96875 C 19.15625 -6.5 19.460938 -4.570312 20.078125 -3.1875 C 20.691406 -1.800781 22.140625 -0.863281 24.421875 -0.375 L 24.421875 0 L 6.5625 0 L 7.40625 -5.734375 L 7.40625 -60.78125 C 7.40625 -62.632812 6.753906 -63.5625 5.453125 -63.5625 C 4.160156 -63.5625 2.035156 -63.128906 -0.921875 -62.265625 L -0.921875 -62.8125 L 19.609375 -72.4375 L 19.15625 -68.28125 L 19.15625 -37.1875 C 20.632812 -38.175781 22.390625 -39.316406 24.421875 -40.609375 C 26.460938 -41.910156 28.726562 -43.035156 31.21875 -43.984375 C 33.71875 -44.941406 36.328125 -45.421875 39.046875 -45.421875 C 40.523438 -45.421875 42.050781 -45.1875 43.625 -44.71875 C 45.195312 -44.257812 46.675781 -43.425781 48.0625 -42.21875 C 49.445312 -41.019531 50.570312 -39.328125 51.4375 -37.140625 C 52.300781 -34.953125 52.734375 -32.101562 52.734375 -28.59375 L 52.734375 -8.609375 C 52.734375 -6.140625 52.992188 -4.316406 53.515625 -3.140625 C 54.046875 -1.972656 54.988281 -0.925781 56.34375 0 Z M 40.421875 0 "/></g></g></g><g fill="#6b6b6b" fill-opacity="1"><g transform="translate(638.383387, 193.767731)"><g><path d="M 12.03125 -52.171875 C 10.113281 -52.171875 8.503906 -52.832031 7.203125 -54.15625 C 5.910156 -55.488281 5.265625 -57.113281 5.265625 -59.03125 C 5.265625 -60.9375 5.910156 -62.535156 7.203125 -63.828125 C 8.503906 -65.128906 10.113281 -65.78125 12.03125 -65.78125 C 13.9375 -65.78125 15.535156 -65.128906 16.828125 -63.828125 C 18.128906 -62.535156 18.78125 -60.9375 18.78125 -59.03125 C 18.78125 -57.113281 18.128906 -55.488281 16.828125 -54.15625 C 15.535156 -52.832031 13.9375 -52.171875 12.03125 -52.171875 Z M 6.015625 0 L 6.5625 -6.390625 L 6.5625 -41.90625 C 5.945312 -42.34375 5.097656 -42.710938 4.015625 -43.015625 C 2.941406 -43.328125 1.910156 -43.515625 0.921875 -43.578125 L 0.921875 -43.9375 L 18.78125 -45.328125 L 18.3125 -38.484375 L 18.3125 -8.609375 C 18.3125 -6.140625 18.570312 -4.316406 19.09375 -3.140625 C 19.625 -1.972656 20.566406 -0.925781 21.921875 0 Z M 6.015625 0 "/></g></g></g><g fill="#6b6b6b" fill-opacity="1"><g transform="translate(677.423072, 193.767731)"><g><path d="M 36.171875 -44.875 L 50.234375 -44.875 L 50.234375 -44.5 C 49.242188 -44.125 48.316406 -43.597656 47.453125 -42.921875 C 46.597656 -42.242188 45.722656 -41.195312 44.828125 -39.78125 C 43.929688 -38.363281 42.863281 -36.328125 41.625 -33.671875 L 25.8125 1.109375 L 25.25 1.109375 L 6.109375 -38.578125 L 2.3125 -44.875 L 24.609375 -44.875 L 24.609375 -44.5 C 23.066406 -44.3125 21.691406 -43.878906 20.484375 -43.203125 C 19.285156 -42.523438 18.5625 -41.445312 18.3125 -39.96875 C 18.070312 -38.488281 18.566406 -36.421875 19.796875 -33.765625 L 30.15625 -12.390625 L 39.875 -33.765625 C 41.039062 -36.421875 41.5 -38.457031 41.25 -39.875 C 41.007812 -41.289062 40.378906 -42.320312 39.359375 -42.96875 C 38.347656 -43.613281 37.285156 -44.125 36.171875 -44.5 Z M 36.171875 -44.875 "/></g></g></g><g fill="#6b6b6b" fill-opacity="1"><g transform="translate(737.554172, 193.767731)"><g><path d="M 48.203125 -9.0625 L 48.65625 -8.703125 C 47.300781 -6.109375 44.847656 -3.898438 41.296875 -2.078125 C 37.753906 -0.265625 33.519531 0.640625 28.59375 0.640625 C 23.65625 0.640625 19.316406 -0.296875 15.578125 -2.171875 C 11.847656 -4.054688 8.9375 -6.691406 6.84375 -10.078125 C 4.75 -13.472656 3.703125 -17.359375 3.703125 -21.734375 C 3.703125 -25.441406 4.425781 -28.757812 5.875 -31.6875 C 7.320312 -34.613281 9.3125 -37.09375 11.84375 -39.125 C 14.375 -41.164062 17.226562 -42.722656 20.40625 -43.796875 C 23.582031 -44.878906 26.894531 -45.421875 30.34375 -45.421875 C 34.351562 -45.421875 37.632812 -44.757812 40.1875 -43.4375 C 42.75 -42.113281 44.628906 -40.476562 45.828125 -38.53125 C 47.035156 -36.59375 47.609375 -34.632812 47.546875 -32.65625 C 47.484375 -30.6875 46.820312 -29.035156 45.5625 -27.703125 C 44.300781 -26.378906 42.5 -25.71875 40.15625 -25.71875 L 15.734375 -25.71875 C 15.785156 -21.34375 16.597656 -17.519531 18.171875 -14.25 C 19.742188 -10.976562 21.929688 -8.429688 24.734375 -6.609375 C 27.546875 -4.796875 30.804688 -3.890625 34.515625 -3.890625 C 35.992188 -3.890625 37.609375 -4.054688 39.359375 -4.390625 C 41.117188 -4.734375 42.800781 -5.289062 44.40625 -6.0625 C 46.007812 -6.832031 47.273438 -7.832031 48.203125 -9.0625 Z M 27.296875 -43.9375 C 24.148438 -43.9375 21.476562 -42.457031 19.28125 -39.5 C 17.09375 -36.539062 15.910156 -32.472656 15.734375 -27.296875 L 34.328125 -27.484375 C 35.554688 -27.484375 36.445312 -28.035156 37 -29.140625 C 37.5625 -30.253906 37.78125 -31.628906 37.65625 -33.265625 C 37.53125 -34.898438 37.050781 -36.53125 36.21875 -38.15625 C 35.382812 -39.789062 34.226562 -41.160156 32.75 -42.265625 C 31.269531 -43.378906 29.453125 -43.9375 27.296875 -43.9375 Z M 27.296875 -43.9375 "/></g></g></g><g fill="#6b6b6b" fill-opacity="1"><g transform="translate(801.848448, 193.767731)"><g/></g></g><g fill="#6b6b6b" fill-opacity="1"><g transform="translate(833.949994, 193.767731)"><g><path d="M 82.25 -64.296875 C 80.332031 -64.046875 78.679688 -63.597656 77.296875 -62.953125 C 75.910156 -62.304688 75.21875 -61.148438 75.21875 -59.484375 L 75.21875 -5.265625 C 75.21875 -3.609375 75.910156 -2.453125 77.296875 -1.796875 C 78.679688 -1.148438 80.332031 -0.707031 82.25 -0.46875 L 82.25 0 L 55.515625 0 L 55.515625 -0.46875 C 57.421875 -0.707031 59.066406 -1.148438 60.453125 -1.796875 C 61.847656 -2.453125 62.546875 -3.609375 62.546875 -5.265625 L 62.546875 -59.953125 L 36.734375 1.015625 L 10.265625 -51.8125 L 10.265625 -16.375 C 10.265625 -12.175781 10.585938 -8.953125 11.234375 -6.703125 C 11.890625 -4.453125 12.753906 -2.894531 13.828125 -2.03125 C 14.910156 -1.164062 16.066406 -0.644531 17.296875 -0.46875 L 17.296875 0 L 1.390625 0 L 1.390625 -0.46875 C 2.679688 -0.644531 3.847656 -1.007812 4.890625 -1.5625 C 5.941406 -2.125 6.789062 -3.375 7.4375 -5.3125 C 8.09375 -7.257812 8.421875 -10.332031 8.421875 -14.53125 L 8.421875 -55.515625 C 7.554688 -57.296875 6.582031 -58.910156 5.5 -60.359375 C 4.425781 -61.816406 2.898438 -63.285156 0.921875 -64.765625 L 17.203125 -64.765625 L 41.8125 -15.640625 L 62.546875 -64.765625 L 82.25 -64.765625 Z M 82.25 -64.296875 "/></g></g></g><g fill="#6b6b6b" fill-opacity="1"><g transform="translate(929.789312, 193.767731)"><g><path d="M 48.203125 -9.0625 L 48.65625 -8.703125 C 47.300781 -6.109375 44.847656 -3.898438 41.296875 -2.078125 C 37.753906 -0.265625 33.519531 0.640625 28.59375 0.640625 C 23.65625 0.640625 19.316406 -0.296875 15.578125 -2.171875 C 11.847656 -4.054688 8.9375 -6.691406 6.84375 -10.078125 C 4.75 -13.472656 3.703125 -17.359375 3.703125 -21.734375 C 3.703125 -25.441406 4.425781 -28.757812 5.875 -31.6875 C 7.320312 -34.613281 9.3125 -37.09375 11.84375 -39.125 C 14.375 -41.164062 17.226562 -42.722656 20.40625 -43.796875 C 23.582031 -44.878906 26.894531 -45.421875 30.34375 -45.421875 C 34.351562 -45.421875 37.632812 -44.757812 40.1875 -43.4375 C 42.75 -42.113281 44.628906 -40.476562 45.828125 -38.53125 C 47.035156 -36.59375 47.609375 -34.632812 47.546875 -32.65625 C 47.484375 -30.6875 46.820312 -29.035156 45.5625 -27.703125 C 44.300781 -26.378906 42.5 -25.71875 40.15625 -25.71875 L 15.734375 -25.71875 C 15.785156 -21.34375 16.597656 -17.519531 18.171875 -14.25 C 19.742188 -10.976562 21.929688 -8.429688 24.734375 -6.609375 C 27.546875 -4.796875 30.804688 -3.890625 34.515625 -3.890625 C 35.992188 -3.890625 37.609375 -4.054688 39.359375 -4.390625 C 41.117188 -4.734375 42.800781 -5.289062 44.40625 -6.0625 C 46.007812 -6.832031 47.273438 -7.832031 48.203125 -9.0625 Z M 27.296875 -43.9375 C 24.148438 -43.9375 21.476562 -42.457031 19.28125 -39.5 C 17.09375 -36.539062 15.910156 -32.472656 15.734375 -27.296875 L 34.328125 -27.484375 C 35.554688 -27.484375 36.445312 -28.035156 37 -29.140625 C 37.5625 -30.253906 37.78125 -31.628906 37.65625 -33.265625 C 37.53125 -34.898438 37.050781 -36.53125 36.21875 -38.15625 C 35.382812 -39.789062 34.226562 -41.160156 32.75 -42.265625 C 31.269531 -43.378906 29.453125 -43.9375 27.296875 -43.9375 Z M 27.296875 -43.9375 "/></g></g></g><g fill="#6b6b6b" fill-opacity="1"><g transform="translate(994.083589, 193.767731)"><g><path d="M 50.96875 -7.59375 C 50.96875 -5.125 51.226562 -3.332031 51.75 -2.21875 C 52.28125 -1.113281 53.222656 -0.0976562 54.578125 0.828125 L 54.578125 1.109375 L 36.90625 -1.75 C 36.90625 -1.75 36.921875 -1.75 36.953125 -1.75 C 36.984375 -1.75 37 -1.78125 37 -1.84375 C 35.519531 -1.039062 33.851562 -0.425781 32 0 C 30.15625 0.425781 28.15625 0.640625 26 0.640625 C 21.5 0.640625 17.582031 -0.21875 14.25 -1.9375 C 10.914062 -3.664062 8.320312 -6.117188 6.46875 -9.296875 C 4.625 -12.472656 3.703125 -16.191406 3.703125 -20.453125 C 3.703125 -24.953125 4.765625 -29.097656 6.890625 -32.890625 C 9.015625 -36.679688 12.21875 -39.71875 16.5 -42 C 20.789062 -44.28125 26.207031 -45.421875 32.75 -45.421875 C 33.800781 -45.421875 34.863281 -45.375 35.9375 -45.28125 C 37.019531 -45.1875 38.117188 -45.082031 39.234375 -44.96875 L 39.234375 -60.78125 C 39.234375 -62.632812 38.582031 -63.5625 37.28125 -63.5625 C 35.988281 -63.5625 33.863281 -63.128906 30.90625 -62.265625 L 30.90625 -62.8125 L 51.4375 -72.4375 L 50.96875 -68.28125 Z M 15.453125 -25.8125 C 15.453125 -21.375 16.160156 -17.378906 17.578125 -13.828125 C 18.992188 -10.285156 20.953125 -7.476562 23.453125 -5.40625 C 25.953125 -3.34375 28.742188 -2.3125 31.828125 -2.3125 C 34.722656 -2.3125 37.128906 -3.359375 39.046875 -5.453125 C 39.109375 -5.953125 39.15625 -6.460938 39.1875 -6.984375 C 39.21875 -7.503906 39.234375 -8.101562 39.234375 -8.78125 L 39.234375 -38.671875 C 37.804688 -40.273438 36.226562 -41.507812 34.5 -42.375 C 32.78125 -43.238281 30.8125 -43.671875 28.59375 -43.671875 C 24.269531 -43.671875 21 -42.035156 18.78125 -38.765625 C 16.5625 -35.492188 15.453125 -31.175781 15.453125 -25.8125 Z M 15.453125 -25.8125 "/></g></g></g><g fill="#6b6b6b" fill-opacity="1"><g transform="translate(1065.500943, 193.767731)"><g><path d="M 12.03125 -52.171875 C 10.113281 -52.171875 8.503906 -52.832031 7.203125 -54.15625 C 5.910156 -55.488281 5.265625 -57.113281 5.265625 -59.03125 C 5.265625 -60.9375 5.910156 -62.535156 7.203125 -63.828125 C 8.503906 -65.128906 10.113281 -65.78125 12.03125 -65.78125 C 13.9375 -65.78125 15.535156 -65.128906 16.828125 -63.828125 C 18.128906 -62.535156 18.78125 -60.9375 18.78125 -59.03125 C 18.78125 -57.113281 18.128906 -55.488281 16.828125 -54.15625 C 15.535156 -52.832031 13.9375 -52.171875 12.03125 -52.171875 Z M 6.015625 0 L 6.5625 -6.390625 L 6.5625 -41.90625 C 5.945312 -42.34375 5.097656 -42.710938 4.015625 -43.015625 C 2.941406 -43.328125 1.910156 -43.515625 0.921875 -43.578125 L 0.921875 -43.9375 L 18.78125 -45.328125 L 18.3125 -38.484375 L 18.3125 -8.609375 C 18.3125 -6.140625 18.570312 -4.316406 19.09375 -3.140625 C 19.625 -1.972656 20.566406 -0.925781 21.921875 0 Z M 6.015625 0 "/></g></g></g><g fill="#6b6b6b" fill-opacity="1"><g transform="translate(1102.875422, 193.767731)"><g><path d="M 50.96875 -7.59375 C 50.96875 -5.125 51.226562 -3.332031 51.75 -2.21875 C 52.28125 -1.113281 53.222656 -0.0976562 54.578125 0.828125 L 54.578125 1.109375 L 36.90625 -1.75 C 36.90625 -1.75 36.921875 -1.75 36.953125 -1.75 C 36.984375 -1.75 37 -1.78125 37 -1.84375 C 35.519531 -1.039062 33.851562 -0.425781 32 0 C 30.15625 0.425781 28.15625 0.640625 26 0.640625 C 21.5 0.640625 17.582031 -0.21875 14.25 -1.9375 C 10.914062 -3.664062 8.320312 -6.117188 6.46875 -9.296875 C 4.625 -12.472656 3.703125 -16.191406 3.703125 -20.453125 C 3.703125 -24.953125 4.765625 -29.097656 6.890625 -32.890625 C 9.015625 -36.679688 12.21875 -39.71875 16.5 -42 C 20.789062 -44.28125 26.207031 -45.421875 32.75 -45.421875 C 35.707031 -45.421875 38.742188 -45.144531 41.859375 -44.59375 C 44.972656 -44.039062 48.007812 -43.175781 50.96875 -42 Z M 15.453125 -25.8125 C 15.453125 -21.375 16.160156 -17.378906 17.578125 -13.828125 C 18.992188 -10.285156 20.953125 -7.476562 23.453125 -5.40625 C 25.953125 -3.34375 28.742188 -2.3125 31.828125 -2.3125 C 34.722656 -2.3125 37.128906 -3.359375 39.046875 -5.453125 C 39.109375 -5.953125 39.15625 -6.460938 39.1875 -6.984375 C 39.21875 -7.503906 39.234375 -8.101562 39.234375 -8.78125 L 39.234375 -38.671875 C 37.804688 -40.273438 36.226562 -41.507812 34.5 -42.375 C 32.78125 -43.238281 30.8125 -43.671875 28.59375 -43.671875 C 24.269531 -43.671875 21 -42.035156 18.78125 -38.765625 C 16.5625 -35.492188 15.453125 -31.175781 15.453125 -25.8125 Z M 15.453125 -25.8125 "/></g></g></g><g fill="#6b6b6b" fill-opacity="1"><g transform="translate(234.790018, 348.876042)"><g><path d="M 36.859375 -49.890625 L 36.859375 -45.046875 L 13.40625 -45.046875 L 13.40625 -26.890625 L 34.5 -26.890625 L 34.5 -22.015625 L 13.40625 -22.015625 L 13.40625 0 L 7.546875 0 L 7.546875 -49.890625 Z M 36.859375 -49.890625 "/></g></g></g><g fill="#6b6b6b" fill-opacity="1"><g transform="translate(291.152384, 348.876042)"><g><path d="M 21.609375 0.71875 C 18.054688 0.71875 14.960938 -0.03125 12.328125 -1.53125 C 9.703125 -3.03125 7.675781 -5.242188 6.25 -8.171875 C 4.832031 -11.097656 4.125 -14.640625 4.125 -18.796875 C 4.125 -22.960938 4.832031 -26.515625 6.25 -29.453125 C 7.675781 -32.390625 9.703125 -34.609375 12.328125 -36.109375 C 14.960938 -37.609375 18.054688 -38.359375 21.609375 -38.359375 C 25.148438 -38.359375 28.234375 -37.609375 30.859375 -36.109375 C 33.492188 -34.609375 35.519531 -32.390625 36.9375 -29.453125 C 38.363281 -26.515625 39.078125 -22.960938 39.078125 -18.796875 C 39.078125 -14.640625 38.363281 -11.097656 36.9375 -8.171875 C 35.519531 -5.242188 33.492188 -3.03125 30.859375 -1.53125 C 28.234375 -0.03125 25.148438 0.71875 21.609375 0.71875 Z M 21.609375 -4.265625 C 25.359375 -4.265625 28.226562 -5.445312 30.21875 -7.8125 C 32.207031 -10.175781 33.203125 -13.835938 33.203125 -18.796875 C 33.203125 -23.785156 32.207031 -27.460938 30.21875 -29.828125 C 28.226562 -32.191406 25.359375 -33.375 21.609375 -33.375 C 17.847656 -33.375 14.96875 -32.1875 12.96875 -29.8125 C 10.96875 -27.4375 9.96875 -23.765625 9.96875 -18.796875 C 9.96875 -13.835938 10.96875 -10.175781 12.96875 -7.8125 C 14.96875 -5.445312 17.847656 -4.265625 21.609375 -4.265625 Z M 21.609375 -4.265625 "/></g></g></g><g fill="#6b6b6b" fill-opacity="1"><g transform="translate(352.599599, 348.876042)"><g><path d="M 6.546875 0 L 6.546875 -37.640625 L 11.84375 -37.640625 L 11.84375 -31.734375 L 12.5625 -31.5625 C 14.3125 -35.84375 17.609375 -37.984375 22.453125 -37.984375 C 25.023438 -37.984375 26.945312 -37.515625 28.21875 -36.578125 L 26.796875 -31.875 L 26.109375 -31.734375 C 24.691406 -32.441406 23.144531 -32.796875 21.46875 -32.796875 C 18.457031 -32.796875 16.144531 -31.664062 14.53125 -29.40625 C 12.914062 -27.15625 12.109375 -23.507812 12.109375 -18.46875 L 12.109375 0 Z M 6.546875 0 "/></g></g></g><g fill="#6b6b6b" fill-opacity="1"><g transform="translate(399.918535, 348.876042)"><g/></g></g><g fill="#6b6b6b" fill-opacity="1"><g transform="translate(435.293285, 348.876042)"><g><path d="M 44.90625 0 L 38.625 0 L 34.03125 -13.6875 L 12.765625 -13.6875 L 8.125 0 L 1.984375 0 L 19.390625 -49.890625 L 27.5 -49.890625 Z M 22.96875 -43.859375 L 14.40625 -18.59375 L 32.359375 -18.59375 L 23.8125 -43.859375 Z M 22.96875 -43.859375 "/></g></g></g><g fill="#6b6b6b" fill-opacity="1"><g transform="translate(499.982474, 348.876042)"><g><path d="M 14.984375 0.71875 C 12.316406 0.71875 10.222656 -0.0351562 8.703125 -1.546875 C 7.179688 -3.066406 6.421875 -5.328125 6.421875 -8.328125 L 6.421875 -52.765625 L 11.984375 -52.765625 L 11.984375 -8.703125 C 11.984375 -7.128906 12.28125 -5.992188 12.875 -5.296875 C 13.476562 -4.609375 14.421875 -4.265625 15.703125 -4.265625 C 16.472656 -4.265625 17.253906 -4.390625 18.046875 -4.640625 L 18.53125 -4.5 L 19.171875 -0.140625 C 18.765625 0.128906 18.179688 0.335938 17.421875 0.484375 C 16.660156 0.640625 15.847656 0.71875 14.984375 0.71875 Z M 14.984375 0.71875 "/></g></g></g><g fill="#6b6b6b" fill-opacity="1"><g transform="translate(538.701588, 348.876042)"><g><path d="M 14.984375 0.71875 C 12.316406 0.71875 10.222656 -0.0351562 8.703125 -1.546875 C 7.179688 -3.066406 6.421875 -5.328125 6.421875 -8.328125 L 6.421875 -52.765625 L 11.984375 -52.765625 L 11.984375 -8.703125 C 11.984375 -7.128906 12.28125 -5.992188 12.875 -5.296875 C 13.476562 -4.609375 14.421875 -4.265625 15.703125 -4.265625 C 16.472656 -4.265625 17.253906 -4.390625 18.046875 -4.640625 L 18.53125 -4.5 L 19.171875 -0.140625 C 18.765625 0.128906 18.179688 0.335938 17.421875 0.484375 C 16.660156 0.640625 15.847656 0.71875 14.984375 0.71875 Z M 14.984375 0.71875 "/></g></g></g><g fill="#6b6b6b" fill-opacity="1"><g transform="translate(577.420701, 348.876042)"><g/></g></g><g fill="#6b6b6b" fill-opacity="1"><g transform="translate(612.79544, 348.876042)"><g><path d="M 13.40625 -23.515625 L 13.40625 -4.84375 L 38.828125 -4.84375 L 38.828125 0 L 7.546875 0 L 7.546875 -49.890625 L 38.296875 -49.890625 L 38.296875 -45.046875 L 13.40625 -45.046875 L 13.40625 -28.359375 L 35.359375 -28.359375 L 35.359375 -23.515625 Z M 13.40625 -23.515625 "/></g></g></g><g fill="#6b6b6b" fill-opacity="1"><g transform="translate(673.184764, 348.876042)"><g><path d="M 25.453125 -5.96875 L 27.234375 -1.984375 C 26.347656 -1.085938 25.179688 -0.414062 23.734375 0.03125 C 22.285156 0.488281 20.722656 0.71875 19.046875 0.71875 C 11.859375 0.71875 8.265625 -2.921875 8.265625 -10.203125 L 8.265625 -33.109375 L 1.703125 -33.109375 L 1.703125 -37.671875 L 8.265625 -37.671875 L 8.265625 -45.625 L 13.828125 -46.546875 L 13.828125 -37.671875 L 25.9375 -37.671875 L 25.9375 -33.109375 L 13.828125 -33.109375 L 13.828125 -10.75 C 13.828125 -6.425781 15.703125 -4.265625 19.453125 -4.265625 C 21.492188 -4.265625 23.253906 -4.832031 24.734375 -5.96875 Z M 25.453125 -5.96875 "/></g></g></g><g fill="#6b6b6b" fill-opacity="1"><g transform="translate(719.65052, 348.876042)"><g><path d="M 35.859375 -17.546875 L 10 -17.546875 C 10.15625 -12.972656 11.25 -9.613281 13.28125 -7.46875 C 15.320312 -5.332031 18.117188 -4.265625 21.671875 -4.265625 C 24.359375 -4.265625 26.519531 -4.738281 28.15625 -5.6875 C 29.789062 -6.644531 31.078125 -8.148438 32.015625 -10.203125 L 32.734375 -10.203125 L 36.34375 -8.046875 C 35.25 -5.316406 33.5 -3.171875 31.09375 -1.609375 C 28.695312 -0.0546875 25.554688 0.71875 21.671875 0.71875 C 18.023438 0.71875 14.894531 0.00390625 12.28125 -1.421875 C 9.664062 -2.859375 7.648438 -5.03125 6.234375 -7.9375 C 4.828125 -10.851562 4.125 -14.472656 4.125 -18.796875 C 4.125 -23.078125 4.867188 -26.6875 6.359375 -29.625 C 7.847656 -32.5625 9.882812 -34.75 12.46875 -36.1875 C 15.050781 -37.632812 18.003906 -38.359375 21.328125 -38.359375 C 26.148438 -38.359375 29.914062 -37 32.625 -34.28125 C 35.332031 -31.5625 36.695312 -27.53125 36.71875 -22.1875 C 36.71875 -20.09375 36.671875 -18.679688 36.578125 -17.953125 Z M 31.21875 -22.1875 C 31.132812 -26.1875 30.25 -29.097656 28.5625 -30.921875 C 26.875 -32.742188 24.460938 -33.65625 21.328125 -33.65625 C 18.023438 -33.65625 15.4375 -32.738281 13.5625 -30.90625 C 11.6875 -29.070312 10.546875 -26.164062 10.140625 -22.1875 Z M 31.21875 -22.1875 "/></g></g></g><g fill="#6b6b6b" fill-opacity="1"><g transform="translate(778.026371, 348.876042)"><g><path d="M 6.546875 0 L 6.546875 -37.640625 L 11.84375 -37.640625 L 11.84375 -31.734375 L 12.5625 -31.5625 C 14.3125 -35.84375 17.609375 -37.984375 22.453125 -37.984375 C 25.023438 -37.984375 26.945312 -37.515625 28.21875 -36.578125 L 26.796875 -31.875 L 26.109375 -31.734375 C 24.691406 -32.441406 23.144531 -32.796875 21.46875 -32.796875 C 18.457031 -32.796875 16.144531 -31.664062 14.53125 -29.40625 C 12.914062 -27.15625 12.109375 -23.507812 12.109375 -18.46875 L 12.109375 0 Z M 6.546875 0 "/></g></g></g><g fill="#6b6b6b" fill-opacity="1"><g transform="translate(825.345307, 348.876042)"><g><path d="M 6.546875 0 L 6.546875 -37.640625 L 11.84375 -37.640625 L 11.84375 -31.734375 L 12.5625 -31.5625 C 13.8125 -33.769531 15.40625 -35.453125 17.34375 -36.609375 C 19.289062 -37.773438 21.664062 -38.359375 24.46875 -38.359375 C 29 -38.359375 32.28125 -37.203125 34.3125 -34.890625 C 36.351562 -32.585938 37.375 -29.035156 37.375 -24.234375 L 37.375 0 L 31.8125 0 L 31.8125 -24.09375 C 31.8125 -26.363281 31.519531 -28.1875 30.9375 -29.5625 C 30.351562 -30.945312 29.453125 -31.953125 28.234375 -32.578125 C 27.015625 -33.203125 25.414062 -33.515625 23.4375 -33.515625 C 20.050781 -33.515625 17.316406 -32.394531 15.234375 -30.15625 C 13.148438 -27.914062 12.109375 -24.300781 12.109375 -19.3125 L 12.109375 0 Z M 6.546875 0 "/></g></g></g><g fill="#6b6b6b" fill-opacity="1"><g transform="translate(886.929028, 348.876042)"><g><path d="M 9.34375 -44.90625 C 8.164062 -44.90625 7.207031 -45.273438 6.46875 -46.015625 C 5.726562 -46.753906 5.359375 -47.691406 5.359375 -48.828125 C 5.359375 -49.972656 5.726562 -50.914062 6.46875 -51.65625 C 7.207031 -52.394531 8.164062 -52.765625 9.34375 -52.765625 C 10.53125 -52.765625 11.492188 -52.394531 12.234375 -51.65625 C 12.972656 -50.914062 13.34375 -49.972656 13.34375 -48.828125 C 13.34375 -47.691406 12.972656 -46.753906 12.234375 -46.015625 C 11.492188 -45.273438 10.53125 -44.90625 9.34375 -44.90625 Z M 6.546875 0 L 6.546875 -37.640625 L 12.109375 -37.640625 L 12.109375 0 Z M 6.546875 0 "/></g></g></g><g fill="#6b6b6b" fill-opacity="1"><g transform="translate(923.839425, 348.876042)"><g><path d="M 25.453125 -5.96875 L 27.234375 -1.984375 C 26.347656 -1.085938 25.179688 -0.414062 23.734375 0.03125 C 22.285156 0.488281 20.722656 0.71875 19.046875 0.71875 C 11.859375 0.71875 8.265625 -2.921875 8.265625 -10.203125 L 8.265625 -33.109375 L 1.703125 -33.109375 L 1.703125 -37.671875 L 8.265625 -37.671875 L 8.265625 -45.625 L 13.828125 -46.546875 L 13.828125 -37.671875 L 25.9375 -37.671875 L 25.9375 -33.109375 L 13.828125 -33.109375 L 13.828125 -10.75 C 13.828125 -6.425781 15.703125 -4.265625 19.453125 -4.265625 C 21.492188 -4.265625 23.253906 -4.832031 24.734375 -5.96875 Z M 25.453125 -5.96875 "/></g></g></g><g fill="#6b6b6b" fill-opacity="1"><g transform="translate(970.748846, 348.876042)"><g><path d="M 7.546875 15.96875 C 6.265625 15.96875 5.070312 15.859375 3.96875 15.640625 C 2.875 15.429688 1.925781 15.132812 1.125 14.75 L 2.15625 10.34375 L 2.765625 10.140625 C 3.304688 10.410156 3.988281 10.640625 4.8125 10.828125 C 5.632812 11.023438 6.476562 11.125 7.34375 11.125 C 8.863281 11.125 10.125 10.914062 11.125 10.5 C 12.125 10.09375 12.984375 9.414062 13.703125 8.46875 C 14.421875 7.53125 15.085938 6.234375 15.703125 4.578125 L 17.03125 0.890625 L 1.90625 -37.640625 L 7.921875 -37.640625 L 19.765625 -6.921875 L 20.40625 -6.921875 L 31.875 -37.640625 L 37.578125 -37.640625 L 20.75 5.90625 C 19.789062 8.3125 18.71875 10.25 17.53125 11.71875 C 16.351562 13.1875 14.957031 14.257812 13.34375 14.9375 C 11.726562 15.625 9.796875 15.96875 7.546875 15.96875 Z M 7.546875 15.96875 "/></g></g></g></svg>